<svg width="100" height="100" viewBox="0 0 100 100" fill="none" xmlns="http://www.w3.org/2000/svg">
<g clip-path="url(#clip0_1_7)">
<g clip-path="url(#clip1_1_7)">
<path d="M0.0570679 100V0H99.9429V100H0.0570679Z" fill="#4A9CBF"/>
<g clip-path="url(#clip2_1_7)">
<g clip-path="url(#clip3_1_7)">
<g clip-path="url(#clip4_1_7)">
<g clip-path="url(#clip5_1_7)">
<g clip-path="url(#clip6_1_7)">
<path d="M5.07886 70.6375L68.7264 70.3142" stroke="white" stroke-width="3.74548" stroke-miterlimit="10" stroke-linecap="round"/>
<path d="M5.11118 76.9989L68.7587 76.6756" stroke="white" stroke-width="3.74548" stroke-miterlimit="10" stroke-linecap="round"/>
<path d="M71.7183 68.464C71.7284 72.3052 71.7646 77.5817 71.7646 77.5817C71.7646 77.5817 78.7742 77.3401 83.1418 75.9343C87.5082 74.53 86.6917 74.4807 90.3 72.4671C94.3922 70.1838 95.2978 67.1147 95.1776 66.1924C95.0575 65.2716 94.5084 62.221 93.6582 61.7929C93.148 61.5392 91.9597 61.5798 91.3293 61.7623C90.6412 61.9623 88.4866 63.3081 88.0265 63.6171C87.5675 63.9276 87.1421 64.3574 85.5494 65.0259C82.9483 66.1193 81.5973 66.6026 79.4134 67.2897C77.2319 67.9754 71.7183 68.464 71.7183 68.464Z" fill="white"/>
<path d="M77.9647 61.5091C78.2857 63.7212 77.6708 63.9287 80.7379 63.7087C83.8086 63.4856 83.5013 63.5123 86.5658 62.5503C90.0878 61.4475 91.462 59.9831 91.3036 59.1648C91.1463 58.3449 89.2907 57.7851 88.3813 57.5241C84.8756 56.5089 83.9229 56.3172 82.0787 55.9162C80.2358 55.5152 80.8495 55.3077 79.0149 56.5465C77.1802 57.7869 77.6484 59.2986 77.9647 61.5091Z" fill="white"/>
<path d="M46.2249 45.5657C45.7973 46.2455 45.0334 46.3343 44.5229 45.7599C44.0112 45.1855 43.9448 44.1672 44.3736 43.4874L48.1192 37.5321C48.5467 36.8508 49.3107 36.7636 49.8212 37.3364C50.3329 37.9123 50.4005 38.9307 49.9717 39.6105L46.2249 45.5657Z" fill="white"/>
<path d="M52.4747 50.1661C52.0673 50.8709 51.3095 51.0005 50.7802 50.4561C50.2522 49.9117 50.1517 48.8982 50.5579 48.195L54.1093 42.03C54.5156 41.3268 55.2746 41.1956 55.805 41.74C56.3318 42.2844 56.4335 43.2979 56.0284 44.0027L52.4747 50.1661Z" fill="white"/>
<path d="M58.5503 54.1021C58.1866 54.8476 57.4375 55.0557 56.8767 54.5665C56.3184 54.0789 56.1602 53.0798 56.5239 52.3359L59.7048 45.8191C60.0685 45.0737 60.8165 44.8655 61.3748 45.3532C61.9356 45.8408 62.0949 46.8414 61.7301 47.5853L58.5503 54.1021Z" fill="white"/>
<path d="M65.3297 57.9137C65.0409 58.5692 64.341 58.7362 63.7663 58.2864C63.1893 57.835 62.9539 56.9369 63.2415 56.283L65.748 50.5494C66.0321 49.8924 66.7332 49.7269 67.3102 50.1768C67.886 50.6297 68.1226 51.5246 67.835 52.1817L65.3297 57.9137Z" fill="white"/>
<path d="M70.6388 61.2279C70.3772 61.9036 69.687 62.1162 69.0937 61.7105C68.4992 61.3032 68.2274 60.4211 68.4878 59.7469L70.7579 53.84C71.0194 53.1642 71.7097 52.9469 72.3053 53.3573C72.8963 53.7647 73.1693 54.6452 72.9077 55.3178L70.6388 61.2279Z" fill="white"/>
<path d="M28.7301 29.1496C28.7301 29.1496 31.1644 29.9942 32.6723 31.4173C34.2914 32.9453 32.2359 36.1852 35.6248 38.5171C39.1307 40.9301 38.4144 43.6837 40.0176 42.2919C41.6218 40.8985 43.3752 38.4777 44.1092 36.8907C44.8386 35.3146 46.3425 33.8589 44.7697 31.2537C43.6067 29.3288 42.3639 28.1417 41.2057 26.918C40.0487 25.6944 36.5687 22.1272 34.6199 21.7817C32.7772 21.4562 31.7379 20.93 30.131 21.8045C28.5241 22.679 28.1774 22.3742 27.9567 24.3721C27.736 26.3733 28.7301 29.1496 28.7301 29.1496Z" fill="white"/>
<path d="M38.7491 44.8691C35.9712 42.0153 29.8063 36.7211 29.2076 39.9003C28.6088 43.0794 24.5543 45.35 21.1847 46.5966C17.8152 47.8433 16.5324 48.5259 11.636 45.9989C10.4384 45.3808 7.3484 42.0585 7.3484 42.0585C7.3484 42.0585 6.33696 39.3498 4.83042 44.6829C3.3227 50.016 3.84355 61.8859 3.84355 61.8859L3.89535 64.6623C3.89535 64.6623 67.0614 64.3887 71.4225 64.7329C68.4081 63.7765 41.4121 47.6055 38.7491 44.8691ZM28.1177 63.0283C26.8468 63.0348 25.8091 61.6658 25.8005 59.9678C25.7919 58.2697 26.8156 56.8903 28.0865 56.8838C29.3586 56.8774 30.3962 58.2463 30.4048 59.9444C30.4135 61.6424 29.3886 63.0218 28.1177 63.0283ZM35.4358 62.9911C34.1649 62.9976 33.1273 61.6286 33.1186 59.9306C33.11 58.2325 34.1337 56.8531 35.4046 56.8467C36.6767 56.8402 37.7131 58.2092 37.7218 59.9072C37.7304 61.6053 36.7079 62.9847 35.4358 62.9911Z" fill="white"/>
<path d="M71.4237 64.7313C71.5511 64.7699 71.6525 64.7945 71.6913 64.777C71.7301 64.7595 71.6087 64.7445 71.4237 64.7313Z" fill="white"/>
</g>
</g>
</g>
</g>
</g>
</g>
</g>
<defs>
<clipPath id="clip0_1_7">
<rect width="100" height="100" fill="white"/>
</clipPath>
<clipPath id="clip1_1_7">
<rect width="100" height="100" fill="white"/>
</clipPath>
<clipPath id="clip2_1_7">
<rect width="92.85" height="56.9333" fill="white" transform="translate(3 21.4716) rotate(-0.291021)"/>
</clipPath>
<clipPath id="clip3_1_7">
<rect width="91.2818" height="57.3607" fill="white" transform="translate(3.57684 21.4687) rotate(-0.291021)"/>
</clipPath>
<clipPath id="clip4_1_7">
<rect width="98.5816" height="91.828" fill="white" transform="translate(-0.0244751 21.4869) rotate(-0.291021)"/>
</clipPath>
<clipPath id="clip5_1_7">
<rect width="91.3851" height="56.4586" fill="white" transform="translate(3.57349 21.4687) rotate(-0.291021)"/>
</clipPath>
<clipPath id="clip6_1_7">
<rect width="91.3851" height="56.4586" fill="white" transform="translate(3.57349 21.4687) rotate(-0.291021)"/>
</clipPath>
</defs>
</svg>
