<svg width="500" height="500" viewBox="0 0 500 500" fill="none" xmlns="http://www.w3.org/2000/svg">
<path d="M382.2 430.49C309.2 468.63 190.81 468.63 117.79 430.49C44.77 392.35 44.79 330.49 117.79 292.36C190.79 254.23 309.19 254.22 382.21 292.36C455.23 330.5 455.22 392.35 382.2 430.49Z" fill="#F0F0F0"/>
<path d="M170.51 83.82L164.88 86V73.58C164.88 63.75 157.03 61.39 148.52 66.31C140 71.22 133.1 83.18 133.1 93V94.8C131.17 94.03 128.67 94.32 125.94 95.9C119.81 99.44 114.84 108.04 114.84 115.12V116L106.99 120.53C104.863 121.918 103.094 123.788 101.824 125.987C100.554 128.187 99.8194 130.654 99.68 133.19C99.68 137.85 102.96 139.74 106.99 137.41L170.51 100.7C172.642 99.3076 174.415 97.4318 175.685 95.225C176.955 93.0182 177.687 90.5428 177.82 88C177.82 83.38 174.54 81.49 170.51 83.82Z" fill="#F0F0F0"/>
<path d="M332.48 348.16C334.09 347.33 335.11 349.37 336.57 351.01C337.57 352.16 339.18 354.01 339.42 355.28C339.77 357.21 338.02 360.28 336.09 361.94C334.16 363.6 331.92 364.82 331.21 368.51C330.5 372.2 329.08 374.38 325.27 376.02C321.08 377.83 315.48 377.25 313.58 376.02C311.33 374.57 313.39 373.02 316.58 368.46C320.7 362.57 323.9 358.36 323.9 352.87L332.48 348.16Z" fill="#263238"/>
<path d="M330 343L332.58 348.3C333.3 349.328 333.585 350.598 333.371 351.835C333.158 353.072 332.463 354.174 331.44 354.9L331.34 354.97C330.315 355.587 329.106 355.825 327.924 355.642C326.742 355.459 325.661 354.868 324.87 353.97L320.34 347.84L330 343Z" fill="#FFA8A7"/>
<path d="M300.55 237C301.843 245.648 302.422 254.387 302.28 263.13C302.28 274.04 303.92 301.4 303.92 301.4C308.049 303.639 311.502 306.944 313.92 310.97C318.16 317.84 331.4 345.32 331.4 345.32C331.4 345.32 327.82 350.32 321.96 350.47C321.96 350.47 294.5 316.06 290.1 310.24C285.7 304.42 275.49 261.73 275.49 261.73L300.55 237Z" fill="#455A64"/>
<path d="M268.79 360.56L260.31 359.72L261.65 346.29L270.87 347.21L268.79 360.56Z" fill="#FFA8A7"/>
<path d="M260.76 355.17L260.9 353.85C259.98 354.15 256.79 361.33 253.16 364.74C249.16 368.47 245.62 370.82 243.85 372.5C241.47 374.75 245.75 378.2 252.23 377.75C255.44 377.52 261.13 375.82 262.71 373.89C264.29 371.96 264.71 369.3 265.95 367.89C267.19 366.48 269.69 365.23 270.47 363.54C270.89 362.62 270.66 360.04 270.67 358.19C270.67 355.83 270.33 354.68 269.67 354.67C269.67 354.87 269.5 355.84 269.5 355.84C268.514 357.059 267.103 357.86 265.55 358.08C264.07 358.21 260.33 357.78 260.76 355.17Z" fill="#263238"/>
<path d="M258.39 237L261.06 348.9C261.06 348.9 263.84 351.73 270.87 349.9C270.87 349.9 277.99 320.21 278.4 313.11C278.526 308.15 277.964 303.196 276.73 298.39L279.5 273.22L300.55 237H258.39Z" fill="#455A64"/>
<path d="M279.22 275.8C279.22 275.55 274.43 258.05 274.43 258.05C274.43 258.05 265.06 256.47 261.9 254.25C261.9 254.25 267.24 259.25 272.34 260.14L277.71 276.34L277.5 291.44L279.22 275.8Z" fill="#37474F"/>
<path d="M262.41 217.68C265.22 203.6 263.35 191.68 263.07 184.68C263.07 183.43 260.8 186.22 260.2 187.32L256.2 198.32C256.2 198.32 254.3 211 252.52 219.41C251.07 226.27 247.93 235 245.86 240.53C244.78 243.39 242.86 245.9 241.86 248.84C240.796 251.838 240.143 254.967 239.92 258.14C239.78 260.14 240.14 261.99 242.41 261.66C243.657 261.53 244.856 261.109 245.91 260.43C249.21 258.25 251.1 254.14 252.6 250.64C253.71 248.04 256.5 243.02 257.38 239.54C259.67 230.48 261.31 223.22 262.41 217.68Z" fill="#FFA8A7"/>
<path d="M272.34 179.86C265.89 179.93 259.55 181.38 257.34 188.24C255.21 194.94 252.46 214.39 252.46 214.39C252.46 214.39 255.17 217.99 264.21 217.39L272.34 179.86Z" fill="#4A9CBF"/>
<path opacity="0.2" d="M272.34 179.86C265.89 179.93 259.55 181.38 257.34 188.24C255.21 194.94 252.46 214.39 252.46 214.39C252.46 214.39 255.17 217.99 264.21 217.39L272.34 179.86Z" fill="black"/>
<path d="M316.08 224.2C312.65 205.84 304.76 192.87 303.53 188.28L300.11 211.69C302.501 217.589 304.554 223.618 306.26 229.75C308 236.56 310 245.13 310.09 251C310.094 252.045 309.721 253.057 309.04 253.85C307.21 255.98 306.76 257.72 305.61 260.05C304.71 261.87 303.68 262.58 304 262.97C304.413 263.381 304.966 263.621 305.548 263.641C306.131 263.661 306.699 263.461 307.14 263.08C308.134 262.267 309.03 261.34 309.81 260.32C309.664 262.623 309.151 264.889 308.29 267.03C306.34 271.93 306.95 274.37 313.39 272.4C317.39 271.17 319.86 267.68 320.1 257.86C320.252 254.24 320.148 250.615 319.79 247.01C318.57 237.78 317.12 229.76 316.08 224.2Z" fill="#FFA8A7"/>
<path d="M285.58 180.25C293.27 182.1 302.98 183.37 307.14 191.2C311.84 200.04 316.61 217.79 316.61 217.79C314.21 220.61 306.18 223.08 302.17 221.86L298.41 211.16L300.55 237C294.55 243.54 271.55 246.59 258.39 237V195.2C258.39 188.52 262.1 180.5 272.39 179.9L285.58 180.25Z" fill="#4A9CBF"/>
<path d="M298.41 211.16L292.73 202.12L299.1 219.4L298.41 211.16Z" fill="#4A9CBF"/>
<path opacity="0.2" d="M298.41 211.16L292.73 202.12L299.1 219.4L298.41 211.16Z" fill="black"/>
<path d="M292.73 157L289.89 168.22C289.594 169.388 288.917 170.425 287.967 171.166C287.016 171.906 285.845 172.309 284.64 172.31H281.31V156.67L292.73 157Z" fill="#263238"/>
<path d="M257.88 152.9C257.88 155.273 258.584 157.593 259.902 159.567C261.221 161.54 263.095 163.078 265.288 163.987C267.481 164.895 269.893 165.132 272.221 164.669C274.549 164.206 276.687 163.063 278.365 161.385C280.044 159.707 281.186 157.569 281.649 155.241C282.112 152.913 281.875 150.5 280.967 148.308C280.058 146.115 278.52 144.241 276.547 142.922C274.573 141.604 272.253 140.9 269.88 140.9C266.697 140.9 263.645 142.164 261.395 144.415C259.144 146.665 257.88 149.717 257.88 152.9Z" fill="#263238"/>
<path d="M288.47 146.07C289.16 145.988 289.859 146.065 290.515 146.295C291.17 146.526 291.764 146.904 292.25 147.4C293.87 149.06 293.54 152.13 292.25 159.19L287.25 159.77L288.47 146.07Z" fill="#263238"/>
<path d="M286.12 159.77C286.86 160.22 287.92 158.77 288.84 157.83C289.76 156.89 292.76 155.55 294.26 158.7C295.76 161.85 293.4 166.16 291.11 167.1C290.298 167.502 289.362 167.573 288.498 167.299C287.635 167.025 286.911 166.427 286.48 165.63L285.58 180.25C284.682 182.22 283.309 183.936 281.585 185.245C279.861 186.553 277.839 187.414 275.7 187.75C268.49 188.75 269.97 182.75 272.34 179.86V175.39C270.532 175.711 268.692 175.809 266.86 175.68C264.22 175.18 262.93 172.74 261.69 169.61C259.84 164.95 258.69 158.34 260.3 149.97C262.42 138.88 274.7 138.64 281.75 143.07C288.8 147.5 286.12 159.77 286.12 159.77Z" fill="#FFA8A7"/>
<path d="M286.12 161C286.49 161 287.92 158.64 288.84 157.8C290.13 156.63 288.47 146.04 288.47 146.04C287.82 137.36 275.02 136.7 271.47 136.45C263.36 135.86 257.84 140.35 260.05 146C261.51 148.57 264.51 149.28 267.32 149.62C272.09 150.2 280.21 147.62 281.23 147.5C282.61 147.31 282.9 148.65 283.65 152.31C284.31 155.56 284.86 161 286.12 161Z" fill="#263238"/>
<path d="M288.46 146.89L293 144.47C292.856 144.167 292.651 143.897 292.4 143.675C292.148 143.453 291.854 143.284 291.536 143.178C291.217 143.073 290.881 143.033 290.546 143.06C290.212 143.088 289.887 143.183 289.59 143.34C288.98 143.671 288.522 144.226 288.311 144.888C288.1 145.549 288.154 146.267 288.46 146.89Z" fill="#263238"/>
<path d="M272.35 175.39C272.35 175.39 279.04 174.05 281.35 172.81C282.724 172.093 283.85 170.977 284.58 169.61C284.226 170.976 283.604 172.257 282.75 173.38C281.04 175.56 272.33 177.17 272.33 177.17L272.35 175.39Z" fill="#F28F8F"/>
<path d="M272.14 159.53C272.14 159.885 272.281 160.226 272.532 160.477C272.784 160.729 273.125 160.87 273.48 160.87C273.835 160.87 274.176 160.729 274.428 160.477C274.679 160.226 274.82 159.885 274.82 159.53C274.824 159.351 274.792 159.173 274.727 159.006C274.661 158.84 274.564 158.688 274.439 158.559C274.314 158.431 274.165 158.329 274.001 158.258C273.836 158.188 273.659 158.151 273.48 158.15C273.301 158.153 273.125 158.19 272.961 158.261C272.797 158.332 272.649 158.434 272.524 158.562C272.4 158.691 272.302 158.842 272.236 159.008C272.17 159.174 272.137 159.351 272.14 159.53Z" fill="#263238"/>
<path d="M273.56 154.48L276.43 156.06C276.633 155.667 276.677 155.21 276.552 154.786C276.427 154.361 276.144 154.001 275.76 153.78C275.571 153.676 275.362 153.611 275.147 153.59C274.932 153.568 274.715 153.591 274.509 153.657C274.304 153.722 274.113 153.829 273.95 153.971C273.787 154.112 273.654 154.285 273.56 154.48Z" fill="#263238"/>
<path d="M273 168.48L269.94 169.63C270.008 169.834 270.117 170.022 270.259 170.183C270.402 170.345 270.575 170.476 270.769 170.569C270.963 170.662 271.173 170.716 271.388 170.726C271.603 170.737 271.818 170.704 272.02 170.63C272.427 170.465 272.755 170.15 272.938 169.75C273.12 169.35 273.142 168.896 273 168.48Z" fill="#F28F8F"/>
<path d="M260.9 155.59L263.51 153.59C263.388 153.413 263.231 153.263 263.049 153.149C262.867 153.034 262.663 152.959 262.45 152.926C262.238 152.893 262.021 152.904 261.813 152.958C261.605 153.012 261.41 153.108 261.24 153.24C260.896 153.516 260.67 153.912 260.607 154.348C260.544 154.784 260.649 155.228 260.9 155.59Z" fill="#263238"/>
<path d="M261.7 158.76C261.696 158.939 261.728 159.117 261.793 159.283C261.859 159.45 261.956 159.602 262.081 159.73C262.206 159.859 262.355 159.961 262.519 160.031C262.684 160.102 262.861 160.139 263.04 160.14C263.317 160.15 263.591 160.077 263.826 159.93C264.062 159.783 264.248 159.569 264.36 159.315C264.473 159.062 264.507 158.78 264.458 158.507C264.41 158.234 264.28 157.982 264.087 157.783C263.894 157.583 263.646 157.447 263.374 157.39C263.102 157.333 262.82 157.359 262.563 157.464C262.307 157.57 262.087 157.749 261.933 157.98C261.779 158.211 261.698 158.483 261.7 158.76Z" fill="#263238"/>
<path d="M267.31 158.99L268.57 166.95L264.16 166.43L267.31 158.99Z" fill="#F28F8F"/>
<path d="M161.74 238.38L105.79 316.69L107.57 318.51L161.74 242.5V238.38Z" fill="#263238"/>
<path d="M198.64 175C193.8 175 191.08 179.18 187.97 186.21C184.86 193.24 169.53 230.21 167.65 231.33C165.77 232.45 163.52 232.52 161.35 234.58C157.94 237.81 155.58 238.07 157.35 239.11C159.12 240.15 161.71 238.38 161.71 238.38C161.71 238.38 157.41 243.61 157.78 244.85C159.29 249.85 170.4 247.08 172.11 244.85C174.89 241.21 175.33 235.78 176.71 234.14C178.09 232.5 197.91 193.25 197.91 193.25L198.64 175Z" fill="#B16668"/>
<path d="M161.74 238.38C164.89 234.95 169.52 234.95 171.69 238.38C171.69 238.38 167.52 234.93 161.74 238.38Z" fill="#9A4A4D"/>
<path d="M172.68 221.56C172.26 222.49 176.03 235.46 176.03 235.46C176.56 235.077 177.001 234.585 177.325 234.018C177.65 233.451 177.849 232.821 177.91 232.17L174.21 218.17C173.276 219.056 172.727 220.273 172.68 221.56Z" fill="#263238"/>
<path d="M171.69 238.38L175.36 233.12L176.03 235.46L172.03 241.04C172.107 240.139 171.991 239.233 171.69 238.38Z" fill="#263238"/>
<path d="M196.07 211.46H221.34C223.141 211.46 224.868 210.745 226.141 209.471C227.415 208.198 228.13 206.471 228.13 204.67V150.9C228.13 145.747 226.083 140.805 222.439 137.161C218.795 133.517 213.853 131.47 208.7 131.47C206.149 131.47 203.623 131.973 201.266 132.949C198.909 133.926 196.768 135.357 194.964 137.161C193.161 138.966 191.731 141.108 190.755 143.465C189.78 145.822 189.279 148.349 189.28 150.9V204.67C189.28 205.562 189.456 206.445 189.797 207.268C190.138 208.092 190.638 208.841 191.269 209.471C191.899 210.102 192.648 210.602 193.472 210.943C194.295 211.284 195.178 211.46 196.07 211.46Z" fill="#263238"/>
<path d="M253 323C254.54 322.22 255.51 324.16 256.9 325.72C257.9 326.82 259.4 328.55 259.62 329.8C259.95 331.65 258.29 334.56 256.44 336.16C254.59 337.76 252.44 338.91 251.79 342.43C251.14 345.95 249.79 348.03 246.11 349.6C242.11 351.32 236.77 350.77 234.96 349.6C232.81 348.21 234.77 346.69 237.78 342.38C241.71 336.76 244.78 332.74 244.78 327.5L253 323Z" fill="#263238"/>
<path d="M249.86 318.42L253.09 323.15C253.776 324.132 254.046 325.344 253.842 326.524C253.638 327.704 252.976 328.756 252 329.45L251.9 329.51C250.917 330.096 249.758 330.317 248.628 330.135C247.498 329.952 246.468 329.376 245.72 328.51L240.72 323.02L249.86 318.42Z" fill="#F28F8F"/>
<path d="M191.86 228.66C191.66 234.66 190.59 256.66 194.99 268.19C197.427 274.74 200.491 281.039 204.14 287C205.45 289.24 243.2 326 243.2 326C243.2 326 249.61 325.53 250.62 319.32C250.62 319.32 235.16 293.02 231.81 287.63C228.46 282.24 216.6 274 216.6 274L217.68 223.45L191.86 228.66Z" fill="#4A9CBF"/>
<path opacity="0.2" d="M191.86 228.66C191.66 234.66 190.59 256.66 194.99 268.19C197.427 274.74 200.491 281.039 204.14 287C205.45 289.24 243.2 326 243.2 326C243.2 326 249.61 325.53 250.62 319.32C250.62 319.32 235.16 293.02 231.81 287.63C228.46 282.24 216.6 274 216.6 274L217.68 223.45L191.86 228.66Z" fill="black"/>
<path d="M198.927 354.551L190.951 352.737L193.594 341.114L201.57 342.927L198.927 354.551Z" fill="#F28F8F"/>
<path d="M205.16 247.06C202.427 244.534 199.982 241.714 197.87 238.65C191.77 230.23 192.71 222.74 192.71 222.74H195.2L228.2 223.42C231.48 228.78 232.2 236.91 231.08 244.84C228.79 261.28 215.17 289.74 215.17 289.74C215.36 291.99 216.31 301.45 214.17 309.83C210.79 323.05 201.57 345.42 201.57 345.42C201.57 345.42 195.79 346.25 192.92 342.9C192.92 342.9 198.03 297.48 199.4 285.84C200.89 273.25 205.16 247.06 205.16 247.06Z" fill="#4A9CBF"/>
<path opacity="0.2" d="M205.16 247.06C202.427 244.534 199.982 241.714 197.87 238.65C191.77 230.23 192.71 222.74 192.71 222.74H195.2L228.2 223.42C231.48 228.78 232.2 236.91 231.08 244.84C228.79 261.28 215.17 289.74 215.17 289.74C215.36 291.99 216.31 301.45 214.17 309.83C210.79 323.05 201.57 345.42 201.57 345.42C201.57 345.42 195.79 346.25 192.92 342.9C192.92 342.9 198.03 297.48 199.4 285.84C200.89 273.25 205.16 247.06 205.16 247.06Z" fill="black"/>
<path d="M226.47 198.65C226.13 198.07 215.89 183.71 226.42 176.31C220.83 179.31 220.54 183.37 220.54 187.36C220.54 191.06 222.07 194.17 226.47 198.65Z" fill="#F28F8F"/>
<path d="M191.84 348.79L192.1 347.65C191.26 347.81 187.68 353.76 184.1 356.34C180.21 359.17 176.83 360.85 175.1 362.12C172.78 363.83 176.1 367.33 181.87 367.64C184.71 367.79 189.87 366.93 191.48 365.41C193.09 363.89 194.23 361.41 195.48 360.31C196.73 359.21 199.31 358.31 200.17 356.87C200.65 356.11 200.72 354.21 200.67 352.58C200.62 350.95 200.57 349.44 200.06 349.46L199.86 350.33C198.358 351.096 196.685 351.465 195 351.4C193.68 351.34 191.17 351 191.84 348.79Z" fill="#263238"/>
<path d="M200.41 278.13C200.41 278.13 204.26 250.8 205.16 247.06C205.16 247.06 198.38 244.48 196.3 242.11C196.3 242.11 197.79 245.42 202.64 248.36L200.41 278.13Z" fill="#4A9CBF"/>
<path opacity="0.4" d="M200.41 278.13C200.41 278.13 204.26 250.8 205.16 247.06C205.16 247.06 198.38 244.48 196.3 242.11C196.3 242.11 197.79 245.42 202.64 248.36L200.41 278.13Z" fill="black"/>
<path d="M220.91 277.33C220.91 277.33 216.82 287.5 215.18 289.74C215.18 289.74 215.59 297.49 215.53 299.06L217.68 300.93C217.68 300.93 217.78 294.42 216.68 290.48" fill="#4A9CBF"/>
<path opacity="0.4" d="M220.91 277.33C220.91 277.33 216.82 287.5 215.18 289.74C215.18 289.74 215.59 297.49 215.53 299.06L217.68 300.93C217.68 300.93 217.78 294.42 216.68 290.48" fill="black"/>
<path d="M193.71 204.2C193.19 208.98 191.86 228.66 191.86 228.66C207.65 237.09 227.24 231.5 230.24 228.03C228.67 222.304 225.609 217.097 221.37 212.94L226.49 198.66C226.49 198.66 227.1 197.2 227.08 197.19C226.74 196.6 219.6 188.56 226.38 175.78L217.17 174.94L203.67 174.55C200.73 174.71 198.67 175 198.67 175C196.78 176.76 193.81 181.6 191.89 186.53C190.62 189.71 189.28 194.78 193.71 204.2Z" fill="#455A64"/>
<path d="M196.21 139.93C194.21 141.15 191.63 146.31 191.88 157.13C192.09 166.3 195.06 168.56 196.55 169.22C198.04 169.88 200.92 169.47 203.72 169.01V174.51C203.72 174.51 199.85 179 200.1 181.51C200.35 184.02 205.68 184.64 209.3 182.17C212.92 179.7 215.97 174.9 215.97 174.9L215.91 162.24C215.91 162.24 217.55 163.84 220.35 161.4C222.65 159.4 223.43 155.99 221.63 154.16C221.165 153.723 220.603 153.404 219.99 153.229C219.377 153.053 218.73 153.027 218.105 153.153C217.48 153.278 216.893 153.551 216.395 153.949C215.897 154.347 215.501 154.858 215.24 155.44C215.24 155.44 210.78 155.6 204.84 152.34C202.528 151.094 200.542 149.322 199.043 147.166C197.543 145.01 196.573 142.531 196.21 139.93Z" fill="#B16668"/>
<path d="M202.12 154.82C202.108 154.974 202.126 155.129 202.175 155.276C202.223 155.422 202.301 155.558 202.402 155.674C202.504 155.791 202.627 155.886 202.766 155.954C202.905 156.022 203.056 156.061 203.21 156.07C203.512 156.062 203.8 155.94 204.017 155.729C204.233 155.518 204.362 155.233 204.377 154.931C204.392 154.629 204.293 154.332 204.099 154.1C203.905 153.868 203.63 153.718 203.33 153.68C203.176 153.675 203.022 153.7 202.877 153.754C202.732 153.809 202.6 153.892 202.487 153.998C202.375 154.104 202.284 154.231 202.221 154.372C202.158 154.513 202.124 154.665 202.12 154.82Z" fill="#263238"/>
<path d="M201.81 162.6L199.13 163.45C199.172 163.633 199.252 163.806 199.364 163.957C199.477 164.109 199.619 164.235 199.782 164.329C199.945 164.423 200.126 164.482 200.313 164.503C200.501 164.524 200.69 164.506 200.87 164.45C201.24 164.329 201.546 164.066 201.722 163.719C201.898 163.372 201.93 162.97 201.81 162.6Z" fill="#9A4A4D"/>
<path d="M192.66 151.28L195 149.66C194.902 149.503 194.773 149.367 194.62 149.262C194.468 149.156 194.296 149.083 194.114 149.046C193.932 149.01 193.745 149.011 193.564 149.049C193.383 149.088 193.211 149.163 193.06 149.27C192.747 149.489 192.53 149.82 192.456 150.195C192.381 150.569 192.454 150.958 192.66 151.28Z" fill="#263238"/>
<path d="M193.2 154C193.193 154.151 193.215 154.302 193.266 154.444C193.318 154.587 193.396 154.717 193.498 154.829C193.6 154.941 193.722 155.032 193.859 155.096C193.996 155.161 194.144 155.198 194.295 155.205C194.446 155.212 194.597 155.19 194.739 155.139C194.882 155.087 195.012 155.009 195.124 154.907C195.236 154.805 195.327 154.683 195.391 154.546C195.456 154.409 195.493 154.261 195.5 154.11C195.507 153.959 195.485 153.808 195.434 153.666C195.382 153.523 195.304 153.393 195.202 153.281C195.1 153.169 194.978 153.078 194.841 153.014C194.704 152.949 194.556 152.912 194.405 152.905C194.254 152.898 194.103 152.92 193.961 152.971C193.818 153.023 193.688 153.101 193.576 153.203C193.464 153.305 193.373 153.427 193.309 153.564C193.244 153.701 193.207 153.849 193.2 154Z" fill="#263238"/>
<path d="M198.64 153.33L198.45 160.27L194.8 159.14L198.64 153.33Z" fill="#9A4A4D"/>
<path d="M203.72 169C206.67 168.61 212.72 166.87 213.72 164.47C213.343 165.683 212.603 166.751 211.6 167.53C209.79 169.08 203.76 170.83 203.76 170.83L203.72 169Z" fill="#9A4A4D"/>
<path d="M224.42 204.42L215.54 215.82L221.36 212.94L224.42 204.42Z" fill="#37474F"/>
<path d="M225 141.23L229.5 138.81C229.356 138.507 229.151 138.237 228.9 138.015C228.648 137.793 228.354 137.624 228.036 137.518C227.717 137.413 227.381 137.373 227.046 137.4C226.712 137.428 226.387 137.523 226.09 137.68C225.487 138.018 225.037 138.576 224.834 139.237C224.631 139.898 224.691 140.612 225 141.23Z" fill="#263238"/>
<path d="M227.08 197.19C227.08 197.19 233.3 212 236.47 222C238.47 228.38 241.3 236.57 240.93 242.18C240.857 243.191 240.412 244.139 239.68 244.84C237.78 246.71 237.2 248.33 235.92 250.44C234.92 252.1 233.87 252.69 234.13 253.09C234.492 253.517 235.002 253.792 235.558 253.861C236.114 253.929 236.675 253.786 237.13 253.46C238.146 252.773 239.076 251.968 239.9 251.06C239.577 253.235 238.901 255.342 237.9 257.3C235.64 261.8 238.81 263.21 242.3 262.85C246.3 262.42 248.4 259.18 249.44 249.85C249.733 246.234 249.69 242.598 249.31 238.99C248.449 231.189 247.113 223.448 245.31 215.81C242.665 204.286 239.138 192.983 234.76 182C232.92 177.6 230.25 176.27 226.38 175.76C219.12 189.05 227.08 197.19 227.08 197.19Z" fill="#B16668"/>
<path d="M239.88 251.05C241.54 250.62 243.18 249.61 243.83 251.31C244.13 252.452 244.161 253.648 243.92 254.804C243.678 255.959 243.172 257.043 242.44 257.97C240.96 259.52 236.8 260.64 235.81 259.77C234.82 258.9 236.91 251.82 239.88 251.05Z" fill="#FFA8A7"/>
<path d="M92.13 341.64C92.62 344.85 93.98 354.24 98.04 358.15C99.36 359.43 110.31 363.29 111.12 363.49C111.12 363.49 108.82 366.78 109.75 367.82C111.27 369.53 114.75 369.08 117.22 364.82C118.56 362.56 115.9 360.65 114.74 359.9C113.28 358.96 109.14 356.1 106.91 354.59C106.295 354.24 105.789 353.727 105.447 353.108C105.105 352.488 104.94 351.787 104.97 351.08L105.18 345.72L92.13 341.64Z" fill="#4A9CBF"/>
<path opacity="0.2" d="M92.13 341.64C92.62 344.85 93.98 354.24 98.04 358.15C99.36 359.43 110.31 363.29 111.12 363.49C111.12 363.49 108.82 366.78 109.75 367.82C111.27 369.53 114.75 369.08 117.22 364.82C118.56 362.56 115.9 360.65 114.74 359.9C113.28 358.96 109.14 356.1 106.91 354.59C106.295 354.24 105.789 353.727 105.447 353.108C105.105 352.488 104.94 351.787 104.97 351.08L105.18 345.72L92.13 341.64Z" fill="black"/>
<path d="M89.79 301.47C88.7441 300.888 87.5873 300.533 86.395 300.428C85.2027 300.323 84.0016 300.47 82.87 300.86C80.7747 301.695 79.0761 303.297 78.12 305.34C77.0226 308.086 76.5281 311.036 76.67 313.99C77.4 317.66 81.5 317.28 84.48 314.99C87.46 312.7 89.79 301.47 89.79 301.47Z" fill="#4A9CBF"/>
<path opacity="0.2" d="M89.79 301.47C88.7441 300.888 87.5873 300.533 86.395 300.428C85.2027 300.323 84.0016 300.47 82.87 300.86C80.7747 301.695 79.0761 303.297 78.12 305.34C77.0226 308.086 76.5281 311.036 76.67 313.99C77.4 317.66 81.5 317.28 84.48 314.99C87.46 312.7 89.79 301.47 89.79 301.47Z" fill="black"/>
<path d="M130.09 343.8C131.4 345.24 134.88 349.39 134.65 351.07C134.242 352.934 133.698 354.766 133.02 356.55C133.02 356.55 130.02 358.04 129.08 358.68C128.14 359.32 128.54 362.01 132.27 362.12C136 362.23 137.84 361.02 138.69 359.07C139.23 357.86 140.69 353.99 141.69 351.22C142.428 349.191 142.522 346.984 141.96 344.9C141.505 342.929 140.778 341.031 139.8 339.26C138.17 337 130.09 343.8 130.09 343.8Z" fill="#4A9CBF"/>
<path opacity="0.2" d="M130.09 343.8C131.4 345.24 134.88 349.39 134.65 351.07C134.242 352.934 133.698 354.766 133.02 356.55C133.02 356.55 130.02 358.04 129.08 358.68C128.14 359.32 128.54 362.01 132.27 362.12C136 362.23 137.84 361.02 138.69 359.07C139.23 357.86 140.69 353.99 141.69 351.22C142.428 349.191 142.522 346.984 141.96 344.9C141.505 342.929 140.778 341.031 139.8 339.26C138.17 337 130.09 343.8 130.09 343.8Z" fill="black"/>
<path d="M156.26 360.18C156.432 360.127 156.596 360.053 156.75 359.96C157.856 359.151 158.608 357.948 158.85 356.6C159.24 354.286 159.287 351.928 158.99 349.6C158.8 346.39 151.09 339.78 150.1 336.73C149.92 320.32 143.18 316.17 137.78 314.23C128.63 310.95 123.78 313.6 119.13 316.23C113.7 319.29 106.69 321.23 104.61 314.84C102.61 308.75 100.56 302.84 92.92 301.59C87.7 300.77 82.61 303.02 80.92 306.59C79.23 310.16 79.49 316.27 78.4 318.74C77.31 321.21 74.6 323.07 75.4 324.99C75.7068 325.71 76.1142 326.384 76.61 326.99C76.61 326.99 76.61 326.99 76.66 326.99C76.6578 327.015 76.6633 327.04 76.6759 327.061C76.6884 327.083 76.7073 327.1 76.73 327.11C76.84 327.25 76.96 327.36 77.07 327.48C77.4842 327.926 77.9549 328.316 78.47 328.64C79.1518 329.09 79.9114 329.408 80.71 329.58C80.9085 329.645 81.1127 329.692 81.32 329.72L82.01 329.81C85.12 330.06 90.48 328.28 90.48 328.28C90.64 328.87 90.75 329.47 90.86 330.04C92.24 336.88 90.77 341.91 94.04 346.23C95.7961 348.72 98.2447 350.64 101.082 351.751C103.919 352.862 107.02 353.115 110 352.48C109.012 355.991 108.214 359.553 107.61 363.15C106.929 366.637 106.514 370.17 106.37 373.72C106.37 373.72 100.12 376.09 101 378.97C101.27 379.85 103.9 380.48 107.75 379.87C111.6 379.26 112.52 376.42 112.75 374.37C113.536 370.364 114.598 366.418 115.93 362.56L116.29 361.62C118.84 355.21 121.71 351.05 127.17 346.84C132 343.11 134.52 341.25 137.63 340.25C138.456 340.972 139.228 341.754 139.94 342.59C140.56 343.17 141.2 343.74 141.87 344.27C142.798 344.985 143.785 345.621 144.82 346.17C145.72 346.65 146.64 347.09 147.5 347.64C148.83 348.49 150.42 348.98 151.57 350.11C152.175 350.695 152.639 351.409 152.928 352.198C153.217 352.988 153.324 353.833 153.24 354.67C153.24 355.34 153.24 356 153.24 356.67C153.161 357.567 153.313 358.468 153.68 359.29C153.932 359.723 154.331 360.051 154.805 360.214C155.278 360.378 155.795 360.365 156.26 360.18Z" fill="#4A9CBF"/>
<path d="M76.67 327L76.79 327.14C76.9 327.28 77.02 327.39 77.13 327.51C77.5449 327.955 78.0155 328.345 78.53 328.67C79.2118 329.12 79.9714 329.438 80.77 329.61C80.9685 329.675 81.1727 329.722 81.38 329.75L82.07 329.84C85.18 330.09 90.54 328.31 90.54 328.31C90.698 328.889 90.8248 329.477 90.92 330.07C92.3 336.91 90.83 341.94 94.1 346.26C95.8555 348.734 98.2958 350.64 101.121 351.745C103.946 352.851 107.032 353.106 110 352.48C111 344.43 101.72 341.88 99 335.26C96.95 330.26 96.87 325.38 95.25 323.75C93.63 322.12 89.61 322.55 86.7 324.61C84.25 326.33 81.42 327.77 79.54 326.56C78.83 326.1 77.23 327.45 76.75 327.01C76.69 327 76.69 327 76.67 327Z" fill="#4A9CBF"/>
<path opacity="0.5" d="M76.67 327L76.79 327.14C76.9 327.28 77.02 327.39 77.13 327.51C77.5449 327.955 78.0155 328.345 78.53 328.67C79.2118 329.12 79.9714 329.438 80.77 329.61C80.9685 329.675 81.1727 329.722 81.38 329.75L82.07 329.84C85.18 330.09 90.54 328.31 90.54 328.31C90.698 328.889 90.8248 329.477 90.92 330.07C92.3 336.91 90.83 341.94 94.1 346.26C95.8555 348.734 98.2958 350.64 101.121 351.745C103.946 352.851 107.032 353.106 110 352.48C111 344.43 101.72 341.88 99 335.26C96.95 330.26 96.87 325.38 95.25 323.75C93.63 322.12 89.61 322.55 86.7 324.61C84.25 326.33 81.42 327.77 79.54 326.56C78.83 326.1 77.23 327.45 76.75 327.01C76.69 327 76.69 327 76.67 327Z" fill="white"/>
<path d="M90.54 328.3C93.89 328.48 105.11 324.59 104.91 315.66C105.522 315.933 106.072 316.325 106.529 316.815C106.986 317.305 107.34 317.881 107.57 318.51C107.57 318.51 106.12 329.21 91.16 331.37C90.7439 330.991 90.4594 330.488 90.3479 329.936C90.2364 329.384 90.3037 328.811 90.54 328.3Z" fill="#263238"/>
<path d="M91.7 304.46C93.096 302.985 94.9774 302.064 96.9983 301.866C99.0192 301.667 101.044 302.205 102.7 303.38C106.5 305.85 106.77 309.49 106.82 311.76C106.88 314.51 105.46 319.38 102.7 319.57C99.94 319.76 97.6 314.57 97.11 312.02C96.3196 308.91 94.3884 306.212 91.7 304.46Z" fill="#4A9CBF"/>
<path opacity="0.2" d="M91.7 304.46C93.096 302.985 94.9774 302.064 96.9983 301.866C99.0192 301.667 101.044 302.205 102.7 303.38C106.5 305.85 106.77 309.49 106.82 311.76C106.88 314.51 105.46 319.38 102.7 319.57C99.94 319.76 97.6 314.57 97.11 312.02C96.3196 308.91 94.3884 306.212 91.7 304.46Z" fill="black"/>
<path d="M143.25 317.23C144.73 313.85 143.72 307 138.75 303.49C133.78 299.98 126.39 300.19 122.99 303.49C119.94 306.49 117.99 311.56 121.24 316.36C124.49 321.16 129.11 319.73 128.83 317.54C128.18 312.54 132.48 308.9 136.13 309.63C139.78 310.36 140.44 315.4 140.44 315.4C141.437 315.912 142.378 316.525 143.25 317.23Z" fill="#4A9CBF"/>
<path opacity="0.2" d="M143.25 317.23C144.73 313.85 143.72 307 138.75 303.49C133.78 299.98 126.39 300.19 122.99 303.49C119.94 306.49 117.99 311.56 121.24 316.36C124.49 321.16 129.11 319.73 128.83 317.54C128.18 312.54 132.48 308.9 136.13 309.63C139.78 310.36 140.44 315.4 140.44 315.4C141.437 315.912 142.378 316.525 143.25 317.23Z" fill="black"/>
<path d="M77.36 327.43C78.0706 327.413 78.7678 327.233 79.3986 326.906C80.0294 326.578 80.5771 326.111 81 325.54C81.1231 325.296 81.1949 325.029 81.2109 324.756C81.2269 324.484 81.1868 324.21 81.0931 323.953C80.9994 323.697 80.8541 323.462 80.6661 323.263C80.478 323.065 80.2514 322.907 80 322.8C78.8258 322.348 77.5539 322.21 76.31 322.4C75.8976 322.599 75.5538 322.917 75.3224 323.312C75.0909 323.708 74.9822 324.163 75.01 324.62C75.17 325 76 327.2 77.36 327.43Z" fill="#263238"/>
<path d="M90.31 315.47C90.2825 315.167 90.1425 314.885 89.9177 314.68C89.6929 314.474 89.3995 314.36 89.095 314.36C88.7905 314.36 88.4971 314.474 88.2723 314.68C88.0475 314.885 87.9075 315.167 87.88 315.47C87.8647 315.639 87.8847 315.809 87.9388 315.97C87.9929 316.13 88.0798 316.278 88.1942 316.403C88.3085 316.528 88.4476 316.628 88.6027 316.697C88.7578 316.765 88.9255 316.8 89.095 316.8C89.2645 316.8 89.4322 316.765 89.5873 316.697C89.7424 316.628 89.8815 316.528 89.9959 316.403C90.1102 316.278 90.1971 316.13 90.2512 315.97C90.3053 315.809 90.3253 315.639 90.31 315.47Z" fill="#263238"/>
<path d="M79.51 315.51C78.9025 315.51 78.41 315.017 78.41 314.41C78.41 313.802 78.9025 313.31 79.51 313.31C80.1175 313.31 80.61 313.802 80.61 314.41C80.61 315.017 80.1175 315.51 79.51 315.51Z" fill="#263238"/>
</svg>
