<svg xmlns="http://www.w3.org/2000/svg" viewBox="0 0 500 500"><g id="Floor-39"><path d="M410.21,266.15c-89.06-49.82-233-49.82-321.47,0s-88,130.58,1,180.4,233,49.82,321.49,0S499.28,316,410.21,266.15Z" style="fill:#4A9CBF"></path><path d="M410.21,266.15c-89.06-49.82-233-49.82-321.47,0s-88,130.58,1,180.4,233,49.82,321.49,0S499.28,316,410.21,266.15Z" style="fill:#fff;opacity:0.3"></path></g><g id="Shadows-39"><path d="M363.24,388.11c-24.76-14.29-64.77-14.29-89.37,0s-24.47,37.47.29,51.77,64.77,14.29,89.37,0S388,402.41,363.24,388.11Z" style="opacity:0.1"></path><path d="M228.19,379.3c-24.75-14.29-64.77-14.29-89.36,0s-24.47,37.47.29,51.77,64.77,14.29,89.37,0S253,393.6,228.19,379.3Z" style="opacity:0.1"></path></g><g id="character-2-39"><path d="M349.45,235.43l-2.28.71-1.43-.4.64,19.83,4.38,2.49a.72.72,0,0,0,.21.12,1,1,0,0,0,1-.42,2.65,2.65,0,0,0,.37-1.13A37.57,37.57,0,0,0,349.45,235.43Z" style="fill:#455a64"></path><path d="M349.45,235.43l-2.28.71-1.43-.4.64,19.83,4.38,2.49a.72.72,0,0,0,.21.12,1,1,0,0,0,1-.42,2.65,2.65,0,0,0,.37-1.13A37.57,37.57,0,0,0,349.45,235.43Z" style="opacity:0.2"></path><path d="M349.45,235.43a37.57,37.57,0,0,1,2.92,21.2,2.65,2.65,0,0,1-.37,1.13.84.84,0,0,1-1.59-.32,3.1,3.1,0,0,1,0-1,35.19,35.19,0,0,0-3.27-20.34Z" style="fill:#455a64"></path><polygon points="334.27 297.66 334.27 297.65 334.26 297.66 334.27 297.66" style="fill:#455a64"></polygon><path d="M347.17,236.14l-16.93-4.72-11.58-.78s-3.7,63.3,0,64.56c3.52,1.2,8.17,3.16,14.49,2.58a5.06,5.06,0,0,0,1.09-.12h0a6.05,6.05,0,0,0,1.13-.39c3.61-1.73,8.25-4.22,10.91-6.72A185.47,185.47,0,0,0,347.17,236.14Z" style="fill:#455a64"></path><path d="M349.62,268.82l-12.88,2.94-5,1.13v12.86a3.76,3.76,0,0,0,1.88,3.25l1.89,1.1a3.71,3.71,0,0,0,2.07.49,3.75,3.75,0,0,0,1.69-.49l7.89-4.56A5.59,5.59,0,0,0,350,281,93.64,93.64,0,0,0,349.62,268.82Z" style="fill:#455a64"></path><path d="M336.74,271.76l-5,1.13v12.86a3.76,3.76,0,0,0,1.88,3.25l1.89,1.1a3.71,3.71,0,0,0,2.07.49C335.48,290.52,336.54,283.14,336.74,271.76Z" style="opacity:0.2"></path><path d="M331.76,272.89l12.18-6.38c3.94-1.84,6.06.63,6.05,2.46s-2,8.61-4.6,11.45c-1.9,2.08-5.88-2.55-7.88-5.19a5.15,5.15,0,0,0-3.34-2Z" style="fill:#455a64"></path><path d="M331.76,272.89l12.18-6.38c3.94-1.84,6.06.63,6.05,2.46s-2,8.61-4.6,11.45c-1.9,2.08-5.88-2.55-7.88-5.19a5.15,5.15,0,0,0-3.34-2Z" style="fill:#fff;opacity:0.30000000000000004"></path><path d="M344.54,275.75c.61-.35,1.1-.07,1.1.63a2.38,2.38,0,0,1-1.09,1.9c-.61.35-1.1.07-1.11-.63A2.42,2.42,0,0,1,344.54,275.75Z" style="fill:#455a64"></path><path d="M328.14,294c-6.89-23.38,2.1-62.6,2.1-62.6l-11.58-.78s-3.7,63.3,0,64.56c3.52,1.2,8.17,3.16,14.49,2.58A5.25,5.25,0,0,1,328.14,294Z" style="opacity:0.2"></path><path d="M340.12,234.48a16.77,16.77,0,0,1,7.6-13.17,6.43,6.43,0,0,1,4-1l0-.05c-9.17-.26-36.59-7.38-45.15-13.86h0c-1.41-1-3.46-1-5.76.31a16.77,16.77,0,0,0-7.6,13.17c0,2.77,1.14,4.59,2.9,5.19h0c1.77.74,41.26,12.89,46.65,14.51h0C341.17,238.91,340.13,237.13,340.12,234.48Z" style="fill:#455a64"></path><path d="M340.12,234.48a16.77,16.77,0,0,1,7.6-13.17,6.43,6.43,0,0,1,4-1l0-.05c-9.17-.26-36.59-7.38-45.15-13.86h0c-1.41-1-3.46-1-5.76.31a16.77,16.77,0,0,0-7.6,13.17c0,2.77,1.14,4.59,2.9,5.19h0c1.77.74,41.26,12.89,46.65,14.51h0C341.17,238.91,340.13,237.13,340.12,234.48Z" style="fill:#fff;opacity:0.30000000000000004"></path><path d="M351.74,220.31a6.43,6.43,0,0,0-4,1,16.77,16.77,0,0,0-7.6,13.17c0,2.65,1.05,4.43,2.68,5.1a5.65,5.65,0,0,0,5-.74,16.75,16.75,0,0,0,7.61-13.17C355.37,222.52,353.91,220.61,351.74,220.31Z" style="fill:#455a64"></path><path d="M351.74,220.31a6.43,6.43,0,0,0-4,1,16.77,16.77,0,0,0-7.6,13.17c0,2.65,1.05,4.43,2.68,5.1a5.65,5.65,0,0,0,5-.74,16.75,16.75,0,0,0,7.61-13.17C355.37,222.52,353.91,220.61,351.74,220.31Z" style="fill:#fff;opacity:0.1"></path><path d="M282.78,210.59c.49,1.14,1.83,1.68,2.47,2.74a2.65,2.65,0,1,1-4.64,2.55,7.54,7.54,0,0,0,0,3,3,3,0,0,0,1.9,2.22,5.34,5.34,0,0,0-1.21,5.63,5.41,5.41,0,0,0,4.6,3.5c-.39,2.77,1.41,5.76,3.7,7.38a12,12,0,0,0,8,1.86,26.33,26.33,0,0,0,8-2.35A29,29,0,0,0,317.78,239c2.63-.26,5.37-1,7.19-2.87s2.25-5.32.3-7.1a4,4,0,0,0,4.14,0,3.52,3.52,0,0,0-.61-6.46,3.06,3.06,0,0,0,1.4-2.77,2.87,2.87,0,0,0-2-2.28,2.5,2.5,0,0,1-.68,2.57,2.33,2.33,0,0,1-2.56.12,3.16,3.16,0,0,1-1.31-2.21,10.7,10.7,0,0,1,.05-2.65,19.55,19.55,0,0,0-.88-9c-1.12-2.84-3.52-5.32-6.53-5.84a15.06,15.06,0,0,0-17.57-10.05c-3,.67-6,2.48-7.2,5.34a16.07,16.07,0,0,0-4-.34,5.28,5.28,0,0,0-3.58,1.33,3.2,3.2,0,0,0-.79,3.57c.4.82,1.25,1.56,1.05,2.45s-1.05,1.14-1.46,1.8a2.3,2.3,0,0,0-.05,2.12,7.25,7.25,0,0,0,1.27,1.8c.45.51.92,1.18.67,1.81S283.12,211.2,282.78,210.59Z" style="fill:#263238"></path><path d="M296.39,234.21h-3.62a11.49,11.49,0,0,0-10.45,6.73l-9.2,20.21c-8.38,2.38-14.17,6.83-21.85,7.4-1.49,0-6.74-2.61-8.81-3.67a.75.75,0,0,0-1.07.49h0a1.91,1.91,0,0,0,.7,2l2.44,1.84c-4.93,1-8.79-1.8-10.5.41s-.5,5.69,4.81,7.53,12.08.88,18.78-.64,21.63-5.94,21.63-5.94C292.22,258,296.39,234.21,296.39,234.21Z" style="fill:#f28f8f"></path><path d="M296.39,234.21h-3.62a11.49,11.49,0,0,0-10.45,6.73l-9.2,20.21c-8.38,2.38-14.17,6.83-21.85,7.4-1.49,0-6.74-2.61-8.81-3.67a.75.75,0,0,0-1.07.49h0a1.91,1.91,0,0,0,.7,2l2.44,1.84c-4.93,1-8.79-1.8-10.5.41s-.5,5.69,4.81,7.53,12.08.88,18.78-.64,21.63-5.94,21.63-5.94C292.22,258,296.39,234.21,296.39,234.21Z" style="opacity:0.30000000000000004"></path><path d="M287.5,275.17c-3.31-15.13-5.18-31.17,5.67-40.92C285.79,233,274.17,245,287.5,275.17Z" style="fill:#4A9CBF"></path><path d="M290.34,397.94a55.3,55.3,0,0,1-1.38,8.85c2.33,6.24,9.63,2.86,9.63,2.86l.16-1,.12-.77c.36-2.24,1.77-6.79,1.77-6.79Z" style="fill:#f28f8f"></path><path d="M290.34,397.94a55.3,55.3,0,0,1-1.38,8.85c2.33,6.24,9.63,2.86,9.63,2.86l.16-1,.12-.77c.36-2.24,1.77-6.79,1.77-6.79Z" style="opacity:0.30000000000000004"></path><path d="M297.75,418c-.94.7-2,1.27-2.92,2-2.6,1.94-4.29,4.41-6.89,6.35a13.38,13.38,0,0,1-9,2.54,16.59,16.59,0,0,1-8.82-3.62,16.49,16.49,0,0,0,.2,2,13.16,13.16,0,0,0,17.46,1.58c2.6-1.93,4.29-4.41,6.89-6.34.94-.7,2-1.27,2.92-2a6.46,6.46,0,0,0,2.16-2.72s-.06-.72-.13-1.82A6.66,6.66,0,0,1,297.75,418Z" style="fill:#f0f0f0"></path><path d="M299.55,408.84a1,1,0,0,0-.68-.94l-.12.77a9.9,9.9,0,0,1-3,0,2.07,2.07,0,0,0-1.77.54l-.28.28c-.15.14-.35.3-.54.22a.37.37,0,0,1-.19-.32,1.23,1.23,0,0,1,.08-.38c.09-.25.18-.57.26-.88a1.42,1.42,0,0,0-.44-1.44,6.47,6.47,0,0,0-3.81-1.54.86.86,0,0,0-.9.71c-.85,4.47-9.11,11.67-11.7,12.09l-.61.11c4.13.5,9.35,2.71,9.77,9.6a13.2,13.2,0,0,0,2.36-1.37c2.6-1.94,4.29-4.41,6.89-6.35.95-.7,2-1.27,2.92-2a6.66,6.66,0,0,0,1.84-2.08A56.83,56.83,0,0,1,299.55,408.84Z" style="fill:#37474f"></path><path d="M275.81,418.1c-3.55.71-5.9,2.45-5.72,7.15a16.59,16.59,0,0,0,8.82,3.62,13.33,13.33,0,0,0,6.67-1.17C285.16,420.81,279.94,418.6,275.81,418.1Z" style="fill:#fff"></path><path d="M338.38,383.1a19.05,19.05,0,0,1,4.87,5.59c4.13,2.54,8.62-4.85,8.62-4.85l-.35-.7c-1.18-2-4-7.07-4-7.07Z" style="fill:#f28f8f"></path><path d="M338.38,383.1a19.05,19.05,0,0,1,4.87,5.59c4.13,2.54,8.62-4.85,8.62-4.85l-.35-.7c-1.18-2-4-7.07-4-7.07Z" style="opacity:0.30000000000000004"></path><path d="M356.45,392c-.36,1.12-.87,2.19-1.24,3.31-1,3.08-.95,6.07-1.95,9.15a13.35,13.35,0,0,1-5.91,7.3,16.49,16.49,0,0,1-9.28,2.14,16.45,16.45,0,0,0,1.29,1.49,13.16,13.16,0,0,0,15.16-8.8c1-3.08,1-6.08,2-9.16.37-1.12.88-2.19,1.24-3.3a6.54,6.54,0,0,0,.19-3.48s-.47-.54-1.15-1.4A6.75,6.75,0,0,1,356.45,392Z" style="fill:#f0f0f0"></path><path d="M352.62,383.52a1,1,0,0,0-1.1-.38l.35.7a9.61,9.61,0,0,1-2.46,1.79,2.07,2.07,0,0,0-1.13,1.47l-.07.38c0,.21-.11.45-.31.49a.36.36,0,0,1-.34-.15,1.05,1.05,0,0,1-.15-.36c-.07-.25-.19-.56-.3-.86a1.42,1.42,0,0,0-1.19-.93,6.65,6.65,0,0,0-4,.95.88.88,0,0,0-.32,1.11c1.89,4.13-.68,14.78-2.56,16.63l-.43.44c3.66-2,9.2-3.21,13.53,2.18a13.3,13.3,0,0,0,1.13-2.49c1-3.08.95-6.07,1.95-9.15.37-1.12.88-2.19,1.24-3.31a6.75,6.75,0,0,0,.31-2.75A59.48,59.48,0,0,1,352.62,383.52Z" style="fill:#37474f"></path><path d="M338.6,404.8c-2.49,2.63-3.4,5.4-.53,9.13a16.49,16.49,0,0,0,9.28-2.14,13.36,13.36,0,0,0,4.78-4.81C347.8,401.59,342.26,402.82,338.6,404.8Z" style="fill:#fff"></path><path d="M323.9,266.51c11.43,24.31,3.34,41.48-5.2,67.86,7.2,5.15,17.54,21,29.7,42.05,0,0-2.82,6.91-10.19,7.26-1.49-1.88-25.29-24.78-25.29-24.78l-11.29,43.62a14.74,14.74,0,0,1-12.14-4s3.64-49.37,5.65-61.47c-5.84-11.11-14.44-30.63-7.79-66.06Z" style="fill:#4A9CBF"></path><path d="M323.9,266.51c11.43,24.31,3.34,41.48-5.2,67.86,7.2,5.15,17.54,21,29.7,42.05,0,0-2.82,6.91-10.19,7.26-1.49-1.88-25.29-24.78-25.29-24.78l-11.29,43.62a14.74,14.74,0,0,1-12.14-4s3.64-49.37,5.65-61.47c-5.84-11.11-14.44-30.63-7.79-66.06Z" style="opacity:0.30000000000000004"></path><path d="M295.74,333.79c2.22-19.28,4.92-32.35,4.92-32.35-7.36-3.75-9.76-7.77-9.76-7.77,1.27,6.49,7,10,7,10C295.77,314.76,295.74,333.79,295.74,333.79Z" style="opacity:0.2"></path><path d="M312.92,358.9a40.55,40.55,0,0,0,.91-9.78l4.87-14.75-3.53,14.89c.38,3.52.74,9.55,0,11.83Z" style="opacity:0.2"></path><path d="M324.48,256.82c-.05-3.22.14-21.32.14-21.32l-10.55-.92a20.07,20.07,0,0,1-16,7.93,5.57,5.57,0,0,1-3.58-.95,4.36,4.36,0,0,1-1-4.67,9.24,9.24,0,0,1,1.51-2.68h-3.07c-3.69,3.28-9.95,14.21-9.95,21.36,0,2.21,1.41,6.25,3.31,7.37a79.3,79.3,0,0,1-.36,20.32c19.69,12.65,44.14-3.83,44.14-3.83A60.48,60.48,0,0,1,324.48,256.82Z" style="fill:#455a64"></path><path d="M324.48,256.82c-.05-3.22.14-21.32.14-21.32l-10.55-.92a20.07,20.07,0,0,1-16,7.93,5.57,5.57,0,0,1-3.58-.95,4.36,4.36,0,0,1-1-4.67,9.24,9.24,0,0,1,1.51-2.68h-3.07c-3.69,3.28-9.95,14.21-9.95,21.36,0,2.21,1.41,6.25,3.31,7.37a79.3,79.3,0,0,1-.36,20.32c19.69,12.65,44.14-3.83,44.14-3.83A60.48,60.48,0,0,1,324.48,256.82Z" style="fill:#fff;opacity:0.2"></path><path d="M294.5,241.56a5.57,5.57,0,0,0,3.58.95,20.07,20.07,0,0,0,16-7.93l-3.55-.31V222.85l-12.35,4.76v6.6H295a9.24,9.24,0,0,0-1.51,2.68A4.36,4.36,0,0,0,294.5,241.56Z" style="fill:#f28f8f"></path><path d="M294.5,241.56a5.57,5.57,0,0,0,3.58.95,20.07,20.07,0,0,0,16-7.93l-3.55-.31V222.85l-12.35,4.76v6.6H295a9.24,9.24,0,0,0-1.51,2.68A4.36,4.36,0,0,0,294.5,241.56Z" style="opacity:0.30000000000000004"></path><path d="M309.65,223.18c-3.7,7.18-6,7.34-11.48,8v-3.55Z" style="opacity:0.2"></path><path d="M287.27,206.58a44.87,44.87,0,0,0-.2,16.42c.36,2,1,4.22,2.57,5.51,2,1.61,4.85,1.37,7.39,1.05a30,30,0,0,0,8.13-1.83,9.92,9.92,0,0,0,5.7-5.76,3.58,3.58,0,0,0,4.33-.7,6.35,6.35,0,0,0,1.6-4.36c0-1.43-.34-3.06-1.57-3.8a3.3,3.3,0,0,0-2.83-.12A7,7,0,0,0,310,214.7a4.92,4.92,0,0,1-1.13,1,1.37,1.37,0,0,1-1.42,0,2.06,2.06,0,0,1-.6-1.66c-.12-2.5-.38-5.09-1.65-7.23s-3.86-3.72-6.27-3.07c-1.1.3-2.1,1-3.24,1.06a5.16,5.16,0,0,1-2.58-.84l0,0A3.76,3.76,0,0,0,287.27,206.58Z" style="fill:#f28f8f"></path><path d="M287.27,206.58a44.87,44.87,0,0,0-.2,16.42c.36,2,1,4.22,2.57,5.51,2,1.61,4.85,1.37,7.39,1.05a30,30,0,0,0,8.13-1.83,9.92,9.92,0,0,0,5.7-5.76,3.58,3.58,0,0,0,4.33-.7,6.35,6.35,0,0,0,1.6-4.36c0-1.43-.34-3.06-1.57-3.8a3.3,3.3,0,0,0-2.83-.12A7,7,0,0,0,310,214.7a4.92,4.92,0,0,1-1.13,1,1.37,1.37,0,0,1-1.42,0,2.06,2.06,0,0,1-.6-1.66c-.12-2.5-.38-5.09-1.65-7.23s-3.86-3.72-6.27-3.07c-1.1.3-2.1,1-3.24,1.06a5.16,5.16,0,0,1-2.58-.84l0,0A3.76,3.76,0,0,0,287.27,206.58Z" style="opacity:0.30000000000000004"></path><polygon points="295.05 213.31 291.77 218.84 295.68 219.57 295.05 213.31" style="fill:#f28f8f"></polygon><polygon points="295.05 213.31 291.77 218.84 295.68 219.57 295.05 213.31" style="opacity:0.1"></polygon><polygon points="295.05 213.31 291.77 218.84 295.68 219.57 295.05 213.31" style="opacity:0.4"></polygon><path d="M299.46,221.48l-3,1.45a2,2,0,0,0,2.26.64A1.76,1.76,0,0,0,299.46,221.48Z" style="fill:#f28f8f"></path><path d="M299.46,221.48l-3,1.45a2,2,0,0,0,2.26.64A1.76,1.76,0,0,0,299.46,221.48Z" style="opacity:0.5"></path><path d="M297.71,223.67a1.8,1.8,0,0,0,1-.1,1.6,1.6,0,0,0,.8-1.57,1.8,1.8,0,0,0-1.83,1.67Z" style="fill:#f28f8f"></path><path d="M297.71,223.67a1.8,1.8,0,0,0,1-.1,1.6,1.6,0,0,0,.8-1.57,1.8,1.8,0,0,0-1.83,1.67Z" style="opacity:0.1"></path><path d="M300.72,213.53a1.11,1.11,0,0,1-1,1.23,1.13,1.13,0,1,1,1-1.23Z" style="fill:#263238"></path><path d="M291.29,214.11a1.13,1.13,0,1,1-2.24.23,1.13,1.13,0,0,1,2.24-.23Z" style="fill:#263238"></path><path d="M289.75,209.77l-2.3,2a1.59,1.59,0,0,1,.3-1.8A1.9,1.9,0,0,1,289.75,209.77Z" style="fill:#263238"></path><path d="M299.32,208.67l2.66,1.46a1.61,1.61,0,0,0-.66-1.7A1.9,1.9,0,0,0,299.32,208.67Z" style="fill:#263238"></path><path d="M320.1,235.15c-1.13,11.19,2.76,16.69,13,36.14,0,0-2.37,14.32-6.59,22.39-4.19,1.7-6.29,4.6-8.7,5.83a.79.79,0,0,0-.33,1.11c1,1.55,3.56.36,5.91-1-3,4.87-3.86,5.68-5.37,7.2s-.48,4,3.65,4,6.45-3.22,7.21-4.32,5.93-11.43,5.93-11.43l9.31-18.72a10,10,0,0,0,.26-8.42l-10.66-25.06a12.65,12.65,0,0,0-11.64-7.7Z" style="fill:#f28f8f"></path><path d="M320.1,235.15c-1.13,11.19,2.76,16.69,13,36.14,0,0-2.37,14.32-6.59,22.39-4.19,1.7-6.29,4.6-8.7,5.83a.79.79,0,0,0-.33,1.11c1,1.55,3.56.36,5.91-1-3,4.87-3.86,5.68-5.37,7.2s-.48,4,3.65,4,6.45-3.22,7.21-4.32,5.93-11.43,5.93-11.43l9.31-18.72a10,10,0,0,0,.26-8.42l-10.66-25.06a12.65,12.65,0,0,0-11.64-7.7Z" style="opacity:0.30000000000000004"></path><path d="M330.19,283.6c-15.07-10.49-22.69-37.55-15.43-49.37,0,0,3.38-.4,5.61.83-7.93,15.27,2.27,35.05,9.43,43.86Z" style="fill:#4A9CBF"></path></g><g id="character-1-39"><path d="M226.37,228.63l-2.43.75-1.51-.42.68,21,4.65,2.64a.71.71,0,0,0,.22.13,1,1,0,0,0,1.1-.44,2.79,2.79,0,0,0,.39-1.2A39.84,39.84,0,0,0,226.37,228.63Z" style="fill:#455a64"></path><path d="M226.37,228.63l-2.43.75-1.51-.42.68,21,4.65,2.64a.71.71,0,0,0,.22.13,1,1,0,0,0,1.1-.44,2.79,2.79,0,0,0,.39-1.2A39.84,39.84,0,0,0,226.37,228.63Z" style="opacity:0.1"></path><path d="M226.37,228.63a39.84,39.84,0,0,1,3.1,22.51,2.79,2.79,0,0,1-.39,1.2,1,1,0,0,1-1.1.44,1,1,0,0,1-.59-.78,3.18,3.18,0,0,1,0-1,37.23,37.23,0,0,0-3.48-21.6Z" style="fill:#455a64"></path><path d="M226.37,228.63a39.84,39.84,0,0,1,3.1,22.51,2.79,2.79,0,0,1-.39,1.2,1,1,0,0,1-1.1.44,1,1,0,0,1-.59-.78,3.18,3.18,0,0,1,0-1,37.23,37.23,0,0,0-3.48-21.6Z" style="fill:#fff;opacity:0.4"></path><polygon points="210.25 294.7 210.25 294.7 210.24 294.7 210.25 294.7" style="fill:#455a64"></polygon><path d="M223.94,229.38l-18-5-12.29-.83s-3.93,67.21,0,68.55c3.73,1.27,8.67,3.35,15.38,2.74a5.65,5.65,0,0,0,1.16-.13h0a5.45,5.45,0,0,0,1.19-.42c3.84-1.83,8.76-4.47,11.58-7.13A196.26,196.26,0,0,0,223.94,229.38Z" style="fill:#455a64"></path><path d="M223.94,229.38l-18-5-12.29-.83s-3.93,67.21,0,68.55c3.73,1.27,8.67,3.35,15.38,2.74a5.65,5.65,0,0,0,1.16-.13h0a5.45,5.45,0,0,0,1.19-.42c3.84-1.83,8.76-4.47,11.58-7.13A196.26,196.26,0,0,0,223.94,229.38Z" style="fill:#fff;opacity:0.4"></path><path d="M226.55,264.08l-13.68,3.12-5.28,1.2v13.65a4,4,0,0,0,2,3.46l2,1.16a4,4,0,0,0,2.19.52,4,4,0,0,0,1.8-.52l8.37-4.83a6,6,0,0,0,3-4.83A100.69,100.69,0,0,0,226.55,264.08Z" style="fill:#455a64"></path><path d="M212.87,267.2l-5.28,1.2v13.65a4,4,0,0,0,2,3.46l2,1.16a4,4,0,0,0,2.19.52C211.53,287.12,212.66,279.28,212.87,267.2Z" style="opacity:0.2"></path><path d="M207.59,268.4l12.93-6.77c4.18-1.95,6.43.67,6.42,2.61s-2.13,9.14-4.88,12.15c-2,2.21-6.24-2.71-8.36-5.5a5.47,5.47,0,0,0-3.56-2.1Z" style="fill:#455a64"></path><path d="M207.59,268.4l12.93-6.77c4.18-1.95,6.43.67,6.42,2.61s-2.13,9.14-4.88,12.15c-2,2.21-6.24-2.71-8.36-5.5a5.47,5.47,0,0,0-3.56-2.1Z" style="fill:#fff;opacity:0.30000000000000004"></path><path d="M221.16,271.44c.64-.37,1.17-.07,1.17.67a2.58,2.58,0,0,1-1.17,2c-.64.37-1.17.07-1.17-.67A2.57,2.57,0,0,1,221.16,271.44Z" style="fill:#455a64"></path><path d="M203.75,290.83C196.43,266,206,224.37,206,224.37l-12.29-.83s-3.93,67.21,0,68.55c3.73,1.27,8.67,3.35,15.38,2.74A5.56,5.56,0,0,1,203.75,290.83Z" style="opacity:0.2"></path><path d="M216.47,227.62c0-5.14,3.59-11.4,8.07-14a6.74,6.74,0,0,1,4.26-1.06l0-.06c-9.74-.27-38.85-7.84-47.93-14.72h0c-1.49-1.1-3.67-1.08-6.11.33-4.47,2.58-8.08,8.84-8.07,14,0,2.94,1.21,4.88,3.07,5.51h0c1.88.79,43.81,13.69,49.53,15.41h0C217.58,232.33,216.47,230.44,216.47,227.62Z" style="fill:#455a64"></path><path d="M228.8,212.58a6.74,6.74,0,0,0-4.26,1.06c-4.48,2.58-8.09,8.84-8.07,14,0,2.82,1.11,4.71,2.84,5.42,1.42.58,3.26.37,5.28-.79,4.47-2.58,8.09-8.84,8.07-14C232.65,214.93,231.11,212.89,228.8,212.58Z" style="fill:#37474f"></path><path d="M184.31,350c5.79,6.68,25.76,23.85,25.75,26.28,6.86.84,8.61-4.41,8.61-4.41l-4-6.31a100.4,100.4,0,0,1-6.32-11.51l-.15-.3a100.68,100.68,0,0,0-9.83-16.66h0Z" style="fill:#ffa8a7"></path><path d="M222.34,379c-.42,1.1-1,2.13-1.41,3.23-1.16,3-1.26,6-2.42,9.05a13.34,13.34,0,0,1-6.27,7,16.56,16.56,0,0,1-9.39,1.66,16.74,16.74,0,0,0,1.22,1.55,13.16,13.16,0,0,0,15.59-8c1.17-3,1.27-6,2.43-9,.42-1.1,1-2.14,1.41-3.24a6.5,6.5,0,0,0,.37-3.46s-.44-.56-1.08-1.46A6.75,6.75,0,0,1,222.34,379Z" style="fill:#f0f0f0"></path><path d="M219,370.34c-.33-.63-1.48-.35-1.48-.35l.51.81a8.67,8.67,0,0,1-2.34,1.48,2.05,2.05,0,0,0-1.2,1.41l-.09.38c0,.2-.14.44-.34.47a.35.35,0,0,1-.33-.17,1.2,1.2,0,0,1-.13-.36c-.06-.26-.16-.57-.26-.88a1.42,1.42,0,0,0-1.14-1,6.49,6.49,0,0,0-4.05.75.85.85,0,0,0-.37,1.08c1.67,4.22-1.45,14.73-3.42,16.48-.16.13-.3.27-.45.41,3.75-1.79,9.35-2.72,13.39,2.88a12.94,12.94,0,0,0,1.26-2.42c1.16-3,1.26-6,2.42-9.05.43-1.1,1-2.13,1.41-3.23a6.75,6.75,0,0,0,.45-2.74A58.23,58.23,0,0,1,219,370.34Z" style="fill:#37474f"></path><path d="M203.86,390.86c-2.62,2.5-3.68,5.23-1,9.1a16.56,16.56,0,0,0,9.39-1.66,13.39,13.39,0,0,0,5-4.56C213.21,388.14,207.61,389.07,203.86,390.86Z" style="fill:#fff"></path><path d="M161.74,350.65l-4.23,50.15c2.75,1.91,8.85.82,8.85.82,2.54-15.77,12.2-26.21,14.85-48.33Z" style="fill:#ffa8a7"></path><path d="M165.23,409.48c-1,.67-2,1.2-3,1.86-2.68,1.82-4.47,4.23-7.15,6.05a13.3,13.3,0,0,1-9.13,2.16,16.48,16.48,0,0,1-8.66-4,17.71,17.71,0,0,0,.11,2,13.15,13.15,0,0,0,17.38,2.3c2.68-1.82,4.47-4.22,7.15-6,1-.66,2-1.19,3-1.85a6.58,6.58,0,0,0,2.28-2.63s0-.72-.06-1.82A6.63,6.63,0,0,1,165.23,409.48Z" style="fill:#f0f0f0"></path><path d="M167.4,400.4a1,1,0,0,0-.64-1l-.15.76a9.72,9.72,0,0,1-3-.08,2,2,0,0,0-1.79.47l-.29.26c-.15.14-.36.29-.55.2a.36.36,0,0,1-.17-.33,1,1,0,0,1,.1-.37c.1-.25.19-.56.29-.87a1.42,1.42,0,0,0-.38-1.46,6.51,6.51,0,0,0-3.75-1.7.87.87,0,0,0-.93.68c-1,4.42-9.58,11.28-12.19,11.59l-.61.09c4.11.67,9.23,3.09,9.36,10a13,13,0,0,0,2.42-1.27c2.68-1.82,4.47-4.23,7.15-6.05,1-.66,2-1.19,3-1.86a6.63,6.63,0,0,0,1.92-2A60.34,60.34,0,0,1,167.4,400.4Z" style="fill:#37474f"></path><path d="M143.3,408.67c-3.58.56-6,2.19-6,6.9a16.48,16.48,0,0,0,8.66,4,13.17,13.17,0,0,0,6.71-.89C152.53,411.76,147.41,409.34,143.3,408.67Z" style="fill:#fff"></path><path d="M157.15,284.19c-1,19.83,2.08,37.6,5.79,43.88a99.78,99.78,0,0,0-2.68,23.49c9.73,6.35,22.86,3.32,22.86,3.32l.56-4.23c9-2.33,14.56-11.61,15.38-14l-7.41-10.44s5.57-17,6.14-20.8l-.18-1.14c2.15-7.9,2.57-16,1.55-20.32Z" style="fill:#455a64"></path><path d="M164.17,323c2.65-10.69,6.83-23.6,6.83-23.6-3.49-1.38-7.25-5.29-7.57-6.56,0,3.65,2.89,7,4.13,7.94A207.51,207.51,0,0,0,164.17,323Z" style="opacity:0.2"></path><path d="M183.68,350.65l6.79-22.54-1.42-.48C186.71,331.76,184.24,345.73,183.68,350.65Z" style="opacity:0.2"></path><path d="M182.51,303.64a.85.85,0,0,0-.92.61c-1,3.42-5,17.88-6.31,22.59a1.69,1.69,0,0,0,1.08,2.06,30.63,30.63,0,0,0,12.5,1,2,2,0,0,0,.78-.27l.18-.12a1.89,1.89,0,0,0,.79-.91l1-2.41s5.57-17,6.14-20.8l-.18-1.14C194.28,304.71,185.17,304,182.51,303.64Z" style="fill:#37474f"></path><path d="M171.88,221.92l-2.31-1.29a11.85,11.85,0,0,0-13.86,1.67l-19.28,17.93s-7.31-13.3-8.65-17.67c-.42-1.39.39-2.88.79-4.27A8.94,8.94,0,0,0,129,214a11.18,11.18,0,0,1,.43-5.58,1,1,0,0,0-1-1.29l-.21,0a2.25,2.25,0,0,0-1.41.57,3.07,3.07,0,0,0-.71,1.36,19.91,19.91,0,0,0-.83,3.9,18.57,18.57,0,0,1-1.57-8,11.52,11.52,0,0,0,0-3.16,2.75,2.75,0,0,0-2-2.2,7.57,7.57,0,0,0-1.14,2.5,2.42,2.42,0,0,0-1.94,0,2.13,2.13,0,0,0-1,1.54,4.64,4.64,0,0,0-3.52,2.9,9.73,9.73,0,0,0-.58,4.58,26.08,26.08,0,0,0,5.23,14.07c2.5,9.49,4.72,20.17,8.27,28.48a7.08,7.08,0,0,0,10.44,3.06,303.45,303.45,0,0,0,25-18.62Z" style="fill:#ffa8a7"></path><path d="M171.88,221.92l-2.31-1.29a11.85,11.85,0,0,0-13.86,1.67l-15.19,14.12c1.51,7.72,8.78,13.09,8.78,13.09l13.12-11.36Z" style="fill:#e0e0e0"></path><path d="M138.37,249.12a19.35,19.35,0,0,0-1.94-8.89l1-.94C138.37,240.49,140.19,243.71,138.37,249.12Z" style="opacity:0.2"></path><path d="M123.48,222.85a5.86,5.86,0,0,1,.17-8.1,4.43,4.43,0,0,0-2.73,3.82A5,5,0,0,0,123.48,222.85Z" style="opacity:0.2"></path><path d="M171.57,219.12l-3.93.42a9.72,9.72,0,0,0-7.13,4.36c-4,6.24-5.92,15.78-4.83,26.12,1.35,12.87.52,35.16.52,35.16,17.07,12.47,40.25,1.44,43-1.27l-2.48-22.44a10.92,10.92,0,0,1,.87-5.2c1.61-3.74,4.49-11.11,4.87-16.82a29.77,29.77,0,0,0-3.11-14.7l-15-5.63Z" style="fill:#f0f0f0"></path><path d="M197.55,256.27a67,67,0,0,0,4.63-14.71c-1.58.95-3.26,1.9-3.92,3.48a27.82,27.82,0,0,0-1.58,16.1A11,11,0,0,1,197.55,256.27Z" style="opacity:0.1"></path><path d="M201.06,258.13,205,272.59l-15.33,12.85a5.83,5.83,0,0,1-3.9,1.35,18.67,18.67,0,0,0-4.68.27c-1.2.27-2.37.66-3.57.94a10.64,10.64,0,0,1-2.57.32,1,1,0,0,0-1,1.45,2.29,2.29,0,0,0,.52.7,4.24,4.24,0,0,0,2.23.87,10,10,0,0,0,3.82-.2,9.82,9.82,0,0,1-4.71,2.93c-1.73.58-3.53.9-5.24,1.51a3.38,3.38,0,0,0-1.69,1.07,1.31,1.31,0,0,0,.21,1.8c.74.46,1.74-.21,2.55.1a3.19,3.19,0,0,0,0,1.41,2,2,0,0,0,.85,1.14,1.43,1.43,0,0,0,1.4,0,5,5,0,0,0,3.24,2.19,9.88,9.88,0,0,0,4,0c5.46-1,8.92-5.77,13.2-9.3.59-.49,15.69-8.91,23.42-13.2a6.63,6.63,0,0,0,3.19-7.44L216,254.18Z" style="fill:#ffa8a7"></path><path d="M214.43,272.27c-1.66-.77-7-1.41-9.42.32l-.4-1.48A8.67,8.67,0,0,1,214.43,272.27Z" style="opacity:0.2"></path><path d="M199.16,224.69l2.17.61a14.18,14.18,0,0,1,9.53,9.07l6.92,20.37c-6.24,6.56-17.46,4.55-17.46,4.55l-2.22-10.37C190.27,235.27,197.46,226.91,199.16,224.69Z" style="fill:#e0e0e0"></path><path d="M198.51,278c-13.49-14.46-15.39-44.69-5.08-55.5,0,0,3.65.35,5.73,2.15-11.81,14.28-5.55,37.42,0,48.32Z" style="fill:#263238"></path><path d="M156.33,260.94c-.06-16.69,1.6-34,15.24-41.82C164.07,216.18,149.11,226.19,156.33,260.94Z" style="fill:#263238"></path><path d="M186.32,170.81c-6.58-3.45-13.47-3.25-15.41.44l-3,5.15,6.43,4.24a22.25,22.25,0,0,0,5,3.54q.72.38,1.44.69l11,7.27,2.92-8.4C196.65,180.05,192.89,174.26,186.32,170.81Z" style="fill:#4A9CBF"></path><path d="M186.32,170.81c-6.58-3.45-13.47-3.25-15.41.44l-3,5.15,6.43,4.24a22.25,22.25,0,0,0,5,3.54q.72.38,1.44.69l11,7.27,2.92-8.4C196.65,180.05,192.89,174.26,186.32,170.81Z" style="fill:#455a64"></path><ellipse cx="177.3" cy="188.86" rx="14.5" ry="25.81" transform="translate(-72.32 258.09) rotate(-62.31)" style="fill:#37474f"></ellipse><path d="M184.4,209.2v10.22a4.76,4.76,0,0,1-1.56,3.56,13.62,13.62,0,0,1-9.83,3.38,3.41,3.41,0,0,1-2-.62,2.64,2.64,0,0,1-.65-2.78,5.22,5.22,0,0,1,.64-1.35,5.35,5.35,0,0,0,.91-2.91v-9.5Z" style="fill:#ffa8a7"></path><path d="M183.66,209.27l-11.78-.07v8.69a19.18,19.18,0,0,0,7.44-2.73A11.49,11.49,0,0,0,183.66,209.27Z" style="fill:#ff9192"></path><path d="M160.86,191.92a7.27,7.27,0,0,1-4.65-1.51,7.47,7.47,0,0,1-1.85-2.15,1,1,0,0,1,1.07-1.42,7.89,7.89,0,0,0,2.74,0,13,13,0,0,1-2.55-9.68,1.23,1.23,0,0,1,1.74-.92,23.89,23.89,0,0,0,12.16,2.46c2.24-.16,4.44-.63,6.67-.8a12.32,12.32,0,0,1,6.56,1,6.23,6.23,0,0,1,3.59,5.28,3.06,3.06,0,0,1,2.21-1.28,3.37,3.37,0,0,1,2.59.76c-1.29.71-2.55,1.43-3.85,2.14,1.33-.48,3,.56,3.65,1.8a8.81,8.81,0,0,1,.71,4.11,31.75,31.75,0,0,1-.25,5.6,10.78,10.78,0,0,1-2.12,5.11,8.09,8.09,0,0,1-3.84,2.61,10.51,10.51,0,0,1-6.25-.2,24.77,24.77,0,0,1-5.66-2.83A88.64,88.64,0,0,1,160.86,191.92Z" style="fill:#263238"></path><path d="M160.57,188.19a43,43,0,0,0,2.47,23c.67,1.68,1.54,3.42,3.12,4.32s3.69.75,5.57.46a28.23,28.23,0,0,0,8.8-2.47,12,12,0,0,0,6.08-6.56,5.28,5.28,0,0,0,5.34-2.09,10,10,0,0,0,1.72-5.83c0-1.31-.24-2.87-1.42-3.45s-2.42.07-3.38.84a10,10,0,0,0-3.28,4.93c-.87-3.21-2.23-6.31-3.1-9.52a5.39,5.39,0,0,0-1.87-3.34c-1.35-.86-3.1-.37-4.65,0A30.66,30.66,0,0,1,160.57,188.19Z" style="fill:#ffa8a7"></path><polygon points="169.93 197.94 166.18 204.26 170.65 205.1 169.93 197.94" style="fill:#f28f8f"></polygon><path d="M175,207.27l-3.4,1.66a2.21,2.21,0,0,0,2.57.73A2,2,0,0,0,175,207.27Z" style="fill:#f28f8f"></path><path d="M175,207.27l-3.4,1.66a2.21,2.21,0,0,0,2.57.73A2,2,0,0,0,175,207.27Z" style="opacity:0.30000000000000004"></path><path d="M173,209.77a2,2,0,0,0,1.18-.11,1.79,1.79,0,0,0,.91-1.79,2.07,2.07,0,0,0-2.09,1.9Z" style="fill:#f28f8f"></path><path d="M176.41,198.19a1.28,1.28,0,0,1-1.15,1.41A1.29,1.29,0,0,1,175,197,1.28,1.28,0,0,1,176.41,198.19Z" style="fill:#263238"></path><path d="M165.63,198.86a1.29,1.29,0,1,1-1.41-1.15A1.29,1.29,0,0,1,165.63,198.86Z" style="fill:#263238"></path><path d="M163.88,193.89l-2.64,2.25a1.82,1.82,0,0,1,.35-2.06A2.19,2.19,0,0,1,163.88,193.89Z" style="fill:#263238"></path><path d="M174.81,192.64l3,1.67a1.81,1.81,0,0,0-.75-1.95A2.16,2.16,0,0,0,174.81,192.64Z" style="fill:#263238"></path></g></svg>