<svg xmlns="http://www.w3.org/2000/svg" viewBox="0 0 500 500"><g id="Floor-34"><path d="M416.38,252.49c-91-51.93-238-51.93-328.46,0S-2,388.62,89,440.55s238.06,51.93,328.47,0S507.38,304.42,416.38,252.49Z" style="fill:#f5f5f5"></path></g><g id="Characters-34"><path d="M381.18,310.16c1.76,1.61,2.24,4.17,2.62,6.53l1.17,7.39c.29,1.83.52,3.92-.68,5.34a4.2,4.2,0,0,1-4.51,1,8.72,8.72,0,0,1-3.81-3,20,20,0,0,1-4.08-14.8C372.53,308,377.87,307.13,381.18,310.16Z" style="fill:#455a64"></path><path d="M235.86,276.1c2.15,10,12.42,14.63,27,7.86.46-.31.93-.61,1.42-.89h0a17,17,0,0,1,20.57-2.71l43.23,25A19.72,19.72,0,0,0,341,307.73l3.35-.52,10.42-2.08a25.7,25.7,0,0,1,26.12,10.53l3.77,5.43a22.06,22.06,0,0,1,3.36,10.72h0a26.55,26.55,0,0,0,2.18,9.61l5.39,11.32a3.73,3.73,0,0,1-1.55,4.87l-2.4,1.35a12.86,12.86,0,0,1-15.21-2l-9.15-8.86a12.5,12.5,0,0,0-5.5-3.11c.09,1.17.15,2.35.15,3.55l12.31,25.21a5.93,5.93,0,0,1-3.62,8.29L357.47,386a9.88,9.88,0,0,1-9.39-2.05l-3.87-3.42a4,4,0,0,1,.86-6.51l1.57-.77a5.92,5.92,0,0,1,6.48.8l3,2.53,5.44-3.09-11.38-13.22s-9.39,4-17.8,3.16l-4.41,15,6.37,24.7a4.8,4.8,0,0,0,2.33,3l5.67,3.13a3.87,3.87,0,0,1,1.86,2.12,3.83,3.83,0,0,1-1.68,4.58l-7.18,4.18a3.83,3.83,0,0,1-3.91,0l-2.7-1.65a14.4,14.4,0,0,1-6.5-8.89l-6-24.74a33.41,33.41,0,0,1-1-8V360.59a79.58,79.58,0,0,1-20.65-13l1.2,6.4a3.85,3.85,0,0,0,1.84,2.61l3.76,2.19a3.31,3.31,0,0,1,1.39,1.52,3.26,3.26,0,0,1-1.35,4.09l-5,3a3.25,3.25,0,0,1-3.22,0l-4.8-2.77a9.9,9.9,0,0,1-4.72-6.45l-4.24-19.32a16,16,0,0,1,.28-7.87c-4.62,6.59-11.74,11.55-25.63,10.37v14a3.85,3.85,0,0,0,1.84,3.27l4.91,3a3.46,3.46,0,0,1,1.4,1.58,3.34,3.34,0,0,1-1.41,4.2l-6,3.45a3.32,3.32,0,0,1-3.45-.07l-5.79-3.67a9,9,0,0,1-4.2-7.63V340.05a11.86,11.86,0,0,1,3.16-8.06l9.37-10.11-2-13A25.31,25.31,0,0,1,255,292.28C241.08,299.28,231.41,295.41,235.86,276.1Z" style="fill:#4A9CBF"></path><path d="M235.86,276.1c2.15,10,12.42,14.63,27,7.86.46-.31.93-.61,1.42-.89h0a17,17,0,0,1,20.57-2.71l43.23,25A19.72,19.72,0,0,0,341,307.73l3.35-.52,10.42-2.08a25.7,25.7,0,0,1,26.12,10.53l3.77,5.43a22.06,22.06,0,0,1,3.36,10.72h0a26.55,26.55,0,0,0,2.18,9.61l5.39,11.32a3.73,3.73,0,0,1-1.55,4.87l-2.4,1.35a12.86,12.86,0,0,1-15.21-2l-9.15-8.86a12.5,12.5,0,0,0-5.5-3.11c.09,1.17.15,2.35.15,3.55l12.31,25.21a5.93,5.93,0,0,1-3.62,8.29L357.47,386a9.88,9.88,0,0,1-9.39-2.05l-3.87-3.42a4,4,0,0,1,.86-6.51l1.57-.77a5.92,5.92,0,0,1,6.48.8l3,2.53,5.44-3.09-11.38-13.22s-9.39,4-17.8,3.16l-4.41,15,6.37,24.7a4.8,4.8,0,0,0,2.33,3l5.67,3.13a3.87,3.87,0,0,1,1.86,2.12,3.83,3.83,0,0,1-1.68,4.58l-7.18,4.18a3.83,3.83,0,0,1-3.91,0l-2.7-1.65a14.4,14.4,0,0,1-6.5-8.89l-6-24.74a33.41,33.41,0,0,1-1-8V360.59a79.58,79.58,0,0,1-20.65-13l1.2,6.4a3.85,3.85,0,0,0,1.84,2.61l3.76,2.19a3.31,3.31,0,0,1,1.39,1.52,3.26,3.26,0,0,1-1.35,4.09l-5,3a3.25,3.25,0,0,1-3.22,0l-4.8-2.77a9.9,9.9,0,0,1-4.72-6.45l-4.24-19.32a16,16,0,0,1,.28-7.87c-4.62,6.59-11.74,11.55-25.63,10.37v14a3.85,3.85,0,0,0,1.84,3.27l4.91,3a3.46,3.46,0,0,1,1.4,1.58,3.34,3.34,0,0,1-1.41,4.2l-6,3.45a3.32,3.32,0,0,1-3.45-.07l-5.79-3.67a9,9,0,0,1-4.2-7.63V340.05a11.86,11.86,0,0,1,3.16-8.06l9.37-10.11-2-13A25.31,25.31,0,0,1,255,292.28C241.08,299.28,231.41,295.41,235.86,276.1Z" style="opacity:0.15"></path><path d="M235.86,276.1c2.15,10,12.42,14.63,27,7.86.46-.31.93-.61,1.42-.89h0a17,17,0,0,1,20.57-2.71l43.23,25A19.72,19.72,0,0,0,341,307.73l3.35-.52,10.42-2.08a25.7,25.7,0,0,1,26.12,10.53l3.77,5.43a22.06,22.06,0,0,1,3.36,10.72h0a26.55,26.55,0,0,0,2.18,9.61l5.39,11.32a3.73,3.73,0,0,1-1.55,4.87l-2.4,1.35a12.86,12.86,0,0,1-15.21-2l-9.15-8.86a12.5,12.5,0,0,0-5.5-3.11c.09,1.17.15,2.35.15,3.55l12.31,25.21a5.93,5.93,0,0,1-3.62,8.29L357.47,386a9.88,9.88,0,0,1-9.39-2.05l-3.87-3.42a4,4,0,0,1,.86-6.51l1.57-.77a5.92,5.92,0,0,1,6.48.8l3,2.53,5.44-3.09-11.38-13.22s-9.39,4-17.8,3.16l-4.41,15,6.37,24.7a4.8,4.8,0,0,0,2.33,3l5.67,3.13a3.87,3.87,0,0,1,1.86,2.12,3.83,3.83,0,0,1-1.68,4.58l-7.18,4.18a3.83,3.83,0,0,1-3.91,0l-2.7-1.65a14.4,14.4,0,0,1-6.5-8.89l-6-24.74a33.41,33.41,0,0,1-1-8V360.59a79.58,79.58,0,0,1-20.65-13l1.2,6.4a3.85,3.85,0,0,0,1.84,2.61l3.76,2.19a3.31,3.31,0,0,1,1.39,1.52,3.26,3.26,0,0,1-1.35,4.09l-5,3a3.25,3.25,0,0,1-3.22,0l-4.8-2.77a9.9,9.9,0,0,1-4.72-6.45l-4.24-19.32a16,16,0,0,1,.28-7.87c-4.62,6.59-11.74,11.55-25.63,10.37v14a3.85,3.85,0,0,0,1.84,3.27l4.91,3a3.46,3.46,0,0,1,1.4,1.58,3.34,3.34,0,0,1-1.41,4.2l-6,3.45a3.32,3.32,0,0,1-3.45-.07l-5.79-3.67a9,9,0,0,1-4.2-7.63V340.05a11.86,11.86,0,0,1,3.16-8.06l9.37-10.11-2-13A25.31,25.31,0,0,1,255,292.28C241.08,299.28,231.41,295.41,235.86,276.1Z" style="fill:#fff;opacity:0.1"></path><polygon points="290.34 365.75 290.33 365.74 291.09 366.18 290.34 365.75" style="fill:none"></polygon><path d="M345.07,374l1.57-.77a5.92,5.92,0,0,1,6.48.8l3,2.53-4.53,2.57a3.68,3.68,0,0,1-3.81-.11l-.1-.06-3.14-2.18a1.87,1.87,0,0,1-.8-1.54v-.11A3.82,3.82,0,0,1,345.07,374Z" style="fill:#4A9CBF"></path><path d="M345.07,374l1.57-.77a5.92,5.92,0,0,1,6.48.8l3,2.53-4.53,2.57a3.68,3.68,0,0,1-3.81-.11l-.1-.06-3.14-2.18a1.87,1.87,0,0,1-.8-1.54v-.11A3.82,3.82,0,0,1,345.07,374Z" style="opacity:0.2"></path><path d="M344.5,376.79l3.14,2.18.1.06v3a3.4,3.4,0,0,0,1.25,2.63c-.31-.22-.62-.45-.91-.7l-3.87-3.42a3.94,3.94,0,0,1-.51-5.38v.11A1.87,1.87,0,0,0,344.5,376.79Z" style="fill:#4A9CBF"></path><path d="M326.24,414.78a3.64,3.64,0,0,1,1.67-3.06l7-4.47a3.51,3.51,0,0,1,3.58-.12h0l3.85,2.13a3.87,3.87,0,0,1,1.86,2.12,3.83,3.83,0,0,1-1.68,4.58l-7.18,4.18a3.83,3.83,0,0,1-3.91,0l-2.7-1.65-1-.79A3.62,3.62,0,0,1,326.24,414.78Z" style="fill:#4A9CBF"></path><path d="M248.8,369.13a3.82,3.82,0,0,1,.14-6.56l5.2-3a3.36,3.36,0,0,1,3.45.05h0l3.2,1.95a3.46,3.46,0,0,1,1.4,1.58,3.34,3.34,0,0,1-1.41,4.2l-6,3.45a3.32,3.32,0,0,1-3.45-.07l-1.84-1.17h0Z" style="fill:#4A9CBF"></path><path d="M288.87,363.2a2.93,2.93,0,0,1,1.5-2.57l5.75-3.21a2.93,2.93,0,0,1,2.92,0l2.31,1.34a3.31,3.31,0,0,1,1.39,1.52,3.26,3.26,0,0,1-1.35,4.09l-5,3a3.25,3.25,0,0,1-3.22,0l-1.72-1h0l-.34-.2-.75-.44A2.92,2.92,0,0,1,288.87,363.2Z" style="fill:#4A9CBF"></path><path d="M344.5,376.79l3.14,2.18.1.06v3a3.4,3.4,0,0,0,1.25,2.63c-.31-.22-.62-.45-.91-.7l-3.87-3.42a3.94,3.94,0,0,1-.51-5.38v.11A1.87,1.87,0,0,0,344.5,376.79Z" style="fill:#fff;opacity:0.5"></path><path d="M326.24,414.78a3.64,3.64,0,0,1,1.67-3.06l7-4.47a3.51,3.51,0,0,1,3.58-.12h0l3.85,2.13a3.87,3.87,0,0,1,1.86,2.12,3.83,3.83,0,0,1-1.68,4.58l-7.18,4.18a3.83,3.83,0,0,1-3.91,0l-2.7-1.65-1-.79A3.62,3.62,0,0,1,326.24,414.78Z" style="fill:#fff;opacity:0.5"></path><polygon points="291.43 366.38 291.09 366.18 291.43 366.38 291.43 366.38" style="fill:#4A9CBF"></polygon><path d="M248.8,369.13a3.82,3.82,0,0,1,.14-6.56l5.2-3a3.36,3.36,0,0,1,3.45.05h0l3.2,1.95a3.46,3.46,0,0,1,1.4,1.58,3.34,3.34,0,0,1-1.41,4.2l-6,3.45a3.32,3.32,0,0,1-3.45-.07l-1.84-1.17h0Z" style="fill:#fff;opacity:0.5"></path><path d="M288.87,363.2a2.93,2.93,0,0,1,1.5-2.57l5.75-3.21a2.93,2.93,0,0,1,2.92,0l2.31,1.34a3.31,3.31,0,0,1,1.39,1.52,3.26,3.26,0,0,1-1.35,4.09l-5,3a3.25,3.25,0,0,1-3.22,0l-1.72-1h0l-.34-.2-.75-.44A2.92,2.92,0,0,1,288.87,363.2Z" style="fill:#fff;opacity:0.5"></path><path d="M370.58,335.52a2.11,2.11,0,1,0,2.11-2.11A2.11,2.11,0,0,0,370.58,335.52Z" style="fill:#37474f"></path><path d="M385,328.83c0,1.16.41,2.11.91,2.11s.92-.95.92-2.11-.41-2.11-.92-2.11S385,327.66,385,328.83Z" style="fill:#37474f"></path><path d="M329.34,331a15.24,15.24,0,0,0,8.83,7.19,11.66,11.66,0,0,0,10.92-2.38,18.76,18.76,0,0,0,3.9-6,27.76,27.76,0,0,1,3.53-6.21,8.44,8.44,0,0,1,6.43-3,28.43,28.43,0,0,0-2,10.94,13.21,13.21,0,0,0,6,11.09,14.92,14.92,0,0,1,2.47,1.93,44,44,0,0,1,4.89,6.06,25.19,25.19,0,0,0,5.26,5.73,14.4,14.4,0,0,0,8.76,2.76,14.62,14.62,0,0,0,4.2-.76l-.94.53a12.86,12.86,0,0,1-15.21-2l-9.15-8.86a12.53,12.53,0,0,0-8.75-3.55h-4c-15.64,0-23.76-7.06-26-15.05A17.09,17.09,0,0,0,329.34,331Z" style="opacity:0.2"></path><path d="M387.84,355.28a12.94,12.94,0,0,1,7.3-3.54l.48,1a3.73,3.73,0,0,1-1.55,4.87l-2.4,1.35a12.89,12.89,0,0,1-3.43,1.3l-.19-.15A3.24,3.24,0,0,1,387.84,355.28Z" style="fill:#37474f"></path><path d="M352.88,344.89c-24.1-.94-28.23-34-11.85-37.16l-.92-.84h-4.62c-18.2,3.55-11.94,42.69,18.12,38.08Z" style="fill:#fff"></path><path d="M340.11,306.89l.92.84c-16.38,3.2-12.25,36.22,11.85,37.16C327.79,346.73,321.36,311,340.11,306.89Z" style="opacity:0.2"></path><path d="M353.61,345l-.45.06-.28-.14Z" style="fill:#37474f"></path><path d="M335.2,359.38a9.78,9.78,0,0,1,9-6.64c3.79-.06,7.4,1.15,9.07,2.42,5.35-2.44,6.73-5.57,6.73-5.57-1.6,7.88-8.6,10.19-9.84,10.67,0,0-9.39,4-17.8,3.16A8.89,8.89,0,0,0,335.2,359.38Z" style="opacity:0.2"></path><path d="M279.75,314.74c1.92,5.1,6.12,17.51,12.47,25.46s20,15.56,23,20.39a79.58,79.58,0,0,1-20.65-13A80.44,80.44,0,0,1,279.67,331C281,327.64,281,322.94,279.75,314.74Z" style="fill:#fff;opacity:0.2"></path><path d="M360.44,330a54.76,54.76,0,0,0,.2,9.83,27.67,27.67,0,0,1-.66,9.78,11.16,11.16,0,0,1-6.09,7.33c-3,1.24-7,.31-8.66-2.53a8.33,8.33,0,0,1-.24-6.83,51.94,51.94,0,0,1,3.12-6.3,31.18,31.18,0,0,0,3.07-9.95c.31-2.28.36-4.59.73-6.86a13,13,0,0,1,2.56-6.31,6.78,6.78,0,0,1,6.07-2.58c2.79.44,4.82,3.29,3.46,5.86C362.42,324.37,360.84,326.5,360.44,330Z" style="fill:#455a64"></path><path d="M345.07,351.72a5.81,5.81,0,0,0,6,2.69,7.4,7.4,0,0,0,5.27-4.24c2.39-5.25.63-11.57.74-14.91a23.22,23.22,0,0,1,3.64-11.74,19.34,19.34,0,0,0,2.3-4,5,5,0,0,0,.19-2.58,3.76,3.76,0,0,1,.78,4.49c-1.58,2.95-3.16,5.08-3.56,8.56a54.76,54.76,0,0,0,.2,9.83,27.67,27.67,0,0,1-.66,9.78,11.16,11.16,0,0,1-6.09,7.33c-3,1.24-7,.31-8.66-2.53a7.2,7.2,0,0,1-.77-4.57A5.64,5.64,0,0,0,345.07,351.72Z" style="opacity:0.2"></path><path d="M347.61,374.92a5.61,5.61,0,0,1,5.11,0c1.41.82,1.41,2.15,0,3a5.7,5.7,0,0,1-5.12,0C346.18,377.07,346.19,375.74,347.61,374.92Z" style="fill:#4A9CBF"></path><path d="M346.48,373.53a1.72,1.72,0,0,1,1.56,0,.48.48,0,0,1,0,.9,1.74,1.74,0,0,1-1.57,0A.48.48,0,0,1,346.48,373.53Z" style="fill:#4A9CBF"></path><path d="M348.76,373.08a1.72,1.72,0,0,1,1.56,0,.48.48,0,0,1,0,.91,1.72,1.72,0,0,1-1.56,0A.48.48,0,0,1,348.76,373.08Z" style="fill:#4A9CBF"></path><path d="M344.65,374.67a1.74,1.74,0,0,1,1.57,0,.48.48,0,0,1,0,.91,1.72,1.72,0,0,1-1.56,0A.48.48,0,0,1,344.65,374.67Z" style="fill:#4A9CBF"></path><g style="opacity:0.30000000000000004"><path d="M347.61,374.92a5.61,5.61,0,0,1,5.11,0c1.41.82,1.41,2.15,0,3a5.7,5.7,0,0,1-5.12,0C346.18,377.07,346.19,375.74,347.61,374.92Z"></path><path d="M346.48,373.53a1.72,1.72,0,0,1,1.56,0,.48.48,0,0,1,0,.9,1.74,1.74,0,0,1-1.57,0A.48.48,0,0,1,346.48,373.53Z"></path><path d="M348.76,373.08a1.72,1.72,0,0,1,1.56,0,.48.48,0,0,1,0,.91,1.72,1.72,0,0,1-1.56,0A.48.48,0,0,1,348.76,373.08Z"></path><path d="M344.65,374.67a1.74,1.74,0,0,1,1.57,0,.48.48,0,0,1,0,.91,1.72,1.72,0,0,1-1.56,0A.48.48,0,0,1,344.65,374.67Z"></path></g><path d="M254,341.33a19.77,19.77,0,0,1-6.47-2.24c.4,4.51,6.47,6.39,6.47,6.39Z" style="opacity:0.2"></path><path d="M289.35,348.34a11.89,11.89,0,0,1-6.13-5.06c-1-1.68-1.57-3.59-2.56-5.27a8.13,8.13,0,0,0-1.62-2,16.41,16.41,0,0,1,.63-5.07,80.44,80.44,0,0,0,14.88,16.63l.26,1.34A11.76,11.76,0,0,1,289.35,348.34Z" style="opacity:0.2"></path><path d="M235.37,289.27a8.17,8.17,0,0,0,1.63,2,10.51,10.51,0,0,0,8.7,2.25c5.33-.95,9-7.12,14.39-7.12a26.25,26.25,0,0,0-5,5.9C245.2,297.21,237.5,296.74,235.37,289.27Z" style="opacity:0.2"></path><path d="M297.36,366.74c1-1.83-.77-4.72-2.38-5.09C298.94,362,299.21,365.49,297.36,366.74Z" style="opacity:0.2"></path><path d="M297.68,359.72c3.53.81,3.62,3.71,2.75,5.17C303.18,360.93,300,359.52,297.68,359.72Z" style="opacity:0.2"></path><path d="M337,418.94c1-1.83-.77-4.72-2.38-5.09C338.54,414.22,338.81,417.68,337,418.94Z" style="opacity:0.2"></path><path d="M338.27,411.47c3.54.81,3.63,3.72,2.76,5.17C343.78,412.68,340.55,411.27,338.27,411.47Z" style="opacity:0.2"></path><path d="M256.43,369.78c1-1.84-.78-4.73-2.39-5.1C258,365.05,258.27,368.52,256.43,369.78Z" style="opacity:0.2"></path><path d="M257,362.76a3.48,3.48,0,0,1,2.76,5.16C262.68,365,259.48,362.37,257,362.76Z" style="opacity:0.2"></path><path d="M325.48,338.69a3.91,3.91,0,0,1-1.14-2.76,3.87,3.87,0,0,1,1.14-2.75h0a3.88,3.88,0,0,1,2.76-1.15,3.9,3.9,0,0,1,0,7.8A3.91,3.91,0,0,1,325.48,338.69Zm1.36-4.16h0a2,2,0,0,0,0,2.8,2,2,0,0,0,2.8,0,2,2,0,1,0-2.8-2.8Z" style="fill:#e0e0e0"></path><path d="M326.59,337a2.34,2.34,0,0,0,.25.3A1.73,1.73,0,0,1,326.59,337Z" style="fill:none"></path><path d="M326.79,333.9a2.46,2.46,0,0,1,3.48,3.48,2.37,2.37,0,0,1-2.31.6c-.41-.11.87.15,1.68-.65a2,2,0,1,0-2.8-2.8,2,2,0,0,0-.58,1.4,1.92,1.92,0,0,0,.33,1.1A2.4,2.4,0,0,1,326.79,333.9Z" style="opacity:0.2"></path><path d="M231.92,324a8.1,8.1,0,0,0,5.61-2.4,12.5,12.5,0,0,0,3.29-6.94c1-6.06-1-12.26-3.1-17.53-.33-.81-.66-1.63-1-2.45-1.84-4.48-3.74-9.12-4.17-13.92l-1.91.18c.46,5.08,2.42,9.85,4.31,14.47l1,2.44c2.1,5.26,3.92,10.91,3,16.5a10.84,10.84,0,0,1-2.75,5.89,5.87,5.87,0,0,1-5.64,1.63,6.15,6.15,0,0,1-3.29-2.82,16.26,16.26,0,0,1-1.68-4.51,57.9,57.9,0,0,1,3.06-36.86l-1.76-.76A59.75,59.75,0,0,0,223.71,315a18,18,0,0,0,1.9,5,8.08,8.08,0,0,0,4.35,3.65A6.47,6.47,0,0,0,231.92,324Z" style="fill:#455a64"></path><path d="M231,322a6.92,6.92,0,0,1-4.78-3.4,16.8,16.8,0,0,1-1.95-5.72,64.8,64.8,0,0,1,3.25-35.74l1.08.46a57.9,57.9,0,0,0-3.06,36.86,16.26,16.26,0,0,0,1.68,4.51,6.15,6.15,0,0,0,3.29,2.82,4.8,4.8,0,0,0,1.93.16A4.63,4.63,0,0,1,231,322Z" style="opacity:0.4"></path><path d="M230.64,280.9l1.91-.18a27.39,27.39,0,0,0,.66,3.9l-1.91.29A29.94,29.94,0,0,1,230.64,280.9Z" style="opacity:0.4"></path><path d="M226.87,276.88l1.76.76a56.17,56.17,0,0,0-2.43,6.72c-.49-.56-1-1.12-1.48-1.69A57.52,57.52,0,0,1,226.87,276.88Z" style="opacity:0.4"></path><path d="M147.65,394.64a3.64,3.64,0,0,1-3.17,0,8.21,8.21,0,0,1-4.21-4.77,27.61,27.61,0,0,1-1.3-7.12l-.48-4.89a18.89,18.89,0,0,1-.13-4.69,5,5,0,0,1,1.84-3.27l9.24-14,10.53,6-10.4,11.55a7.29,7.29,0,0,0-1.86,4.91l.07,11a7.54,7.54,0,0,0,.95,3.64A2.27,2.27,0,0,1,147.65,394.64Z" style="fill:#ffa8a7"></path><path d="M134.71,374a5.65,5.65,0,0,1,5.49-4.12,5,5,0,0,0-1.84,3.27,14.83,14.83,0,0,0,0,3.88q.32,3.21.64,6.42a23.85,23.85,0,0,0,1.22,6.4,8.21,8.21,0,0,0,4.21,4.77,3.64,3.64,0,0,0,3.17,0,2.27,2.27,0,0,0,1.08-1.65,7.86,7.86,0,0,0,1.54,2,14.35,14.35,0,0,1,1,1.08,3.41,3.41,0,0,1,.66,3.7c-.67,1.25-2.23,1.69-3.63,1.91a15.53,15.53,0,0,1-6.26-.12,8,8,0,0,1-5-3.6,12.71,12.71,0,0,1-1.22-5.18l-1.14-12.48c-.12-1.28-.21-2.57-.24-3.85A8.81,8.81,0,0,1,134.71,374Z" style="fill:#37474f"></path><path d="M212.39,413.16c-5.62.27-11.85-5.41-14.62-7.38s-4.61-1.89-5.93-8.13l-5.34-22.22,12.89-2.89,2.74,23.24a7.33,7.33,0,0,0,2.38,4.58l8,7.08a22.35,22.35,0,0,0,4.29,3.13l.28.15C217.15,411.84,216.19,413,212.39,413.16Z" style="fill:#ffa8a7"></path><path d="M191.84,397.65c1.32,6.24,3.15,6.17,5.93,8.13s9,7.65,14.62,7.38c3.8-.18,4.76-1.32,4.64-2.44l4,2.25a3.87,3.87,0,0,1,.86,6.16l0,0a8.71,8.71,0,0,1-5.15,1.94,16.15,16.15,0,0,1-10.16-2.56c-2.39-1.57-4.38-3.78-7-4.89a39,39,0,0,0-4.41-1.27,7.51,7.51,0,0,1-3.9-2.28,7.65,7.65,0,0,1-1.25-5.18A19.19,19.19,0,0,1,191.84,397.65Z" style="fill:#37474f"></path><path d="M184.09,260.38a47,47,0,0,1-23.46-7.9,61.14,61.14,0,0,1,6.7-9.63l38.72,3.49c.38,3.2.66,6.38.87,9.51A47.09,47.09,0,0,1,184.09,260.38Z" style="fill:#ffa8a7"></path><path d="M171.39,324.45c-8.67-26.76-23.09-49.64-10.76-72a46.65,46.65,0,0,0,46.29,3.37c1.91,29.63-3.76,55.24-9.88,66.86,2.33,14,3.56,53.88,3.56,53.88-6.45,6.13-14.76,2.2-14.76,2.2L176.49,348s-17.25,16.2-19,18.38A11.49,11.49,0,0,1,147,358.25C161,333.88,163.07,330.41,171.39,324.45Z" style="fill:#37474f"></path><path d="M208.38,192.47a8.13,8.13,0,0,0-.08-3.07c-.2-.88-2.65-6-2.32-6.37a12.9,12.9,0,0,0,1.55-16.17,4.35,4.35,0,0,0-.78-8.33c-1.57-.28-3.14.33-4.69.66a22.51,22.51,0,0,1-8.06,0c-2.68-.39-5.33-1-8-1.16a16.28,16.28,0,0,0-7.95,1.13,8.85,8.85,0,0,0-5.13,5.89c-4-.78-8.63,2.48-9.37,6.48s1.56,7.79,1.21,11.72a13,13,0,0,1-3.43,7.11c-1.74,2-3.8,3.76-5.62,5.72a32.1,32.1,0,0,0-8.44,19.76c-.25,4.11.37,8.42,2.67,11.84,4.51,6.71,16.6,8.39,24,8.11a39.72,39.72,0,0,0,21.24-7.19c4.28-3,8.2-7.52,8.05-12.76-.07-2.46-1-4.8-1.69-7.18s-1-5,.17-7.22,3.71-3.53,5.25-5.59A7.73,7.73,0,0,0,208.38,192.47Z" style="fill:#263238"></path><path d="M206.05,246.34c-7.66-18.41-10.45-42.48-10.45-42.48h5.15a9.7,9.7,0,0,1,9.41,7.34l7.42,29.72c6.88,7.73,14,25.26,14,25.26l6.16,3.41a2.87,2.87,0,0,1,1.43,3.06l-1.6,8.21a2.87,2.87,0,0,1-2.44,2.31l-5.57.75a2.89,2.89,0,0,1-2.42-.82l-1.5-1.5a2.9,2.9,0,0,1-.68-3l.63-1.77C221.91,274.12,223,269,223,269,207.84,255.89,206.05,246.34,206.05,246.34Z" style="fill:#ffa8a7"></path><path d="M196.35,319c-2.56-22.29-5.68-37.4-5.68-37.4,8.5-4.34,11.27-9,11.27-9-1.47,7.51-8.07,11.58-8.07,11.58C196.31,297,196.35,319,196.35,319Z" style="opacity:0.2"></path><path d="M176.49,348a46.82,46.82,0,0,1-1.06-11.31l-4-12.25,2.49,12.41c-.43,4.07-.85,11.05,0,13.68Z" style="opacity:0.2"></path><path d="M197.78,212.35a6.39,6.39,0,0,1-4.14,1.1,23.14,23.14,0,0,1-18.48-9.17l4.1-.35V190.71l14.28,5.51v7.64h3.65A10.56,10.56,0,0,1,199,207,5,5,0,0,1,197.78,212.35Z" style="fill:#ffa8a7"></path><path d="M180.26,191.1c2.33,5.23,6.94,9.72,13.28,10.46v-5.34Z" style="opacity:0.2"></path><path d="M181.81,180.54a13.45,13.45,0,0,1,.15,3.35,3.86,3.86,0,0,1-1.11,2.23,2.47,2.47,0,0,1-2.25.67,4.36,4.36,0,0,0-8.47-2.07,5.49,5.49,0,0,0,.92,4.54,10.19,10.19,0,0,0,3.64,3,3.69,3.69,0,0,0,4.4-1.72c4.24,5.38,11.64,9.41,18.57,8.83a9.86,9.86,0,0,0,5.28-1.86c2.62-2,2.81-5.09,3.14-8.11A42.8,42.8,0,0,0,206,177.9c-.85-5.26-3.19-10.44-7.28-13.87C196.33,175.49,185.83,179.7,181.81,180.54Z" style="fill:#ffa8a7"></path><polygon points="196.24 179.24 200.99 185.09 196.57 186.61 196.24 179.24" style="fill:#f28f8f"></polygon><path d="M192.52,189.46l3.7,1.17a2.3,2.3,0,0,1-2.51,1.13A2.06,2.06,0,0,1,192.52,189.46Z" style="fill:#f28f8f"></path><path d="M192.52,189.46l3.7,1.17a2.3,2.3,0,0,1-2.51,1.13A2.06,2.06,0,0,1,192.52,189.46Z" style="opacity:0.30000000000000004"></path><path d="M194.92,191.69a2.1,2.1,0,0,1-1.21.07,1.87,1.87,0,0,1-1.19-1.69,2.17,2.17,0,0,1,1.43.28A2.14,2.14,0,0,1,194.92,191.69Z" style="fill:#f28f8f"></path><path d="M189.7,180.46a1.32,1.32,0,1,0,1.26-1.38A1.33,1.33,0,0,0,189.7,180.46Z" style="fill:#263238"></path><path d="M200.74,179.53a1.32,1.32,0,1,0,1.25-1.37A1.31,1.31,0,0,0,200.74,179.53Z" style="fill:#263238"></path><path d="M201.78,174.24l3,1.88a1.86,1.86,0,0,0-.66-2A2.22,2.22,0,0,0,201.78,174.24Z" style="fill:#263238"></path><path d="M190.5,174.59l-2.82,2.15a1.87,1.87,0,0,1,.47-2.09A2.23,2.23,0,0,1,190.5,174.59Z" style="fill:#263238"></path><path d="M165,244.6c2.33-4.54,1.8-10.36-1.88-16.89-1.82-3.24-.17-22.37-.17-22.37l12.2-1.06a23.14,23.14,0,0,0,18.48,9.17,6.39,6.39,0,0,0,4.14-1.1A5,5,0,0,0,199,207a10.56,10.56,0,0,0-1.76-3.09h3.56c4.26,3.79,12.32,19.13,12.82,27.38.25,4.14-2.95,6.17-5.15,7.46a47.69,47.69,0,0,0-.53,7.15A28.45,28.45,0,0,1,197.21,249C185.16,250.58,176.1,249.55,165,244.6Z" style="fill:#4A9CBF"></path><path d="M165,244.6c2.33-4.54,1.8-10.36-1.88-16.89-1.82-3.24-.17-22.37-.17-22.37l12.2-1.06a23.14,23.14,0,0,0,18.48,9.17,6.39,6.39,0,0,0,4.14-1.1A5,5,0,0,0,199,207a10.56,10.56,0,0,0-1.76-3.09h3.56c4.26,3.79,12.32,19.13,12.82,27.38.25,4.14-2.95,6.17-5.15,7.46a47.69,47.69,0,0,0-.53,7.15A28.45,28.45,0,0,1,197.21,249C185.16,250.58,176.1,249.55,165,244.6Z" style="opacity:0.2"></path><path d="M156.91,281.51l-16.5-29a11.67,11.67,0,0,1-.29-9.74l12.32-29a14.64,14.64,0,0,1,13.46-8.91h2.28c1.32,12.95-3.18,19.31-15,41.79,0,0,6.24,21,11.12,30.29a35.29,35.29,0,0,1,10.45,7.59,1.87,1.87,0,0,1,.09,2.47l0,0a1.82,1.82,0,0,1-2.24.44c-1.57-.81-3.13-1.64-4.71-2.44A51.69,51.69,0,0,0,174,295.35a1.92,1.92,0,0,1-.12,2.51l0,0a1.94,1.94,0,0,1-1.7.59l-5.16-.76a9.34,9.34,0,0,1-7-5.13A32,32,0,0,1,156.91,281.51Z" style="fill:#ffa8a7"></path><path d="M177.06,231.17a15.34,15.34,0,0,0,18.45,5.42A11.39,11.39,0,0,1,185,239.52C181.31,238.58,178.16,234.8,177.06,231.17Z" style="opacity:0.2"></path><path d="M235.45,270.84a9.19,9.19,0,0,0-5.34-1.2l.91.83a3.84,3.84,0,0,1,1.07,3.92l-.85,2.83a1.81,1.81,0,0,1-2.29,1.21h0a1.82,1.82,0,0,1-1.24-1.94l.18-1.58a3.2,3.2,0,0,1-3.17-2.32,3.21,3.21,0,0,0,1.39,2.62l-.52,1.63.94-1.67a2.72,2.72,0,0,0,.78.2l-.22,1.42a2.16,2.16,0,0,0,1.46,2.4h0a2.18,2.18,0,0,0,2.76-1.44l1.19-4a3.8,3.8,0,0,0-.59-3.37h0A14.11,14.11,0,0,1,235.45,270.84Z" style="opacity:0.2"></path><path d="M254,271.36c6.55,5.76,9.09,14.63,10.43,20.8a103.15,103.15,0,0,1,2,30.55c-.31,3.78-.84,7.58-1.35,11.26-.66,4.74-1.34,9.63-1.56,14.46-.45,10,1.34,18.22,5.32,24.36,4.85,7.5,13.5,11.65,21,10.09,7.71-1.61,12.73-8.4,15-12.3a88.47,88.47,0,0,0,5.5-11.81c.95-2.33,1.93-4.73,3-7C316.94,344.18,321.07,339,326,336a1,1,0,0,1,1.33.37h0a1,1,0,0,1-.36,1.28c-4.61,2.81-8.48,7.68-11.82,14.85-1.06,2.28-2,4.66-3,7a90.91,90.91,0,0,1-5.63,12.07c-2.47,4.17-7.87,11.44-16.3,13.19a17.39,17.39,0,0,1-3.6.37c-7.29,0-14.89-4.3-19.41-11.29-4.2-6.48-6.09-15.06-5.62-25.48.22-4.92.91-9.86,1.57-14.64.51-3.66,1-7.43,1.34-11.16a101.33,101.33,0,0,0-2-30c-1.29-5.91-3.7-14.38-9.82-19.77-4.86-4.27-12.55-6.05-18.07-2.14a12.48,12.48,0,0,0-2.78-.28C238.25,264.67,248.22,266.26,254,271.36Z" style="fill:#455a64"></path><path d="M327.39,336.54a1,1,0,0,1-.4,1.14c-4.61,2.81-8.48,7.68-11.82,14.85-1.06,2.28-2,4.66-3,7a90.91,90.91,0,0,1-5.63,12.07,36,36,0,0,1-3.27,4.66C315.69,355.73,312.94,345.47,327.39,336.54Z" style="opacity:0.4"></path><path d="M258.38,280.18a31.1,31.1,0,0,0-5.12-6.9A25.85,25.85,0,0,1,258.38,280.18Z" style="fill:none"></path><path d="M258.41,280.24l0-.06,0,.06Z" style="fill:#e0e0e0"></path><path d="M253.26,273.28l-.5-.48c-4.86-4.27-12.55-6.05-18.07-2.14l-.91-.15h0C239.49,266.18,247,267,253.26,273.28Z" style="opacity:0.4"></path></g></svg>