<svg xmlns="http://www.w3.org/2000/svg" viewBox="0 0 500 500"><g id="freepik--background-simple--inject-75"><path d="M114.1,437.77S181.31,482,263,457.59s137.26-98.8,183.88-157.89,44.39-131.31-3.38-175.64-95.69-7.84-173.26-24.41S174.5,66.89,100.37,95.3-9.39,224.79,23.25,314,114.1,437.77,114.1,437.77Z" style="fill:#4A9CBF"></path><path d="M114.1,437.77S181.31,482,263,457.59s137.26-98.8,183.88-157.89,44.39-131.31-3.38-175.64-95.69-7.84-173.26-24.41S174.5,66.89,100.37,95.3-9.39,224.79,23.25,314,114.1,437.77,114.1,437.77Z" style="fill:#fff;opacity:0.7000000000000001"></path></g><g id="freepik--character-2--inject-75"><path d="M284.58,121.51l.82.18c2.28.56,8.64,2.54,10,7.36,1.63,5.91-5.5,10.79-6.31,11.81S278.47,126,277.45,125.38,278.67,118.46,284.58,121.51Z" style="fill:#c7c7c7;stroke:#8a8a8a;stroke-linecap:round;stroke-linejoin:round"></path><path d="M292.31,440l2,5.17s-4.17,1.67-3,2.67a32.2,32.2,0,0,0,3,2.16s1.5,11.67,1.5,12.34a3.17,3.17,0,0,0,1.17,2.33c.66.33,8.66-.33,13.33-1.67s21.17-8.66,23.5-10.33,8-6.67,8.17-8.17.5-3-1-3.16-13.84,2-18.84,2a25.1,25.1,0,0,1-9.5-1.67c-.5-.33-1.5-5-2.5-5.33s-3.83.5-3.83.5l-.83-3-14.34,3.83Z" style="fill:#fff;stroke:#263238;stroke-linecap:round;stroke-linejoin:round"></path><path d="M306.81,444c-1,1.5-7.67,3.17-9.33,2.17a6.79,6.79,0,0,0-3.17-1s-4.17,1.67-3,2.67a32.2,32.2,0,0,0,3,2.16s1.5,11.67,1.5,12.34a3.17,3.17,0,0,0,1.17,2.33c.66.33,8.66-.33,13.33-1.67s21.17-8.66,23.5-10.33,8-6.67,8.17-8.17.5-3-1-3.16-13.84,2-18.84,2a25.1,25.1,0,0,1-9.5-1.67c-.5-.33-1.5-5-2.5-5.33s-3.83.5-3.83.5C305.64,437.47,307.81,442.47,306.81,444Z" style="fill:#fff;stroke:#263238;stroke-linecap:round;stroke-linejoin:round"></path><path d="M331.31,449.81c-4.83,3.33-11.33,5-21,7.16-7.45,1.67-12.7,2.75-14.73,3.15.14,1.18.23,2,.23,2.19a3.17,3.17,0,0,0,1.17,2.33c.66.33,8.66-.33,13.33-1.67s21.17-8.66,23.5-10.33,8-6.67,8.17-8.17.5-3-1-3.16A45.37,45.37,0,0,1,331.31,449.81Z" style="fill:#fff;stroke:#263238;stroke-linecap:round;stroke-linejoin:round"></path><path d="M289.81,435.64s0,4.5,2.5,5,12.17-2.17,14-3.83-1.17-6.17-1.17-6.17l-15.66,3.83Z" style="fill:#263238;stroke:#263238;stroke-linecap:round;stroke-linejoin:round"></path><path d="M186.9,424l-3.51,4.77s0-2-1.5-1.26-2.51,2-3.64,4.52-6.64,9.77-6.14,11.65,11.78,7.65,14.92,10.91,7.14,5.89,10.65,6.14,15.79.37,17.42-.38,1.26-2.88.5-4.51-8.77-5.14-9.65-5.89-6.26-10-6.52-11.28,2-5.52.76-6.64a1.66,1.66,0,0,0-2.26-.26l2-3.38Z" style="fill:#fff;stroke:#263238;stroke-linecap:round;stroke-linejoin:round"></path><path d="M181.89,427.55c-1.51.76-2.51,2-3.64,4.52s-6.64,9.77-6.14,11.65,11.78,7.65,14.92,10.91,7.14,5.89,10.65,6.14,15.79.37,17.42-.38,1.26-2.88.5-4.51-8.77-5.14-9.65-5.89-6.26-10-6.52-11.28,2-5.52.76-6.64a1.66,1.66,0,0,0-2.26-.26s0,2.76-1,2.89-5.27,1.13-8.65.12-4.89-6-4.89-6l-.07-.58C183.19,427.71,182.84,427.08,181.89,427.55Z" style="fill:#fff;stroke:#263238;stroke-linecap:round;stroke-linejoin:round"></path><path d="M199.06,457.63c-4.14-1.25-11.78-7.52-14.79-11.15s-9.65-7.52-9.65-7.52l-.54,0c-1.23,2.07-2.19,4-2,4.79.5,1.88,11.78,7.65,14.92,10.91s7.14,5.89,10.65,6.14,15.79.37,17.42-.38a2.23,2.23,0,0,0,1.11-2.55l-.23.05C213.85,458.26,203.19,458.89,199.06,457.63Z" style="fill:#fff;stroke:#263238;stroke-linecap:round;stroke-linejoin:round"></path><path d="M189.14,417.31l-2.86,5.2a2.25,2.25,0,0,0,.88,3.05l9.57,5.27a2.25,2.25,0,0,0,3.11-1l2.64-5.52Z" style="fill:#263238;stroke:#263238;stroke-linecap:round;stroke-linejoin:round"></path><path d="M212.81,292.64s-5.33,18.67-4,27.33,2.67,16.67,2.67,20-4.67,38-7.67,44-18.33,30-17.33,33.67,16.66,9,19.66,9.67,6.67-1.67,9.34-5,18.33-30.34,23.66-41,8.34-17.67,9.34-20a58.15,58.15,0,0,0,2-6s16.33,23.33,20,34.66,10.33,34.34,11,38.67,3.33,7,8.33,7,16.67-2,17.33-6.33-4-43.67-4.66-52.67-6.34-26-11.34-39-10.33-24.33-10.33-24.33l-1.33-14.67-61.34-6Z" style="fill:#4A9CBF;stroke:#263238;stroke-linecap:round;stroke-linejoin:round"></path><polyline points="250.48 355.31 254.48 338.31 269.14 325.64" style="fill:none;stroke:#263238;stroke-linecap:round;stroke-linejoin:round"></polyline><path d="M273.37,330.72c.76-.44,1.37-.81,1.77-1.08" style="fill:none;stroke:#263238;stroke-linecap:round;stroke-linejoin:round"></path><path d="M257.48,339.31s7.1-3.72,12.43-6.65" style="fill:none;stroke:#263238;stroke-linecap:round;stroke-linejoin:round"></path><path d="M227.81,300.64s2.67,11-5.33,17.67" style="fill:none;stroke:#263238;stroke-linecap:round;stroke-linejoin:round"></path><path d="M213.81,285.31s-2.67,7.33-1.33,9,26.66,7,43.66,6.66,22.67-1,23.34-2.33,1-8,1-8-12.67,3-31,.67-29.34-5-29.34-5S214.48,284.31,213.81,285.31Z" style="fill:#263238;stroke:#263238;stroke-linecap:round;stroke-linejoin:round"></path><path d="M222.19,221.08s-15.8,24.51-15.8,28.7,15.8,19.35,16.77,20.32,6.13-14.83,6.13-27.41a84.15,84.15,0,0,0-4.19-24.51Z" style="fill:#4A9CBF;stroke:#263238;stroke-linecap:round;stroke-linejoin:round"></path><path d="M230.31,197.72s-9,14-9.5,19.5,0,29-.25,36-8.75,30-8.75,33.5,18.5,8.75,40.75,9.25,30.5-3.25,32.25-6.5-.25-17-.5-24,.5-23.5.75-30.5-2.75-17.5-7-23.5a81.38,81.38,0,0,1-7.5-14,243.55,243.55,0,0,0-24.75-4.25C234.06,192,230.31,197.72,230.31,197.72Z" style="fill:#4A9CBF;stroke:#263238;stroke-linecap:round;stroke-linejoin:round"></path><path d="M265.06,269.2A67.44,67.44,0,0,1,258,280.65a28,28,0,0,1-8,6.58l2.92,2.19s8.77-5.36,15.59-20.22Z" style="fill:#263238;stroke:#263238;stroke-linecap:round;stroke-linejoin:round"></path><path d="M283.76,127.22s5.91,6.72,6.93,11-.21,8.75.4,10.59,4.89,5.9,4.28,7.94-3.26,3.26-3.26,3.26-.2,11.2-1.83,14.66-6.52,4.89-9,4.89-5.09-.2-5.09-.2-3.06,5.7-4.69,9.77.61,10.6,1.22,12.22,1.84,3.06.41,3.47-3.67-2-10-5.91-18.74-12.22-18.74-12.22,5.3-6.31,5.91-11.81-1.22-16.3,3.46-29.33S269.1,126.61,273,126,283,126,283.76,127.22Z" style="fill:#fff;stroke:#263238;stroke-linecap:round;stroke-linejoin:round"></path><path d="M276.23,179.36l-6.52-3.26s-3.87,9.37-4.08,10.79" style="fill:none;stroke:#263238;stroke-linecap:round;stroke-linejoin:round"></path><line x1="257.49" y1="184.65" x2="260.14" y2="180.58" style="fill:none;stroke:#263238;stroke-linecap:round;stroke-linejoin:round"></line><path d="M288.65,153.29s-1.22,2.85-5.5,3.87" style="fill:none;stroke:#263238;stroke-linecap:round;stroke-linejoin:round"></path><path d="M282.74,143.31s2.45-3.47,5.5-1.43" style="fill:none;stroke:#263238;stroke-linecap:round;stroke-linejoin:round"></path><path d="M290.89,166.53a15.19,15.19,0,0,1-5.09-.61,13.12,13.12,0,0,1-4.89-3.26s1,6.11,3,6.72S290.89,166.53,290.89,166.53Z" style="fill:#263238;stroke:#263238;stroke-linecap:round;stroke-linejoin:round"></path><path d="M282.34,161.43a9.49,9.49,0,0,0-3.87,3.47" style="fill:none;stroke:#263238;stroke-linecap:round;stroke-linejoin:round"></path><path d="M287.83,149.11c0,1.18-.45,2.14-1,2.14s-1-1-1-2.14.45-2.14,1-2.14S287.83,147.93,287.83,149.11Z" style="fill:#263238"></path><path d="M283,127.42s-.61,7.33-3.67,11.81-9.37,8.15-11,18.54a127.57,127.57,0,0,0-1,22.4s-5.29,1.63-16.9-.61-19.55-4.28-21-11,1.63-15.88,5.91-23.62,5.29-17.93,11.4-23.22,24.85-3.87,29.94-3.06,9.37,2.45,9.58,4.69S283,127.42,283,127.42Z" style="fill:#c7c7c7;stroke:#8a8a8a;stroke-linecap:round;stroke-linejoin:round"></path><path d="M254.39,175.17c.22,1.76.44,2.87.44,2.87" style="fill:none;stroke:#8a8a8a;stroke-linecap:round;stroke-linejoin:round"></path><path d="M273.07,122.5s-3.81,4.9-3.27,10.34-4.08,14.44-8.44,19.06S254,164.16,254,169.06c0,.37,0,.73,0,1.09" style="fill:none;stroke:#8a8a8a;stroke-linecap:round;stroke-linejoin:round"></path><path d="M260.84,124.68a5.51,5.51,0,0,1,1.34-2.45" style="fill:none;stroke:#8a8a8a;stroke-linecap:round;stroke-linejoin:round"></path><path d="M244.21,176.41s-6-5.72.27-15.25,12.25-13.07,14.43-21a48.82,48.82,0,0,0,1.33-10.9" style="fill:none;stroke:#8a8a8a;stroke-linecap:round;stroke-linejoin:round"></path><path d="M247.06,130.3a10,10,0,0,0-1.76,5c0,5.18-4.09,14.71-5.72,16.61s-10.35,10.62-7.62,19.34" style="fill:none;stroke:#8a8a8a;stroke-linecap:round;stroke-linejoin:round"></path><path d="M252.92,123.59a35.58,35.58,0,0,0-2.62,2.56" style="fill:none;stroke:#8a8a8a;stroke-linecap:round;stroke-linejoin:round"></path><path d="M274,205.43s-6.51-3.87-14.25-12.63S241.8,180,238.55,180s-4.49.81-6.11,4.48-5.3,10.18-5.1,12.83,2.65,3.46,5.1,3.06,5.9-2,12.83-1.43,17.92,5.91,21.38,7.13,6.93,2.65,8.15,0" style="fill:#263238;stroke:#263238;stroke-linecap:round;stroke-linejoin:round"></path><path d="M312.88,234.34s3.65-6.12,4.21-8.75,3.73-4.7,5.14-4.79a6.54,6.54,0,0,1,3.13,1,4,4,0,0,1,4.79,1.13c2.27,2.47.5,4.46.5,4.46s2.93,1.72-.25,7.81-13.92,8.14-15.11,8S312.88,234.34,312.88,234.34Z" style="fill:#fff;stroke:#263238;stroke-linecap:round;stroke-linejoin:round"></path><path d="M304.19,235.09l8.37-3.35a1.29,1.29,0,0,1,1.72.82l3.08,10.28a1.3,1.3,0,0,1-.76,1.57l-7.21,2.88Z" style="fill:#263238;stroke:#263238;stroke-linecap:round;stroke-linejoin:round"></path><path d="M234.15,208.51s-3.4,10.36-2.38,15.73,10.94,45.4,13.51,49,5.54,1.8,8.86,2.08,43.85-13.21,49.08-16.59,8.55-3.1,8.27-7.8-1.27-13.62-7.3-15.86-13.35,2-19.38,3.73S269,243.06,269,243.06s-1.16-23.78-3.13-29.09a16,16,0,0,0-9.3-9.61" style="fill:#4A9CBF;stroke:#263238;stroke-linecap:round;stroke-linejoin:round"></path><path d="M259.3,254.61c1.33-3,3.37-6.72,6.08-9" style="fill:none;stroke:#263238;stroke-linecap:round;stroke-linejoin:round"></path><path d="M257.46,259.56s.32-1.14,1-2.8" style="fill:none;stroke:#263238;stroke-linecap:round;stroke-linejoin:round"></path><path d="M259,249.79s4.32-6.87,8.08-7.09" style="fill:none;stroke:#263238;stroke-linecap:round;stroke-linejoin:round"></path></g><g id="freepik--character-1--inject-75"><path d="M251.25,206.36l4.31-11.48s10.76-5,11.83-5,5.74,15.42,5,16.5-7.54,5.38-10.05,6.81a19.08,19.08,0,0,1-6.45,1.8Z" style="fill:#fff;stroke:#263238;stroke-linecap:round;stroke-linejoin:round"></path><path d="M262.73,199.18s3.95,7.9,5,7.9,6.46-2.16,6.46-3.59-2.87-9.69-3.59-11.84-5.74-.36-7.53.36S260.58,194.88,262.73,199.18Z" style="fill:#fff;stroke:#263238;stroke-linecap:round;stroke-linejoin:round"></path><path d="M251.25,206.36s1.44-10.76,2.87-11.12,6.1-5.38,7.18-5.38,5.38,2.15,5.38,2.15,3.58,8.25,2.15,9.33-4.31-4.31-4.31-4.31-2.15,5.38-4.66,6.82l-2.51,1.43" style="fill:#fff;stroke:#263238;stroke-linecap:round;stroke-linejoin:round"></path><path d="M243.36,208.51l5.75-3.25a2.92,2.92,0,0,1,4,1.05l4,6.75a2.92,2.92,0,0,1-.76,3.84l-7.94,6Z" style="fill:#fff;stroke:#263238;stroke-linecap:round;stroke-linejoin:round"></path><path d="M187,183.76a92.34,92.34,0,0,1,11.48,14.35c4.66,7.53,16.86,24.39,16.86,24.39s19-11.48,22.6-13.63,4.66-2.51,7.17,0S253.4,221.42,252,225s-19.37,18.3-26.55,23-12.19,9-19.72,3.23-23-53.81-25.47-58.47S184.53,182,187,183.76Z" style="fill:#263238;stroke:#263238;stroke-linecap:round;stroke-linejoin:round"></path><path d="M202,427.07l2,7.33s-4.67,2.67-3.67,5,4.34,2.67,4.34,2.67,3.33,20.33,6,21.33,22.66-2,27-4,14.66-6,15.33-11.66-1.67-5.34-3.67-5-10.33,1-14.33,1-8.33-2.67-8.33-2.67-.34-8.33-2-9.67-6.67.34-6.67.34l-1.67-8Z" style="fill:#fff;stroke:#263238;stroke-linecap:round;stroke-linejoin:round"></path><path d="M210.56,434.68c-1.36-.2-5.4.11-6.67-.21-.69.41-4.47,2.81-3.56,4.93,1,2.34,4.34,2.67,4.34,2.67s3.33,20.33,6,21.33,22.66-2,27-4,14.66-6,15.33-11.66-1.67-5.34-3.67-5-10.33,1-14.33,1-8.33-2.67-8.33-2.67-.34-8.33-2-9.67-6.67.34-6.67.34l1.33,3.66S212.9,435,210.56,434.68Z" style="fill:#263238;stroke:#263238;stroke-linecap:round;stroke-linejoin:round"></path><path d="M252.3,443.11c-1.12,1.81-4.14,4.76-10,8-6.66,3.67-17.33,3-24.66,4.67a96.9,96.9,0,0,1-9.74,1.68c.88,3.16,1.85,5.65,2.74,6,2.66,1,22.66-2,27-4s14.66-6,15.33-11.66C253.31,445.08,253,443.75,252.3,443.11Z" style="fill:#fff;stroke:#263238;stroke-linecap:round;stroke-linejoin:round"></path><path d="M125.33,414.07l-2.66,8s-7.67-3-8,.67l-.34,3.66S105,437.74,104,440.07s-1,4.67,1.67,7,7.33,4,10.66,7.33,9,7.67,13,9.34,16,1,18-.34,1-4.33-.33-5-9.33-7-10.33-10-2-12-2-12,4.66-4,4.66-5.66-3-2.67-3-2.67l3.58-7Z" style="fill:#fff;stroke:#263238;stroke-linecap:round;stroke-linejoin:round"></path><path d="M114.67,422.74l-.34,3.66S105,437.74,104,440.07s-1,4.67,1.67,7,7.33,4,10.66,7.33,9,7.67,13,9.34,16,1,18-.34,1-4.33-.33-5-9.33-7-10.33-10-2-12-2-12,4.66-4,4.66-5.66-3-2.67-3-2.67c-.81.17-7,4.38-11.17,1.27a6.24,6.24,0,0,1-2.49-7.27S115,419.07,114.67,422.74Z" style="fill:#263238;stroke:#263238;stroke-linecap:round;stroke-linejoin:round"></path><path d="M148.36,460.39l-.54.25c-3.11,1.44-11.39,2.16-15.71,1.2s-15.71-10.32-18.59-17.51c-2-5.07-5.64-6.68-7.62-7.2a21.57,21.57,0,0,0-1.9,2.94c-1,2.33-1,4.67,1.67,7s7.33,4,10.66,7.33,9,7.67,13,9.34,16,1,18-.34A2.69,2.69,0,0,0,148.36,460.39Z" style="fill:#fff;stroke:#263238;stroke-linecap:round;stroke-linejoin:round"></path><path d="M146.67,325.07l2,23.67s-11.67,14-15,22S122.33,409.4,121,411.4c0,0,8.67,8,12.67,9.34s15,3.33,15,3.33,6-17.67,11-28.33,14-24.67,17.33-33.67,4-16.67,4.67-19S184,332.4,184,332.4Z" style="fill:#4A9CBF;stroke:#263238;stroke-linecap:round;stroke-linejoin:round"></path><path d="M125.67,273.74s2.66,18,4.66,26.33,11.34,24.67,18.34,33,24,24.67,24,24.67a46.34,46.34,0,0,1,8.66,20.66c1.67,12,6.34,47.34,7.67,50.34s8,3.66,14.67,2.33,15.66-1.33,16.33-5-8.67-52.33-9.33-62.33-7.67-25.34-9.34-30-7-15.34-7-15.34,4-21.66,6.34-26.33,4.66-15.33,4.66-19.67-17.33,1.67-39-2-36.66-4-39-4S125.67,273.74,125.67,273.74Z" style="fill:#4A9CBF;stroke:#263238;stroke-linecap:round;stroke-linejoin:round"></path><path d="M155.33,293.74s18.34.33,23,7.33" style="fill:none;stroke:#263238;stroke-linecap:round;stroke-linejoin:round"></path><path d="M171,292.07s7.67,2.67,9.33,6.67" style="fill:none;stroke:#263238;stroke-linecap:round;stroke-linejoin:round"></path><line x1="194.33" y1="318.4" x2="183.33" y2="304.07" style="fill:none;stroke:#263238;stroke-linecap:round;stroke-linejoin:round"></line><path d="M203.5,431.24A1.5,1.5,0,0,1,202,430c-.09-.53-8.85-53.46-10.17-63-1-7.56-3.93-15.35-8.81-23.78-3.33-5.75-26.79-35.13-30.15-39.32a20.06,20.06,0,0,1-5.23-1.09,2,2,0,0,1-1.09-1.39c-.28-1.32.71-2.6,1.9-4.07a15.77,15.77,0,0,1-4.9-.45,2.54,2.54,0,0,1-2-1.91c-.32-1.68,1.34-3,3.1-4.41a15.23,15.23,0,0,0,1.68-1.47c.08-1.05-1.44-5-3.32-8.62a1.5,1.5,0,0,1,2.66-1.39c3.14,6,4.24,9.89,3.29,11.47a10.21,10.21,0,0,1-2.44,2.35c-.43.35-1,.84-1.49,1.25a16.4,16.4,0,0,0,3.74.17c1.67,0,2.88-.08,3.53.93a1.86,1.86,0,0,1,.05,1.87,12.46,12.46,0,0,1-1.4,1.94c-.28.35-.72.88-1,1.32a30.51,30.51,0,0,0,3.88.57,1.47,1.47,0,0,1,1.05.56c1.1,1.37,27.11,33.82,30.79,40.18,5.09,8.79,8.09,16.92,9.19,24.88,1.31,9.54,10.07,62.43,10.16,63a1.5,1.5,0,0,1-1.23,1.73ZM146.31,289.13Z" style="fill:#263238"></path><path d="M156.67,161.4s-23.67,14-27.67,23-3,43.67-5.33,49.67-6,41-2.35,45.34,19.33,11,47,10,37.33-5,40-9.33,6.35-25.68,1.68-39.34-10-27-10.67-30.67-5.33-15-8-22.33S184,176.07,183,174.07,165.33,157.74,156.67,161.4Z" style="fill:#263238;stroke:#263238;stroke-linecap:round;stroke-linejoin:round"></path><path d="M212.23,247.57a20.21,20.21,0,0,1,0,3.9" style="fill:none;stroke:#fff;stroke-linecap:round;stroke-linejoin:round"></path><path d="M198.37,207.73s5.61,9,6,11.59,1.12,6.36,1.12,6.36a84.94,84.94,0,0,1,6.21,17.94" style="fill:none;stroke:#fff;stroke-linecap:round;stroke-linejoin:round"></path><path d="M177.39,196.46c5.63,6.38,8.25,9.39,10.5,2.26,1.25-3.95,1.46-10.31,1.4-15.21-2.14-3.13-4.13-5.28-4.77-6.56-1.13-2.25-19.89-18.39-29.65-14.26,0,0-2.87,1.69-6.86,4.32C155.05,173.89,172.9,191.38,177.39,196.46Z" style="fill:#fff;stroke:#263238;stroke-linecap:round;stroke-linejoin:round"></path><path d="M195.66,120.4s4.79,11.89,4.62,13.87-2.64,3.47-2.64,4.63,4.3,5.78,4.46,8.09a3.86,3.86,0,0,1-2.48,4.13,8.38,8.38,0,0,1-2.64.5s.49,7.93.33,10.74-.66,4.62-3,5.78a12.74,12.74,0,0,1-4.13,1.32s-1,7.93-2.15,11.23-1.32,5.62-4.3,8.1-3.8,2-10.73-4.13-13.55-15.7-15.37-17.51L155,164.5s-2.15,0-3-4.46a10,10,0,0,1,1.65-7.59s-4.3-6.45-4.63-11.73,6.45-14.87,12.89-19.5,15.2-4.79,22.3-4A34.63,34.63,0,0,1,195.66,120.4Z" style="fill:#fff;stroke:#263238;stroke-linecap:round;stroke-linejoin:round"></path><path d="M197,151.62s-6.44-.66-9.75,1.16-4.79,6.44-2.81,7.1,12.39-2,14.87-1.32S200.12,153.44,197,151.62Z" style="fill:#c7c7c7;stroke:#8a8a8a;stroke-linecap:round;stroke-linejoin:round"></path><path d="M194.34,133.28s-2-2.81-5-1.48-2.81,3-2.81,3" style="fill:none;stroke:#263238;stroke-linecap:round;stroke-linejoin:round;stroke-width:2px"></path><path d="M183.1,137.08s-.49,6.78,1.32,7.44,7.93.82,9.75-.33,1.82-7.11.83-7.77-10.58-.16-10.58-.16S183.1,135.76,183.1,137.08Z" style="fill:none;stroke:#263238;stroke-linecap:round;stroke-linejoin:round"></path><line x1="182.94" y1="139.23" x2="166.75" y2="142.53" style="fill:none;stroke:#263238;stroke-linecap:round;stroke-linejoin:round"></line><line x1="196.15" y1="138.57" x2="197.64" y2="138.57" style="fill:none;stroke:#263238;stroke-linecap:round;stroke-linejoin:round"></line><path d="M200.12,136.09h4.95a4.83,4.83,0,0,1,.33,2.31c0,1.82.5,4.46-.33,5s-4.13.33-4.13.33" style="fill:none;stroke:#263238;stroke-linecap:round;stroke-linejoin:round"></path><path d="M192,139.56a10.53,10.53,0,0,0-3,.5" style="fill:none;stroke:#263238;stroke-linecap:round;stroke-linejoin:round"></path><path d="M192.19,140.55a14.67,14.67,0,0,1-3.8,1.49" style="fill:none;stroke:#263238;stroke-linecap:round;stroke-linejoin:round"></path><path d="M194.62,109.66a4.73,4.73,0,0,0-1.94-4.29v-.09a4.19,4.19,0,0,0-7.48-2.62,4.34,4.34,0,0,0-8-.78,4.52,4.52,0,0,0-7.23,2.67,4.86,4.86,0,0,0-9,2.42,5.08,5.08,0,0,0-8.85,1.7,6.46,6.46,0,0,0-1.4-.17,6.12,6.12,0,0,0-6.12,6.12,4.89,4.89,0,0,0,0,.54,5.56,5.56,0,0,0-3.9,9.06,7,7,0,0,0-.31,12.87,5.83,5.83,0,0,0,3.53,7.75,5.76,5.76,0,0,0,7.34,8,3.93,3.93,0,0,0,6.69-1.61,3.64,3.64,0,0,0,1.49-2.23c.33-1.66.33-5,2-5.62s4.66.67,4.66.67,7-2.73,6.64-5.08a14.86,14.86,0,0,0-1.18-3.9s5.08-2,5.86-5.08-2.34-7.81-2.34-7.81,6.64-2.73,10.15-2.73,7.42,0,8.59.39,3.13.78,4.3-2.74S194.62,109.66,194.62,109.66Z" style="fill:#c7c7c7;stroke:#8a8a8a;stroke-linecap:round;stroke-linejoin:round"></path><path d="M168.85,146.76s-4.29-9-9-7-5.08,7-2.73,12.5S168.07,155,168.07,155" style="fill:#fff;stroke:#263238;stroke-linecap:round;stroke-linejoin:round"></path><path d="M181.55,268.08s8.4-1.6,11.2-3.2,7.21-.4,8.41.8a7.86,7.86,0,0,1,1.6,3.6,4.83,4.83,0,0,1,2.8,5.2c-.4,4-3.6,4-3.6,4s.8,4-7.2,6-18.42-6-19.22-7.2S181.55,268.08,181.55,268.08Z" style="fill:#fff;stroke:#263238;stroke-linecap:round;stroke-linejoin:round"></path><path d="M141.92,176.82s-12,5.2-16,10.41-32,46-33.22,51.23,2.8,6.4,5.2,9.61,46.83,28.82,54,30.82,9.6,5.2,13.61,1.2,11.2-12,8.4-19.22-12.41-10.4-18.81-14.4-16.41-10.81-16.41-10.81,20.41-20,23.61-26a19.12,19.12,0,0,0,1.2-16" style="fill:#263238;stroke:#263238;stroke-linecap:round;stroke-linejoin:round"></path><path d="M163.33,207.06a18.89,18.89,0,0,1-1.87,3.91C159.05,214.58,140.6,235,140.6,235s34.1,20.06,34.5,21.67a20.6,20.6,0,0,1,.4,4" style="fill:none;stroke:#fff;stroke-linecap:round;stroke-linejoin:round"></path><path d="M165.07,200.54s-.18,1-.55,2.52" style="fill:none;stroke:#fff;stroke-linecap:round;stroke-linejoin:round"></path><path d="M121.21,236c3.69-1.14,8.34-2.12,12.3-1.52" style="fill:none;stroke:#fff;stroke-linecap:round;stroke-linejoin:round"></path><path d="M114.7,238.46s.85-.41,2.24-1" style="fill:none;stroke:#fff;stroke-linecap:round;stroke-linejoin:round"></path><path d="M124.71,232.06s9.61-1.61,12.81,1.6" style="fill:none;stroke:#fff;stroke-linecap:round;stroke-linejoin:round"></path><path d="M173.94,260.87l9.69,4.85a1.55,1.55,0,0,1,.63,2.2l-6.77,11a1.55,1.55,0,0,1-2,.57l-8.34-4.17Z" style="fill:#fff;stroke:#263238;stroke-linecap:round;stroke-linejoin:round"></path></g><g id="freepik--Floor--inject-75"><line x1="18" y1="464.73" x2="483" y2="464.73" style="fill:none;stroke:#263238;stroke-linecap:round;stroke-linejoin:round;stroke-width:2px"></line></g></svg>