<svg width="500" height="500" viewBox="0 0 500 500" fill="none" xmlns="http://www.w3.org/2000/svg">
<path d="M315.236 458.598C361.377 458.598 398.782 437.005 398.782 410.369C398.782 383.733 361.377 362.14 315.236 362.14C269.094 362.14 231.689 383.733 231.689 410.369C231.689 437.005 269.094 458.598 315.236 458.598Z" fill="#F0F0F0"/>
<path d="M119.547 456.562C165.688 456.562 203.093 434.97 203.093 408.334C203.093 381.698 165.688 360.105 119.547 360.105C73.4051 360.105 36 381.698 36 408.334C36 434.97 73.4051 456.562 119.547 456.562Z" fill="#F0F0F0"/>
<path d="M365.302 230.922L320.366 234.078L329.329 296.543C327.383 297.397 325.573 298.535 323.959 299.918C316.377 306.64 312.524 313.43 308.056 320.015C298.807 333.678 294.079 340.181 287.849 347.231C285.119 348.76 282.499 350.476 280.007 352.368C278.326 353.598 272.506 359.582 270.908 361.044C269.309 362.506 272.574 367.397 274.911 371.523C277.088 375.179 278.288 379.334 278.395 383.587C278.788 387.869 280.239 391.987 282.616 395.569C285.54 400.392 289.215 402.565 293.096 405.27C295.924 407.251 303.67 408.822 303.834 403.384C304.012 397.578 300.76 393.52 298.506 385.445C295.924 376.237 297.891 367.138 302.823 362.998C307.756 358.858 310.16 356.781 315.379 352.56C329.274 341.302 332.649 338.146 344.795 328.295C351.285 323.035 354.359 320.029 360.275 314.865C363.349 312.351 365.78 309.142 367.367 305.502C368.954 301.862 369.651 297.896 369.401 293.933L365.302 230.922Z" fill="#AF6152"/>
<path d="M280.048 352.368C278.367 353.598 272.547 359.582 270.949 361.044C269.35 362.506 272.615 367.397 274.952 371.523C277.129 375.179 278.329 379.333 278.436 383.587C278.829 387.869 280.28 391.987 282.657 395.569C285.581 400.392 289.256 402.564 293.137 405.27C295.965 407.251 303.711 408.822 303.875 403.384C304.053 397.578 300.801 393.52 298.547 385.445C295.965 376.237 297.932 367.137 302.864 362.998C307.797 358.858 310.201 356.781 315.42 352.559C328.072 342.313 332.007 338.774 341.789 330.781C331.706 328.24 320.926 314.755 319.738 304.098C314.805 309.44 311.636 314.796 308.097 320.015C298.848 333.678 294.12 340.181 287.89 347.231C285.16 348.76 282.54 350.476 280.048 352.368Z" fill="#37474F"/>
<path d="M333.537 337.599L336.87 334.866C326.774 332.926 317.169 320.63 314.628 310.438C313.699 311.708 312.824 312.979 311.977 314.236C314.819 324.018 323.905 335.454 333.537 337.599ZM330.34 340.332C321.172 337.9 312.578 327.256 309.627 317.802C309.122 318.553 308.616 319.319 308.097 320.07C307.742 320.616 307.4 321.122 307.045 321.627C310.256 330.699 318.33 340.55 327.033 343.091L330.34 340.332Z" fill="#4A9CBF"/>
<path d="M301.894 406.65C302.14 406.896 299.982 409.97 297.55 409.778C294.721 409.56 287.986 407.21 282.685 400.433C277.384 393.657 276.714 390.801 276.154 386.402C275.594 382.002 275.307 377.712 273.107 374.406C271.058 371.332 268.093 366.482 268.011 364.911C267.929 363.339 271.263 359.992 271.263 359.992L301.894 406.65Z" fill="#263238"/>
<path d="M287.603 347.34C287.369 347.113 287.066 346.971 286.741 346.937C286.417 346.902 286.09 346.977 285.813 347.149C284.734 347.914 281.933 350.469 280.061 351.63C276.378 354.392 273.083 357.636 270.265 361.276C268.899 363.367 273.217 369.679 274.952 373.299C276.66 377.081 277.722 381.122 278.094 385.254C278.95 390.953 281.568 396.242 285.581 400.379C290.322 404.969 297.017 408.685 300.227 407.743C304.217 406.568 306.813 404.259 302.796 394.244C302.045 392.345 300.159 386.046 299.49 383.478C298.738 380.745 299.093 378.245 298.902 375.431C298.731 373.339 299.138 371.241 300.077 369.364C300.689 368.376 301.355 367.423 302.072 366.509C302.287 366.252 302.437 365.948 302.509 365.621C302.618 364.842 301.607 363.927 301.143 363.367C300.456 362.502 299.717 361.681 298.93 360.907C297.923 359.898 296.845 358.962 295.705 358.107C294.68 357.328 293.519 356.303 292.126 356.631C291.539 356.797 291.016 357.135 290.623 357.601C290.222 358.056 289.793 358.485 289.338 358.885C289.172 359.025 288.967 359.111 288.751 359.131C288.286 359.131 288.095 358.571 288.054 358.202C288.013 356.833 288.077 355.463 288.245 354.103C288.245 353.379 287.043 351.671 286.879 350.947C286.677 350.316 286.513 349.672 286.387 349.021C286.415 348.242 287.111 347.914 287.603 347.34Z" fill="#37474F"/>
<path d="M278.094 385.268C277.875 383.384 277.551 381.514 277.124 379.666C277.124 379.666 281.865 389.845 287.262 390.897C290.732 391.566 291.361 388.834 291.811 388.233C292.262 387.631 299.777 390.432 302.072 392.222C302.359 393.096 302.605 393.834 302.782 394.271C306.799 404.286 304.149 406.568 300.214 407.77C297.003 408.713 291.606 406.609 285.513 400.625C281.527 396.385 278.937 391.025 278.094 385.268Z" fill="#455A64"/>
<path d="M292.768 386.033C295.5 391.99 292.918 390.965 291.538 389.94C290.158 388.916 287.275 379.461 286.073 371.633C284.802 363.435 284.31 355.702 283.819 352.683C283.641 351.562 283.518 350.264 283.436 349.103C284.42 348.283 285.308 347.518 285.827 347.163C286.149 346.991 286.51 346.907 286.875 346.919C287.239 346.931 287.594 347.038 287.904 347.231L286.606 348.529C286.639 349.36 286.82 350.179 287.139 350.947C287.727 351.93 288.109 353.023 288.259 354.158C288.091 355.517 288.027 356.888 288.068 358.257C287.426 366.646 290.021 380.131 292.768 386.033Z" fill="#263238"/>
<path d="M291.825 389.011C291.725 388.916 291.658 388.792 291.634 388.656C291.622 388.581 291.626 388.504 291.644 388.43C291.663 388.355 291.696 388.286 291.742 388.225C291.788 388.164 291.845 388.112 291.911 388.074C291.977 388.035 292.05 388.01 292.126 388C294.163 387.987 296.18 388.402 298.047 389.219C299.913 390.036 301.587 391.236 302.96 392.741C303.072 392.854 303.135 393.006 303.135 393.165C303.135 393.323 303.072 393.476 302.96 393.588C302.901 393.639 302.833 393.677 302.758 393.7C302.684 393.722 302.606 393.73 302.529 393.721C302.452 393.712 302.378 393.687 302.311 393.647C302.244 393.608 302.186 393.555 302.14 393.493C300.889 392.146 299.376 391.069 297.694 390.329C296.012 389.589 294.196 389.201 292.358 389.189C292.261 389.205 292.162 389.197 292.069 389.166C291.977 389.135 291.893 389.082 291.825 389.011Z" fill="#F0F0F0"/>
<path d="M289.994 383.205C289.887 383.115 289.819 382.988 289.803 382.849C289.787 382.774 289.787 382.696 289.803 382.62C289.819 382.545 289.851 382.473 289.895 382.41C289.94 382.347 289.998 382.294 290.064 382.255C290.131 382.215 290.204 382.19 290.281 382.18C292.317 382.117 294.343 382.485 296.226 383.259C298.11 384.034 299.809 385.198 301.211 386.675C301.266 386.73 301.31 386.795 301.339 386.866C301.369 386.938 301.384 387.014 301.384 387.092C301.384 387.169 301.369 387.246 301.339 387.317C301.31 387.389 301.266 387.454 301.211 387.508C301.159 387.565 301.095 387.61 301.025 387.64C300.954 387.671 300.878 387.687 300.801 387.687C300.724 387.687 300.648 387.671 300.578 387.64C300.507 387.61 300.444 387.565 300.391 387.508C299.118 386.183 297.584 385.135 295.887 384.429C294.19 383.724 292.365 383.377 290.527 383.41C290.428 383.422 290.328 383.41 290.235 383.374C290.142 383.339 290.059 383.28 289.994 383.205Z" fill="#F0F0F0"/>
<path d="M288.71 377.398C288.609 377.3 288.545 377.17 288.532 377.029C288.521 376.955 288.525 376.878 288.543 376.805C288.562 376.732 288.595 376.663 288.641 376.603C288.687 376.543 288.745 376.493 288.811 376.456C288.877 376.419 288.949 376.395 289.024 376.387C291.06 376.372 293.076 376.787 294.94 377.604C296.805 378.421 298.476 379.622 299.845 381.128C299.953 381.24 300.013 381.389 300.013 381.545C300.013 381.7 299.953 381.849 299.845 381.961C299.785 382.011 299.716 382.049 299.642 382.072C299.567 382.095 299.489 382.103 299.411 382.095C299.334 382.087 299.258 382.064 299.19 382.027C299.121 381.99 299.061 381.94 299.012 381.879C297.767 380.526 296.255 379.444 294.571 378.704C292.887 377.963 291.069 377.579 289.229 377.576C289.135 377.588 289.039 377.579 288.949 377.548C288.859 377.517 288.777 377.466 288.71 377.398Z" fill="#F0F0F0"/>
<path d="M288.15 372.603C288.052 372.506 287.986 372.382 287.958 372.247C287.943 372.173 287.942 372.096 287.958 372.021C287.973 371.946 288.003 371.875 288.046 371.812C288.09 371.75 288.146 371.697 288.21 371.656C288.275 371.616 288.348 371.589 288.423 371.578C290.443 371.486 292.459 371.819 294.342 372.556C296.225 373.292 297.932 374.416 299.353 375.854C299.461 375.966 299.521 376.116 299.521 376.271C299.521 376.426 299.461 376.576 299.353 376.688C299.301 376.744 299.237 376.789 299.167 376.819C299.096 376.85 299.02 376.866 298.943 376.866C298.866 376.866 298.79 376.85 298.72 376.819C298.649 376.789 298.586 376.744 298.533 376.688C297.232 375.394 295.679 374.382 293.97 373.715C292.262 373.047 290.434 372.739 288.601 372.807C288.516 372.805 288.432 372.785 288.355 372.75C288.277 372.715 288.208 372.665 288.15 372.603Z" fill="#F0F0F0"/>
<path d="M287.576 367.083C287.471 366.997 287.403 366.875 287.385 366.741C287.367 366.667 287.364 366.589 287.378 366.514C287.391 366.438 287.419 366.366 287.462 366.302C287.504 366.238 287.559 366.183 287.623 366.141C287.688 366.099 287.76 366.071 287.835 366.058C291.442 365.498 296.607 367.67 299.613 371.031C299.721 371.146 299.782 371.297 299.782 371.455C299.782 371.613 299.721 371.764 299.613 371.878C299.559 371.933 299.495 371.976 299.425 372.006C299.355 372.035 299.279 372.051 299.203 372.051C299.126 372.051 299.051 372.035 298.98 372.006C298.91 371.976 298.846 371.933 298.793 371.878C296.06 368.859 291.292 366.81 288.095 367.301C287.997 367.317 287.896 367.305 287.804 367.266C287.712 367.228 287.633 367.164 287.576 367.083Z" fill="#F0F0F0"/>
<path d="M372.27 296.311C372.27 285.463 371.901 270.639 370.385 249.598C368.704 226.481 366.955 225.907 366.122 225.142L320.339 212.928L314.191 232.985L320.653 299.726C335.149 306.202 361.613 306.011 372.27 296.311Z" fill="#37474F"/>
<path d="M320.284 296.338C320.284 296.338 336.051 300.628 348.976 299.576C361.9 298.524 372.953 291.092 372.953 291.092L373.309 297.814C373.309 297.814 367.967 305.656 349.413 306.995C330.859 308.334 320.981 302.828 320.981 302.828L320.284 296.338Z" fill="#263238"/>
<path d="M382.463 415.653C377.845 411.91 372.53 412.033 364.551 408.822C355.465 405.188 349.303 397.892 348.989 391.348C348.675 384.803 348.497 381.524 348.306 374.652C347.801 356.358 347.322 351.658 346.872 335.645C346.516 323.349 346.872 320.862 345.123 301.694C344.18 290.914 344.057 279.547 342.677 259.654C342.677 259.654 348.019 258.547 356.463 247.467C361.012 241.51 364.66 227.725 364.66 227.725L289.516 231.154C288.803 239.244 289.157 247.393 290.568 255.391C292.836 269.505 305.037 308.962 310.939 324.073C310.283 340.673 313.931 350.196 317.347 360.375C322.716 376.401 325.052 384.284 326.911 393.725C326.448 396.892 326.21 400.088 326.2 403.289C326.2 405.406 327.416 413.864 327.566 416.063C327.785 418.481 333.769 418.659 338.578 419.329C342.904 419.828 347.027 421.438 350.547 424.001C354.274 426.34 358.522 427.719 362.911 428.018C368.65 428.633 372.694 426.993 377.325 425.518C380.673 424.52 386.78 419.206 382.463 415.653Z" fill="#C8856A"/>
<path d="M326.159 403.357C326.159 405.475 327.375 413.932 327.525 416.132C327.744 418.55 333.728 418.727 338.537 419.397C342.863 419.896 346.986 421.506 350.506 424.07C354.233 426.408 358.481 427.788 362.87 428.086C368.609 428.701 372.653 427.062 377.284 425.586C380.632 424.52 386.739 419.206 382.421 415.681C377.804 411.937 372.489 412.06 364.51 408.849C355.424 405.215 349.262 397.919 348.948 391.375C348.634 384.831 348.456 381.552 348.265 374.679C347.8 358.025 347.363 352.628 346.899 339.717C338.565 346.329 320.94 346.712 311.499 341.083C312.783 348.42 315.161 354.322 317.21 360.443C322.579 376.469 324.916 384.352 326.774 393.793C326.343 396.963 326.138 400.159 326.159 403.357Z" fill="#455A64"/>
<path d="M347.404 350.674C347.404 349.24 347.281 347.778 347.227 346.234C339.357 353.243 323.385 353.393 313.521 349.144C313.986 350.674 314.464 352.177 314.969 353.653C324.738 357.464 339.671 357.177 347.404 350.674ZM347.596 354.937C339.917 360.894 325.94 361.222 316.39 357.779C316.705 358.667 317.005 359.555 317.306 360.429C317.511 361.058 317.716 361.659 317.907 362.26C327.279 365.293 340.313 364.842 347.773 359.35C347.719 357.82 347.65 356.358 347.541 354.937H347.596Z" fill="#4A9CBF"/>
<path d="M383.87 419.329C384.225 419.329 385.386 422.949 383.719 424.794C381.793 426.952 375.727 430.914 366.887 431.078C358.047 431.242 355.342 429.931 351.421 427.663C347.5 425.395 343.825 422.936 339.767 422.676C335.996 422.43 330.203 421.829 328.837 420.913C327.471 419.998 326.856 415.216 326.856 415.216L383.87 419.329Z" fill="#263238"/>
<path d="M326.787 394.08C326.787 394.08 325.544 394.299 325.503 395.446C325.503 396.813 325.804 400.665 325.599 402.906C325.544 407.618 326.128 412.315 327.334 416.869C328.222 419.247 335.996 419.684 340.026 420.517C344.165 421.487 348.113 423.14 351.708 425.408C356.871 428.253 362.796 429.41 368.65 428.715C375.331 427.717 382.503 424.616 383.747 421.378C385.263 417.416 385.004 413.864 374.361 410.899C372.352 410.339 366.026 407.934 363.553 406.896C360.821 405.816 359.058 403.972 356.64 402.387C354.847 401.212 353.399 399.58 352.446 397.66C352.023 396.547 351.662 395.411 351.366 394.258C351.289 393.922 351.135 393.608 350.916 393.342C350.342 392.769 348.975 393.028 348.183 393.055C347.049 393.085 345.918 393.176 344.795 393.329C343.35 393.519 341.921 393.811 340.518 394.203C339.261 394.558 337.704 394.873 337.089 396.198C336.862 396.78 336.809 397.417 336.939 398.029C337.068 398.636 337.151 399.253 337.185 399.873C337.206 400.093 337.153 400.315 337.034 400.502C336.747 400.884 336.174 400.693 335.846 400.502C334.709 399.682 333.645 398.768 332.662 397.769C332.102 397.277 329.93 397.236 329.274 396.881C328.618 396.526 327.908 396.457 327.402 396.075C326.897 395.692 326.938 394.845 326.787 394.08Z" fill="#37474F"/>
<path d="M351.708 425.395C350.035 424.395 348.311 423.483 346.544 422.662C346.544 422.662 357.761 425.135 361.969 421.405C364.701 418.987 362.829 416.801 362.624 416.036C362.42 415.271 369.36 410.94 372.188 410.175C373.076 410.489 373.828 410.748 374.292 410.871C384.935 413.836 385.222 417.388 383.678 421.351C382.435 424.548 377.366 427.635 368.732 428.865C362.836 429.47 356.896 428.26 351.708 425.395Z" fill="#455A64"/>
<path d="M361.436 413.932C367.994 415.407 365.535 416.883 363.868 417.361C362.201 417.839 352.678 414.301 345.56 410.434C338.141 406.404 331.515 401.963 328.755 400.488C327.73 399.928 326.61 399.231 325.599 398.575C325.599 397.209 325.49 396.061 325.503 395.433C325.503 394.299 326.87 393.78 326.87 393.78L327.102 395.638C327.801 396.133 328.583 396.499 329.411 396.717C330.577 396.839 331.704 397.207 332.717 397.796C333.699 398.795 334.764 399.709 335.9 400.529C342.363 406.212 354.891 412.47 361.436 413.932Z" fill="#263238"/>
<path d="M363.28 416.555C363.14 416.579 362.995 416.555 362.87 416.487C362.801 416.45 362.741 416.399 362.692 416.338C362.643 416.277 362.608 416.206 362.587 416.131C362.567 416.055 362.562 415.976 362.573 415.899C362.584 415.822 362.611 415.747 362.652 415.681C363.906 414.015 365.498 412.632 367.322 411.622C369.146 410.613 371.163 409.998 373.24 409.819C373.399 409.812 373.554 409.866 373.674 409.97C373.794 410.075 373.869 410.221 373.882 410.38C373.886 410.459 373.874 410.538 373.846 410.613C373.818 410.687 373.775 410.755 373.72 410.813C373.665 410.87 373.599 410.916 373.526 410.947C373.453 410.978 373.374 410.994 373.295 410.994C371.424 411.176 369.61 411.738 367.966 412.648C366.321 413.557 364.88 414.794 363.731 416.282C363.68 416.357 363.614 416.421 363.536 416.468C363.458 416.515 363.371 416.545 363.28 416.555Z" fill="#F0F0F0"/>
<path d="M357.419 414.437C357.279 414.456 357.136 414.432 357.009 414.369C356.939 414.333 356.877 414.284 356.827 414.223C356.777 414.163 356.739 414.093 356.716 414.018C356.693 413.943 356.685 413.864 356.693 413.786C356.702 413.707 356.725 413.632 356.763 413.563C357.975 411.87 359.532 410.453 361.331 409.405C363.13 408.357 365.131 407.702 367.201 407.483C367.281 407.474 367.361 407.48 367.438 407.503C367.514 407.526 367.586 407.564 367.647 407.615C367.708 407.666 367.759 407.729 367.795 407.801C367.831 407.872 367.852 407.95 367.857 408.03C367.863 408.108 367.853 408.186 367.827 408.261C367.802 408.335 367.762 408.403 367.71 408.462C367.658 408.521 367.594 408.568 367.523 408.602C367.452 408.635 367.376 408.655 367.297 408.658C365.43 408.87 363.627 409.465 362 410.405C360.373 411.345 358.958 412.611 357.843 414.123C357.801 414.204 357.741 414.275 357.667 414.329C357.594 414.384 357.509 414.421 357.419 414.437Z" fill="#F0F0F0"/>
<path d="M351.886 411.855C351.775 411.87 351.662 411.854 351.559 411.809C351.457 411.764 351.368 411.692 351.304 411.601C351.239 411.509 351.2 411.402 351.192 411.29C351.184 411.179 351.207 411.067 351.257 410.967C352.513 409.303 354.104 407.923 355.929 406.915C357.753 405.908 359.769 405.296 361.846 405.12C361.925 405.114 362.004 405.124 362.079 405.149C362.154 405.174 362.224 405.214 362.283 405.266C362.343 405.318 362.392 405.382 362.427 405.453C362.462 405.523 362.483 405.601 362.488 405.68C362.494 405.758 362.483 405.837 362.457 405.912C362.43 405.986 362.389 406.054 362.335 406.112C362.281 406.17 362.216 406.216 362.144 406.247C362.071 406.279 361.993 406.295 361.914 406.294C360.044 406.473 358.231 407.034 356.586 407.941C354.941 408.848 353.499 410.082 352.35 411.568C352.301 411.649 352.233 411.718 352.152 411.767C352.072 411.817 351.98 411.847 351.886 411.855Z" fill="#F0F0F0"/>
<path d="M347.65 409.328C347.517 409.374 347.373 409.374 347.24 409.328C347.17 409.294 347.107 409.247 347.055 409.188C347.003 409.13 346.964 409.061 346.94 408.987C346.916 408.913 346.907 408.835 346.914 408.757C346.921 408.679 346.943 408.604 346.981 408.535C348.161 406.821 349.69 405.375 351.468 404.292C353.245 403.209 355.231 402.513 357.296 402.25C357.457 402.235 357.618 402.284 357.743 402.386C357.868 402.488 357.948 402.636 357.965 402.797C357.973 402.875 357.964 402.955 357.939 403.03C357.915 403.105 357.875 403.174 357.822 403.233C357.77 403.292 357.706 403.34 357.634 403.373C357.562 403.406 357.484 403.424 357.405 403.425C355.544 403.678 353.754 404.312 352.148 405.288C350.543 406.263 349.156 407.559 348.074 409.095C348.024 409.162 347.96 409.217 347.887 409.257C347.814 409.297 347.733 409.321 347.65 409.328Z" fill="#F0F0F0"/>
<path d="M342.814 406.376C342.681 406.423 342.536 406.423 342.404 406.376C342.333 406.343 342.27 406.296 342.219 406.237C342.167 406.179 342.128 406.11 342.103 406.036C342.079 405.962 342.07 405.884 342.077 405.806C342.084 405.728 342.107 405.653 342.144 405.584C343.92 402.291 348.907 399.449 353.498 399.108C353.657 399.092 353.816 399.139 353.941 399.239C354.065 399.338 354.147 399.482 354.167 399.641C354.173 399.72 354.163 399.799 354.138 399.874C354.113 399.949 354.073 400.019 354.021 400.078C353.969 400.138 353.905 400.187 353.834 400.222C353.763 400.257 353.686 400.278 353.607 400.283C349.508 400.583 344.822 403.22 343.237 406.13C343.189 406.2 343.126 406.258 343.053 406.301C342.98 406.343 342.898 406.369 342.814 406.376Z" fill="#F0F0F0"/>
<path d="M348.579 306.708C347.746 288.632 345.136 263.807 345.136 263.807C345.136 263.807 365.138 250.691 364.811 228.763L289.352 231.208C287.016 233.053 286.797 242.548 288.095 253.465C289.461 265.119 294.64 295.505 297.755 313.061C312.21 318.171 339.808 317.501 348.579 306.708Z" fill="#455A64"/>
<path d="M302.454 313.444C302.454 313.198 299.64 288.332 297.741 268.357L297.536 266.267C295.719 247.139 294.967 239.283 297.249 230.867L298.506 231.209C296.293 239.406 297.03 247.221 298.834 266.144L299.039 268.234C300.938 288.25 303.725 313.116 303.752 313.321L302.454 313.444Z" fill="#37474F"/>
<path d="M297.973 262.4H297.714V261.102H297.932C304.914 261.102 310.966 256.744 311.212 251.539L312.059 234.009H313.426L312.579 251.552C312.264 257.564 305.747 262.4 297.973 262.4Z" fill="#37474F"/>
<path d="M296.183 307.487C296.183 307.487 312.087 311.285 324.97 309.85C337.854 308.416 348.675 300.628 348.675 300.628L349.235 307.336C349.235 307.336 344.139 315.343 325.681 317.283C307.223 319.223 297.126 313.99 297.126 313.99L296.183 307.487Z" fill="#37474F"/>
<path d="M350.52 131.936C359.428 132.059 362.816 135.693 374.197 145.189C382.968 152.485 397.205 164.713 397.205 164.713C397.205 164.713 410.307 176.066 403.626 183.157C400.975 185.985 395.975 190.221 386.766 185.767C377.08 181.081 355.097 165.068 355.097 165.068L350.52 131.936Z" fill="#C8856A"/>
<path d="M387.449 156.365C384.717 161.83 383.064 168.579 383.788 173.17L394.404 162.24L387.449 156.365Z" fill="#AF6152"/>
<path d="M383.911 179.195C392.409 185.685 397.642 188.417 403.626 183.157C411.728 174.4 429.585 132.701 429.585 132.701L413.763 126.321C413.763 126.321 408.954 132.169 401.467 142.074C394.499 151.392 381.615 164.508 383.911 179.195Z" fill="#C8856A"/>
<path d="M349.727 131.677C354.695 131.253 359.633 132.777 363.499 135.926C368.458 139.669 386.302 154.698 386.302 154.698C385.601 159.752 383.806 164.592 381.041 168.88C376.423 176.012 371.601 177.569 371.601 177.569L352.842 164.303L349.727 131.677Z" fill="#4A9CBF"/>
<path opacity="0.3" d="M349.727 131.677C354.695 131.253 359.633 132.777 363.499 135.926C368.458 139.669 386.302 154.698 386.302 154.698C385.601 159.752 383.806 164.592 381.041 168.88C376.423 176.012 371.601 177.569 371.601 177.569L352.842 164.303L349.727 131.677Z" fill="white"/>
<path d="M289.448 225.511L289.352 231.263C289.352 231.263 304.736 240.827 335.272 237.562C365.33 234.296 366.559 226.235 366.559 226.235L366.177 220.115L289.448 225.511Z" fill="black"/>
<path d="M343.56 238.052C346.901 237.591 349.325 235.152 348.974 232.603C348.622 230.054 345.629 228.361 342.287 228.821C338.946 229.282 336.522 231.722 336.874 234.271C337.225 236.82 340.219 238.513 343.56 238.052Z" fill="#F0F0F0"/>
<path d="M288.642 183.553C288.71 175.356 282.493 159.043 282.193 155.559C281.578 148.55 281.756 142.292 290.5 138.084L311.731 130.351C311.731 130.351 324.984 129.723 333.591 129.996C339.346 130.436 345.033 131.518 350.547 133.221C355.397 137.06 364.209 146.678 366.095 166.352C366.368 169.208 366.505 174.55 367.461 189.893C368.24 203.023 369.715 217.382 366.245 219.951C343.893 232.711 312.128 231.454 289.516 225.416C282.056 223.353 288.478 200.413 288.642 183.553Z" fill="#4A9CBF"/>
<path d="M360.056 105.813C358.411 101.921 355.952 98.4272 352.842 95.5665C352.35 95.0883 351.831 94.5964 351.353 94.0773C351.899 92.9843 352.35 92.2328 352.35 92.2328C360.302 80.2097 357.515 67.4899 351.298 61.8199C345.724 56.7238 341.816 54.8247 331.283 55.4668C324.451 52.3791 323.085 52.2698 318.371 52.0102C311.831 51.856 305.368 53.4552 299.654 56.6418C294.394 59.8662 289.325 65.6591 287.699 71.5887C285.977 77.8871 286.223 84.0626 285.294 90.402C284.843 93.5171 283.177 96.2906 281.742 99.0778C279.337 103.723 278.121 109.721 279.843 114.803C281.209 118.998 285.308 122.509 289.68 122.263C289.101 121.539 288.696 120.693 288.495 119.788C288.294 118.884 288.302 117.945 288.519 117.044C289.212 119.35 290.44 121.459 292.102 123.202C293.763 124.944 295.812 126.27 298.082 127.072C302.655 128.65 307.637 128.568 312.155 126.84C311.822 126.608 311.542 126.308 311.335 125.959C311.127 125.611 310.997 125.221 310.953 124.818C310.953 124.654 317.497 123.629 318.139 123.52C319.328 123.329 320.53 123.124 321.719 122.878C322.707 124.067 323.841 125.127 325.093 126.034C326.558 127.116 328.212 127.913 329.971 128.384C334.787 129.681 339.906 129.236 344.426 127.127C347.054 126.07 349.186 124.059 350.396 121.498C351.013 122.824 351.226 124.301 351.011 125.747C353.097 125.413 355.058 124.537 356.698 123.206C358.338 121.875 359.6 120.136 360.357 118.164C361.811 114.156 361.703 109.747 360.056 105.813Z" fill="#263238"/>
<path d="M352.541 91.8503C352.951 95.2796 353.552 96.6185 354.003 102.166C354.596 107.132 353.431 112.15 350.711 116.347C347.678 120.733 341.803 123.424 335.928 124.067L334.561 124.203L334.794 132.264C336.064 137.661 334.794 141.445 331.241 146.05C322.741 143.678 314.886 139.419 308.261 133.589L305.692 107.958C305.692 107.958 304.326 110.937 299.257 109.721C295.965 108.928 292.863 103.86 294.284 99.3647C294.611 98.1362 295.374 97.0684 296.429 96.3598C297.485 95.6511 298.762 95.3498 300.022 95.5118C303.875 95.8807 304.121 100.895 306.662 100.116C309.204 99.3374 309.081 94.2959 309.395 92.0006C311.362 79.1304 320.667 70.8919 331.392 71.8483C341.365 67.6675 348.142 72.4494 350.711 79.7862C352.651 85.3059 352.091 87.8608 352.541 91.8503Z" fill="#C8856A"/>
<path d="M345.533 67.5582C350.178 81.6716 336.502 88.3799 336.502 88.3799C336.502 88.3799 338.934 79.7179 335.723 75.865C335.723 75.865 336.365 85.3195 326.159 89.5276C326.159 89.5276 328.577 82.6963 326.378 78.3789C326.378 78.3789 324.438 89.0221 308.357 91.5496C308.357 91.5496 306.485 74.1299 320.148 67.2029C324.09 65.1969 328.461 64.1809 332.884 64.2428C337.307 64.3047 341.648 65.4426 345.533 67.5582Z" fill="#263238"/>
<path d="M327.922 94.3914C327.977 94.9453 327.869 95.5033 327.61 95.9962C327.352 96.4891 326.954 96.8952 326.467 97.1641C325.979 97.433 325.424 97.5528 324.869 97.5087C324.314 97.4646 323.784 97.2585 323.345 96.916C322.907 96.5734 322.578 96.1096 322.401 95.582C322.223 95.0544 322.204 94.4863 322.347 93.9482C322.489 93.4101 322.787 92.9257 323.202 92.5552C323.618 92.1846 324.133 91.9442 324.684 91.8638C325.062 91.8161 325.447 91.8437 325.815 91.945C326.183 92.0463 326.527 92.2194 326.828 92.4543C327.129 92.6892 327.381 92.9813 327.568 93.3137C327.756 93.6461 327.876 94.0124 327.922 94.3914Z" fill="#263238"/>
<path d="M319.505 89.6369L324.615 86.9864C324.24 86.353 323.636 85.8874 322.928 85.685C322.22 85.4825 321.462 85.5586 320.808 85.8976C320.154 86.2367 319.655 86.8129 319.413 87.5082C319.171 88.2035 319.204 88.9652 319.505 89.6369Z" fill="#263238"/>
<path d="M343.032 83.2428L348.648 84.896C348.867 84.1513 348.781 83.3501 348.41 82.6686C348.038 81.987 347.411 81.481 346.667 81.2617C345.922 81.0425 345.121 81.1281 344.439 81.4996C343.758 81.8711 343.252 82.4982 343.032 83.2428Z" fill="#263238"/>
<path d="M327.047 105.936L335.778 107.849C335.678 108.431 335.462 108.987 335.143 109.484C334.823 109.981 334.406 110.408 333.918 110.74C333.429 111.071 332.878 111.301 332.299 111.415C331.719 111.528 331.123 111.524 330.545 111.401C329.366 111.124 328.341 110.398 327.688 109.378C327.035 108.358 326.805 107.123 327.047 105.936Z" fill="#AF6152"/>
<path d="M332.977 111.21C332.604 109.922 331.805 108.798 330.71 108.024C329.616 107.249 328.29 106.87 326.951 106.947C326.964 107.983 327.324 108.985 327.972 109.792C328.621 110.6 329.522 111.166 330.531 111.401C331.347 111.58 332.198 111.514 332.977 111.21Z" fill="#FFA8A7"/>
<path d="M348.812 91.3038C348.867 91.8576 348.759 92.4156 348.501 92.9085C348.242 93.4015 347.844 93.8076 347.357 94.0765C346.869 94.3453 346.314 94.4652 345.759 94.421C345.204 94.3769 344.674 94.1708 344.235 93.8283C343.797 93.4858 343.468 93.022 343.291 92.4944C343.113 91.9668 343.095 91.3987 343.237 90.8606C343.38 90.3225 343.677 89.8381 344.092 89.4675C344.508 89.097 345.023 88.8566 345.574 88.7762C345.952 88.7284 346.337 88.756 346.705 88.8573C347.073 88.9587 347.417 89.1318 347.718 89.3667C348.019 89.6016 348.271 89.8936 348.458 90.2261C348.646 90.5585 348.766 90.9247 348.812 91.3038Z" fill="#263238"/>
<path d="M335.081 90.3747L336.583 103.286L344.098 100.922L335.081 90.3747Z" fill="#AF6152"/>
<path d="M334.521 124.135C328.504 124.259 322.534 123.061 317.032 120.624C314.316 119.255 311.972 117.249 310.201 114.776C310.996 117.426 312.454 119.829 314.437 121.758C321.145 127.728 334.671 127.305 334.671 127.305L334.521 124.135Z" fill="#AF6152"/>
<path d="M331.282 55.4667C331.282 55.4667 296.935 59.7158 302.277 96.4545C301.609 95.9346 300.818 95.5957 299.982 95.4708C299.982 95.4708 296.566 79.9501 303.438 69.5802C310.31 59.2103 321.418 53.3354 331.282 55.4667Z" fill="#4A9CBF"/>
<path opacity="0.2" d="M361.204 169.317L361.408 169.385L361.531 169.221C362.898 167.432 364.141 165.601 365.398 163.756C363.977 165.369 362.583 167.008 361.217 168.675C359.386 167.978 357.569 167.309 355.752 166.598L350.287 164.617C350.069 163.77 349.85 162.923 349.618 162.09C351.817 161.598 354.017 161.078 356.203 160.518C358.389 159.958 360.876 159.33 363.198 158.674C360.812 159.047 358.435 159.457 356.066 159.904C353.689 160.341 351.325 160.819 348.976 161.27L348.525 161.365L348.634 161.83C348.894 162.909 349.139 163.989 349.413 165.068L349.481 165.314L349.727 165.396L355.465 167.363C357.364 168.101 359.304 168.689 361.204 169.317ZM324.41 163.715C324.561 165.246 324.697 166.762 324.875 168.292C321.596 170.041 318.303 171.749 315.065 173.566C311.991 172.596 308.903 171.64 305.802 170.752C308.844 171.963 311.904 173.129 314.983 174.249H315.12L315.256 174.181C318.727 172.5 322.156 170.697 325.599 168.934L325.872 168.798V168.47C325.722 166.694 325.517 164.918 325.326 163.142V162.691H324.888C321.582 162.95 318.276 163.183 314.983 163.51C311.69 163.838 308.384 164.139 305.091 164.535C308.407 164.462 311.718 164.344 315.024 164.18C318.139 164.125 321.281 163.907 324.438 163.715H324.41ZM354.932 183.389C354.472 183.292 354.058 183.041 353.757 182.679C353.703 182.595 353.661 182.503 353.634 182.406L353.511 181.996C353.443 181.736 353.375 181.449 353.307 181.176C352.787 178.935 352.364 176.64 351.872 174.345C351.38 172.05 350.943 169.795 350.396 167.514C350.547 169.85 350.82 172.159 351.134 174.468C351.448 176.777 351.845 179.058 352.364 181.299C352.432 181.586 352.5 181.873 352.582 182.16L352.705 182.597C352.767 182.777 352.854 182.948 352.965 183.103C353.385 183.657 353.992 184.041 354.673 184.182C355.854 184.459 357.072 184.542 358.28 184.428C360.619 184.264 362.933 183.843 365.179 183.171C362.881 183.467 360.569 183.636 358.252 183.676C357.138 183.729 356.021 183.632 354.932 183.389ZM325.408 181.914C325.371 183.654 324.845 185.349 323.891 186.805C323.642 187.111 323.333 187.362 322.983 187.543C322.633 187.724 322.249 187.831 321.855 187.857C320.954 187.953 320.038 188.048 319.123 188.171C315.561 188.733 311.963 189.035 308.357 189.073C307.519 189.023 306.73 188.663 306.143 188.062C305.544 187.423 305.08 186.671 304.777 185.849C304.178 184.142 303.837 182.355 303.766 180.548C303.656 182.388 303.85 184.235 304.34 186.013C304.618 186.923 305.083 187.766 305.706 188.486C306.366 189.24 307.28 189.726 308.275 189.852C311.931 189.943 315.589 189.709 319.205 189.155L321.937 188.855C322.451 188.807 322.95 188.655 323.403 188.409C323.857 188.162 324.255 187.826 324.574 187.42C325.163 186.64 325.573 185.739 325.776 184.783C326 183.888 326.133 182.972 326.173 182.051C326.204 178.39 325.925 174.734 325.339 171.12C325.367 174.659 325.763 178.307 325.408 181.873V181.914Z" fill="black"/>
<path d="M284.324 141.705C278.217 144.151 274.993 144 271.181 158.36C267.082 173.648 267.082 175.93 263.557 206.11C260.975 228.08 270.184 227.397 277.466 224.924L291.128 188.554C291.128 188.554 292.495 183.267 294.476 174.167C297.591 159.685 291.306 144.028 284.324 141.705Z" fill="#C8856A"/>
<path d="M291.115 188.226C285.13 193.035 275.649 199.812 269.555 207.149C269.555 207.149 270.443 201.752 278.313 194.47C282.652 190.372 287.323 186.638 292.276 183.307L291.115 188.226Z" fill="#AF6152"/>
<path d="M298.943 166.994C300.651 156.966 294.148 141.036 287.33 139.054C277.479 142.607 273.667 145.408 270.634 157.909C267.451 171.052 264.91 192.147 264.91 192.147C273.107 196.888 285.404 197.066 292.522 195.836L294.366 186.709L298.943 166.994Z" fill="#4A9CBF"/>
<path opacity="0.3" d="M298.943 166.994C300.651 156.966 294.148 141.036 287.33 139.054C277.479 142.607 273.667 145.408 270.634 157.909C267.451 171.052 264.91 192.147 264.91 192.147C273.107 196.888 285.404 197.066 292.522 195.836L294.366 186.709L298.943 166.994Z" fill="white"/>
<path d="M277.466 224.924C282.248 223.284 285.458 221.358 290.322 216.876C296.293 211.411 299.053 206.11 302.359 201.848C304.282 199.46 306.335 197.18 308.507 195.016C309.586 193.937 311.677 191.655 312.606 190.603C314.363 188.384 315.705 185.866 316.568 183.171C317.451 180.53 317.625 177.703 317.073 174.973C316.896 174.181 316.609 173.416 316.472 172.623C316.267 171.53 316.472 170.383 316.336 169.276C315.939 166.926 314.792 167.022 314.464 165.095C314.136 163.169 313.849 160.614 312.606 159.507C311.677 158.688 310.324 158.688 308.316 158.537C308.589 159.712 308.903 161.365 309.231 163.032C308.89 165.97 308.753 167.049 307.182 169.29C304.449 173.252 301.949 175.356 301.553 174.591C301.157 173.826 302.181 171.353 301.635 167.445C301.088 163.538 299.982 162.171 298.766 161.912C296.839 161.502 296.935 163.579 296.252 166.735C295.446 170.506 293.915 172.623 293.929 178.143C293.929 182.98 294.148 182.72 292.303 185.657C290.531 187.804 288.599 189.813 286.524 191.669C279.187 196.97 270.962 202.039 267.888 211.043C264.814 220.046 266.768 226.591 277.466 224.924Z" fill="#C8856A"/>
<path d="M405.515 173.405C409.7 170.608 412.299 167.927 415.84 162.347C420.196 155.532 421.503 149.686 423.601 144.711C424.845 141.906 426.24 139.173 427.78 136.523C428.544 135.203 429.975 132.459 430.601 131.203C431.728 128.604 432.379 125.819 432.524 122.982C432.701 120.193 432.15 117.402 430.925 114.889C430.553 114.163 430.082 113.492 429.749 112.756C429.274 111.746 429.179 110.579 428.766 109.538C427.787 107.354 426.707 107.736 425.901 105.947C425.096 104.157 424.17 101.747 422.692 100.985C421.589 100.422 420.288 100.763 418.317 101.123C418.878 102.196 419.601 103.723 420.341 105.26C420.759 108.201 420.902 109.284 419.96 111.857C418.339 116.396 416.468 119.07 415.892 118.426C415.316 117.783 415.673 115.121 414.153 111.462C412.633 107.802 411.221 106.754 409.985 106.808C408.027 106.894 408.647 108.888 408.792 112.127C408.976 115.995 408.042 118.438 409.459 123.799C410.689 128.499 410.834 128.191 409.806 131.51C408.646 134.043 407.298 136.482 405.773 138.808C400.061 145.807 393.436 152.805 392.768 162.329C392.1 171.852 395.644 177.72 405.515 173.405Z" fill="#C8856A"/>
<path d="M331.146 144.547L321.35 152.881C321.35 152.881 312.838 148.031 309.6 143.467C304.518 136.308 303.425 132.442 303.425 132.442L307.264 124.244C307.264 124.244 308.275 131.8 313.344 135.325C318.986 138.932 324.944 142.019 331.146 144.547Z" fill="#4A9CBF"/>
<path opacity="0.3" d="M331.146 144.547L321.35 152.881C321.35 152.881 312.838 148.031 309.6 143.467C304.518 136.308 303.425 132.442 303.425 132.442L307.264 124.244C307.264 124.244 308.275 131.8 313.344 135.325C318.986 138.932 324.944 142.019 331.146 144.547Z" fill="white"/>
<path d="M331.146 144.547L341.939 147.279C341.428 143.368 340.708 139.487 339.781 135.652C338.565 131.226 334.493 125.938 334.493 125.938L334.425 131.526C334.425 131.526 334.22 139.054 331.146 144.547Z" fill="#4A9CBF"/>
<path opacity="0.3" d="M331.146 144.547L341.939 147.279C341.428 143.368 340.708 139.487 339.781 135.652C338.565 131.226 334.493 125.938 334.493 125.938L334.425 131.526C334.425 131.526 334.22 139.054 331.146 144.547Z" fill="white"/>
<path d="M151.599 236.882L106.799 241.609L117.948 303.733C116.029 304.646 114.256 305.838 112.688 307.272C105.351 314.267 101.758 321.18 97.5087 327.929C88.7374 341.92 84.2287 348.574 78.2581 355.828C75.5775 357.467 73.0162 359.293 70.5934 361.293C68.9676 362.578 63.3523 368.753 61.8084 370.283C60.2645 371.814 63.6938 376.568 66.1668 380.612C68.4764 384.189 69.8181 388.303 70.0606 392.553C70.6153 396.821 72.2157 400.885 74.7195 404.385C77.7936 409.085 81.5508 411.134 85.5266 413.703C88.4231 415.588 96.2108 416.886 96.1971 411.449C96.1971 405.642 92.7678 401.694 90.2266 393.687C87.3438 384.574 88.9969 375.421 93.7652 371.103C98.5334 366.786 100.883 364.641 105.952 360.173C119.451 348.451 122.703 345.144 134.507 334.897C140.819 329.432 143.757 326.317 149.536 320.948C152.501 318.318 154.8 315.022 156.244 311.332C157.688 307.641 158.236 303.66 157.843 299.716L151.599 236.882Z" fill="#9A4A4D"/>
<path d="M70.5934 361.239C68.9676 362.523 63.3523 368.699 61.8084 370.229C60.2645 371.759 63.6938 376.514 66.1668 380.558C68.4764 384.134 69.8181 388.248 70.0606 392.499C70.6153 396.766 72.2157 400.831 74.7195 404.331C77.7936 409.03 81.5508 411.08 85.5266 413.648C88.4231 415.534 96.2108 416.832 96.1971 411.394C96.1971 405.587 92.7678 401.639 90.2266 393.633C87.3438 384.52 88.9969 375.366 93.7652 371.048C98.5334 366.731 100.883 364.586 105.952 360.118C118.249 349.434 122.047 345.773 131.542 337.439C121.377 335.253 110.133 322.15 108.575 311.48C103.834 316.945 100.856 322.41 97.5087 327.793C88.7374 341.783 84.2287 348.437 78.2581 355.692C75.575 357.357 73.0136 359.21 70.5934 361.239Z" fill="#37474F"/>
<path d="M123.536 344.611L126.774 341.715C116.609 340.116 106.594 328.162 103.684 318.065C102.81 319.431 101.977 320.675 101.17 321.959C104.354 331.7 113.822 342.794 123.536 344.611ZM120.435 347.344C111.185 345.254 102.263 334.897 98.9434 325.552L97.5772 327.888C97.222 328.435 96.8941 328.954 96.5662 329.487C100.091 338.422 108.507 348 117.292 350.227L120.435 347.344Z" fill="#4A9CBF"/>
<path d="M94.3255 414.714C94.585 414.96 92.5357 418.116 90.0764 418.007C87.2619 417.884 80.5126 415.766 74.9109 409.181C69.3093 402.595 68.6125 399.767 67.8884 395.395C67.1643 391.023 66.7407 386.733 64.4317 383.495C62.2731 380.503 59.1443 375.762 58.9667 374.191C58.7891 372.62 62.0544 369.163 62.0544 369.163L94.3255 414.714Z" fill="#263238"/>
<path d="M77.9714 355.951C77.7259 355.736 77.4164 355.607 77.0905 355.585C76.7646 355.563 76.4404 355.648 76.168 355.828C75.1159 356.634 72.4107 359.285 70.5936 360.515C67.0043 363.399 63.8196 366.754 61.1255 370.488C59.8822 372.633 64.3635 378.782 66.2353 382.347C68.0763 386.068 69.2772 390.073 69.7875 394.193C70.8459 399.852 73.6449 405.039 77.7938 409.03C82.6987 413.457 89.5163 416.941 92.6997 415.862C96.6345 414.495 99.1484 412.146 94.7901 402.281C93.9703 400.409 91.8663 394.084 91.1148 391.638C90.2677 388.905 90.541 386.419 90.2404 383.618C90.0031 381.532 90.3385 379.421 91.2105 377.511C91.7875 376.504 92.4168 375.528 93.0959 374.587C93.3082 374.327 93.4495 374.016 93.5058 373.685C93.5877 372.893 92.5357 372.019 92.1395 371.486C91.4191 370.643 90.648 369.844 89.8305 369.095C88.7905 368.106 87.681 367.193 86.5105 366.362C85.4585 365.638 84.2699 364.654 82.8763 364.996C82.3002 365.189 81.7924 365.545 81.4144 366.021C81.0336 366.506 80.6181 366.962 80.1711 367.387C80.0186 367.546 79.8159 367.647 79.5973 367.674C79.1327 367.674 78.9141 367.127 78.8732 366.758C78.7616 365.394 78.7616 364.024 78.8732 362.66C78.8732 361.936 77.6025 360.269 77.5069 359.545C77.2807 358.92 77.0981 358.281 76.9604 357.632C76.8101 356.894 77.5069 356.539 77.9714 355.951Z" fill="#37474F"/>
<path d="M69.7874 394.193C69.5122 392.313 69.1244 390.452 68.6261 388.619C68.6261 388.619 73.7222 398.633 79.1463 399.48C82.6439 400.04 83.1494 397.281 83.6003 396.666C84.0511 396.051 91.6339 398.579 93.9975 400.3C94.3117 401.161 94.585 401.885 94.7763 402.322C99.1346 412.186 96.6207 414.618 92.6859 415.903C89.5025 416.955 84.0375 415.028 77.739 409.276C73.6092 405.179 70.8341 399.915 69.7874 394.193Z" fill="#455A64"/>
<path d="M84.4747 394.439C87.4395 400.3 84.8026 399.357 83.3954 398.387C81.9881 397.417 78.7638 388.099 77.3019 380.284C75.7443 372.169 74.9929 364.408 74.3917 361.416C74.1731 360.296 74.0092 359.025 73.8726 357.85C74.8426 356.99 75.7033 356.211 76.1952 355.828C76.5134 355.646 76.8737 355.55 77.2404 355.55C77.6071 355.55 77.9674 355.646 78.2856 355.828L77.0286 357.195C77.0892 358.026 77.2974 358.841 77.6434 359.599C78.2759 360.555 78.6953 361.636 78.8731 362.769C78.7616 364.133 78.7616 365.504 78.8731 366.868C78.4769 375.243 81.5236 388.578 84.4747 394.439Z" fill="#263238"/>
<path d="M83.6413 397.458C83.5394 397.365 83.472 397.24 83.45 397.103C83.4322 397.028 83.4303 396.951 83.4445 396.875C83.4587 396.799 83.4887 396.728 83.5326 396.664C83.5764 396.601 83.6331 396.548 83.6989 396.508C83.7648 396.468 83.8382 396.443 83.9146 396.434C85.94 396.355 87.9594 396.702 89.8422 397.453C91.725 398.203 93.4292 399.341 94.8446 400.792C94.8996 400.847 94.9432 400.912 94.9729 400.983C95.0027 401.055 95.018 401.131 95.018 401.209C95.018 401.286 95.0027 401.363 94.9729 401.434C94.9432 401.506 94.8996 401.571 94.8446 401.625C94.7922 401.682 94.7288 401.727 94.6582 401.757C94.5877 401.788 94.5117 401.804 94.4347 401.804C94.3578 401.804 94.2818 401.788 94.2113 401.757C94.1407 401.727 94.0773 401.682 94.0249 401.625C92.7356 400.322 91.1922 399.298 89.4906 398.617C87.789 397.935 85.9655 397.611 84.1332 397.663C84.0409 397.669 83.9486 397.654 83.8633 397.618C83.778 397.583 83.702 397.528 83.6413 397.458Z" fill="#F0F0F0"/>
<path d="M81.6055 391.706C81.5017 391.612 81.43 391.488 81.4005 391.351C81.3826 391.277 81.3803 391.201 81.3937 391.126C81.4071 391.051 81.4359 390.98 81.4784 390.917C81.5208 390.854 81.5759 390.801 81.6401 390.76C81.7043 390.719 81.7763 390.693 81.8514 390.682C83.8829 390.545 85.9203 390.84 87.8299 391.546C89.7395 392.253 91.4782 393.355 92.9318 394.78C93.0404 394.895 93.1009 395.046 93.1009 395.204C93.1009 395.362 93.0404 395.513 92.9318 395.628C92.8793 395.684 92.8159 395.729 92.7454 395.759C92.6749 395.79 92.5988 395.806 92.5219 395.806C92.445 395.806 92.3689 395.79 92.2984 395.759C92.2279 395.729 92.1644 395.684 92.112 395.628C90.7884 394.355 89.2181 393.368 87.498 392.726C85.7778 392.085 83.9444 391.803 82.111 391.898C82.0176 391.909 81.9229 391.897 81.8349 391.864C81.747 391.83 81.6683 391.776 81.6055 391.706Z" fill="#F0F0F0"/>
<path d="M80.13 385.941C80.0281 385.847 79.9607 385.722 79.9387 385.585C79.9208 385.511 79.9189 385.433 79.9331 385.357C79.9473 385.282 79.9774 385.21 80.0212 385.147C80.0651 385.084 80.1217 385.03 80.1876 384.991C80.2534 384.951 80.3269 384.925 80.4032 384.916C82.4286 384.837 84.4481 385.184 86.3308 385.935C88.2136 386.686 89.9178 387.823 91.3333 389.274C91.441 389.386 91.5011 389.536 91.5011 389.691C91.5011 389.846 91.441 389.996 91.3333 390.108C91.2809 390.164 91.2174 390.209 91.1469 390.24C91.0764 390.27 91.0003 390.286 90.9234 390.286C90.8465 390.286 90.7704 390.27 90.6999 390.24C90.6294 390.209 90.5659 390.164 90.5135 390.108C89.2195 388.8 87.6694 387.773 85.9604 387.091C84.2513 386.409 82.4199 386.087 80.5808 386.146C80.4954 386.145 80.411 386.127 80.3333 386.092C80.2556 386.056 80.1862 386.005 80.13 385.941Z" fill="#F0F0F0"/>
<path d="M79.406 381.172C79.3225 381.101 79.26 381.009 79.2252 380.905C79.1904 380.801 79.1847 380.69 79.2086 380.583C79.2325 380.476 79.2852 380.378 79.3609 380.299C79.4366 380.22 79.5325 380.163 79.6382 380.134C81.6637 379.964 83.7023 380.222 85.621 380.893C87.5397 381.564 89.2953 382.632 90.7732 384.028C90.8818 384.142 90.9424 384.294 90.9424 384.451C90.9424 384.609 90.8818 384.761 90.7732 384.875C90.7186 384.93 90.6537 384.974 90.5822 385.003C90.5107 385.033 90.434 385.048 90.3565 385.048C90.279 385.048 90.2024 385.033 90.1308 385.003C90.0593 384.974 89.9944 384.93 89.9398 384.875C88.604 383.616 87.0227 382.645 85.2949 382.025C83.567 381.404 81.7297 381.146 79.8978 381.268C79.8136 381.286 79.7267 381.287 79.6422 381.27C79.5577 381.254 79.4773 381.221 79.406 381.172Z" fill="#F0F0F0"/>
<path d="M78.668 375.68C78.5645 375.591 78.4926 375.472 78.4631 375.339C78.4451 375.265 78.4422 375.188 78.4546 375.114C78.467 375.039 78.4945 374.967 78.5354 374.903C78.5763 374.839 78.6297 374.785 78.6924 374.742C78.7551 374.699 78.8259 374.67 78.9003 374.655C82.4799 373.959 87.7263 375.953 90.8414 379.205C90.95 379.319 91.0106 379.471 91.0106 379.629C91.0106 379.786 90.95 379.938 90.8414 380.052C90.788 380.107 90.7242 380.15 90.6538 380.18C90.5834 380.209 90.5079 380.224 90.4315 380.224C90.3552 380.224 90.2796 380.209 90.2092 380.18C90.1388 380.15 90.0751 380.107 90.0216 380.052C87.2891 377.128 82.3433 375.243 79.0916 375.858C79.0123 375.861 78.9334 375.846 78.8602 375.816C78.7871 375.785 78.7215 375.739 78.668 375.68Z" fill="#F0F0F0"/>
<path d="M161.272 303.077C160.835 292.229 160.001 277.433 157.747 256.447C155.274 233.412 153.498 232.892 152.651 232.168L106.458 221.539L100.993 241.801L109.791 308.283C124.52 314.321 150.957 313.133 161.272 303.077Z" fill="#37474F"/>
<path d="M108.849 303.829C108.849 303.829 124.766 307.572 137.636 306.069C150.506 304.566 161.299 296.751 161.299 296.751L161.887 303.46C161.887 303.46 156.832 311.48 138.346 313.461C119.861 315.442 109.778 310.291 109.778 310.291L108.849 303.829Z" fill="#263238"/>
<path d="M175.153 420.89C170.412 417.296 165.097 417.611 157.009 414.7C147.814 411.394 141.393 404.358 140.86 397.786C140.327 391.214 140.027 387.99 139.589 381.118C138.442 362.865 137.8 358.178 136.789 342.193C136.01 329.965 136.228 327.424 133.865 308.324C132.499 297.585 132.034 286.231 129.957 266.393C129.957 266.393 135.258 265.109 143.306 253.728C147.637 247.621 150.711 234.095 150.711 234.095L75.7852 239.765C75.3607 247.874 75.9992 256.004 77.6843 263.948C80.4168 277.979 94.0794 316.986 100.446 331.878C100.446 348.505 104.34 357.837 108.111 367.947C114.027 383.768 116.636 391.57 118.836 400.929C118.483 404.103 118.355 407.299 118.453 410.492C118.453 412.624 120.038 421.026 120.312 423.226C120.612 425.63 126.596 425.603 131.433 426.109C135.772 426.454 139.947 427.918 143.552 430.358C147.362 432.558 151.655 433.788 156.053 433.937C161.805 434.347 165.794 432.571 170.358 430.932C173.678 429.825 179.593 424.305 175.153 420.89Z" fill="#B16668"/>
<path d="M118.454 410.574C118.454 412.706 120.038 421.108 120.312 423.308C120.612 425.712 126.596 425.685 131.433 426.191C135.772 426.536 139.947 428 143.552 430.44C147.362 432.64 151.655 433.87 156.053 434.019C161.805 434.429 165.794 432.653 170.358 431.013C173.678 429.825 179.594 424.305 175.153 420.944C170.412 417.351 165.098 417.665 157.009 414.755C147.814 411.449 141.393 404.412 140.86 397.841C140.327 391.269 140.027 388.045 139.59 381.172C138.551 364.545 137.923 359.176 137.048 346.278C128.96 353.178 111.322 354.175 101.731 348.847C103.261 356.129 105.829 361.949 108.111 367.974C114.027 383.796 116.636 391.597 118.836 400.956C118.481 404.149 118.353 407.363 118.454 410.574Z" fill="#455A64"/>
<path d="M137.854 357.195C137.745 355.76 137.622 354.312 137.513 352.768C129.889 360.036 113.945 360.761 103.944 356.867C104.449 358.397 104.982 359.872 105.542 361.334C115.434 364.764 130.34 363.971 137.854 357.195ZM138.182 361.457C130.723 367.66 116.773 368.48 107.114 365.378L108.111 368.002L108.781 369.805C118.249 372.538 131.255 371.609 138.524 365.843C138.415 364.313 138.305 362.865 138.182 361.457Z" fill="#4A9CBF"/>
<path d="M176.697 424.537C177.052 424.469 178.337 428.09 176.697 430.003C174.839 432.23 168.923 436.383 160.083 436.834C151.244 437.285 148.511 436.096 144.508 433.965C140.505 431.833 136.748 429.511 132.69 429.388C128.919 429.278 123.126 428.869 121.76 428.021C120.394 427.174 119.588 422.392 119.588 422.392L176.697 424.537Z" fill="#263238"/>
<path d="M118.754 401.297C118.428 401.359 118.131 401.526 117.909 401.773C117.687 402.02 117.552 402.333 117.525 402.664C117.525 404.03 118.016 407.869 117.88 410.123C117.992 414.834 118.741 419.508 120.107 424.018C121.063 426.355 128.864 426.532 132.909 427.229C137.078 428.048 141.082 429.558 144.754 431.697C150.014 434.364 155.975 435.319 161.805 434.429C168.445 433.2 175.468 429.811 176.629 426.573C177.995 422.556 177.626 419.018 166.887 416.422C164.865 415.944 158.458 413.689 155.957 412.815C153.225 411.818 151.353 410.082 148.894 408.539C147.051 407.433 145.544 405.846 144.535 403.948C144.07 402.857 143.668 401.739 143.333 400.601C143.25 400.263 143.081 399.952 142.841 399.699C142.254 399.152 140.901 399.453 140.109 399.508C138.978 399.574 137.851 399.701 136.734 399.89C135.296 400.136 133.877 400.479 132.485 400.915C131.242 401.325 129.753 401.68 129.124 403.033C128.926 403.623 128.898 404.257 129.042 404.863C129.187 405.466 129.292 406.078 129.356 406.694C129.388 406.918 129.34 407.145 129.22 407.336C128.96 407.719 128.373 407.555 128.031 407.336C126.875 406.57 125.783 405.711 124.766 404.768C124.178 404.303 122.033 404.331 121.35 404.003C120.705 403.79 120.071 403.544 119.451 403.265C118.795 402.828 118.945 402.049 118.754 401.297Z" fill="#37474F"/>
<path d="M144.754 431.71C143.053 430.776 141.301 429.937 139.507 429.196C139.507 429.196 150.806 431.273 154.878 427.393C157.487 424.893 155.575 422.761 155.342 422.01C155.11 421.259 161.9 416.682 164.77 415.821C165.671 416.108 166.423 416.326 166.887 416.436C177.626 419.031 178.022 422.57 176.629 426.587C175.508 429.825 170.549 433.09 161.969 434.62C156.068 435.432 150.06 434.416 144.754 431.71Z" fill="#455A64"/>
<path d="M154.086 419.92C160.685 421.163 158.294 422.652 156.627 423.267C154.96 423.882 145.355 420.603 138.1 416.982C130.586 413.211 123.755 409.003 121.022 407.623C119.984 407.104 118.836 406.448 117.798 405.834C117.702 404.467 117.593 403.32 117.593 402.677C117.593 401.543 118.959 400.983 118.959 400.983L119.26 402.841C119.977 403.304 120.766 403.641 121.596 403.839C122.766 403.923 123.906 404.248 124.943 404.795C125.958 405.741 127.05 406.6 128.209 407.364C134.753 412.87 147.487 418.69 154.086 419.92Z" fill="#263238"/>
<path d="M156.012 422.488C155.872 422.506 155.729 422.482 155.602 422.42C155.531 422.387 155.468 422.339 155.417 422.281C155.365 422.222 155.327 422.153 155.304 422.078C155.281 422.003 155.273 421.925 155.282 421.847C155.291 421.77 155.317 421.695 155.356 421.627C156.55 419.919 158.091 418.481 159.877 417.407C161.664 416.334 163.657 415.649 165.726 415.397C165.887 415.382 166.048 415.431 166.173 415.533C166.298 415.635 166.378 415.783 166.396 415.944C166.401 416.022 166.391 416.101 166.366 416.175C166.34 416.249 166.3 416.318 166.248 416.376C166.196 416.435 166.133 416.482 166.062 416.516C165.991 416.55 165.914 416.569 165.835 416.572C163.969 416.811 162.171 417.433 160.556 418.4C158.941 419.366 157.543 420.656 156.449 422.188C156.401 422.265 156.337 422.331 156.262 422.383C156.187 422.435 156.102 422.471 156.012 422.488Z" fill="#F0F0F0"/>
<path d="M150.082 420.562C149.95 420.609 149.805 420.609 149.673 420.562C149.601 420.53 149.536 420.483 149.483 420.425C149.43 420.367 149.39 420.299 149.364 420.225C149.338 420.15 149.328 420.072 149.334 419.993C149.34 419.915 149.363 419.839 149.399 419.769C150.554 418.037 152.061 416.567 153.822 415.456C155.583 414.345 157.558 413.617 159.619 413.321C159.779 413.305 159.94 413.351 160.067 413.45C160.194 413.55 160.278 413.694 160.302 413.853C160.313 414.011 160.262 414.166 160.16 414.286C160.058 414.406 159.913 414.482 159.756 414.496C157.896 414.781 156.114 415.444 154.521 416.445C152.927 417.446 151.556 418.764 150.492 420.316C150.447 420.385 150.387 420.443 150.316 420.486C150.245 420.529 150.165 420.554 150.082 420.562Z" fill="#F0F0F0"/>
<path d="M144.467 418.157C144.333 418.197 144.191 418.197 144.057 418.157C143.988 418.122 143.926 418.074 143.876 418.015C143.826 417.956 143.788 417.887 143.765 417.813C143.742 417.739 143.734 417.661 143.742 417.584C143.75 417.507 143.774 417.432 143.811 417.365C145.003 415.654 146.543 414.214 148.33 413.14C150.117 412.066 152.111 411.383 154.181 411.134C154.341 411.123 154.5 411.173 154.625 411.274C154.749 411.376 154.83 411.522 154.851 411.681C154.858 411.76 154.849 411.839 154.825 411.914C154.8 411.989 154.76 412.059 154.708 412.118C154.655 412.177 154.591 412.224 154.519 412.257C154.447 412.29 154.369 412.308 154.29 412.309C152.423 412.554 150.626 413.178 149.009 414.144C147.392 415.11 145.991 416.396 144.891 417.925C144.84 417.991 144.776 418.045 144.703 418.085C144.63 418.125 144.55 418.15 144.467 418.157Z" fill="#F0F0F0"/>
<path d="M140.15 415.807C140.016 415.847 139.874 415.847 139.74 415.807C139.667 415.776 139.601 415.731 139.547 415.673C139.492 415.616 139.45 415.548 139.423 415.474C139.396 415.399 139.385 415.32 139.39 415.241C139.395 415.162 139.417 415.085 139.453 415.015C140.571 413.261 142.048 411.765 143.785 410.623C145.523 409.481 147.483 408.719 149.536 408.388C149.694 408.365 149.854 408.405 149.982 408.5C150.11 408.594 150.195 408.736 150.219 408.894C150.231 408.972 150.226 409.052 150.205 409.129C150.183 409.206 150.147 409.277 150.097 409.339C150.047 409.4 149.984 409.451 149.914 409.487C149.843 409.523 149.765 409.545 149.686 409.55C147.835 409.866 146.07 410.561 144.499 411.591C142.929 412.62 141.588 413.963 140.56 415.534C140.514 415.606 140.455 415.667 140.384 415.714C140.313 415.761 140.233 415.793 140.15 415.807Z" fill="#F0F0F0"/>
<path d="M135.204 413.02C135.071 413.067 134.927 413.067 134.794 413.02C134.723 412.989 134.659 412.944 134.605 412.888C134.552 412.831 134.511 412.765 134.484 412.692C134.457 412.619 134.445 412.542 134.449 412.464C134.453 412.387 134.473 412.311 134.507 412.241C136.174 408.894 141.051 405.874 145.628 405.41C145.79 405.386 145.954 405.428 146.084 405.525C146.215 405.623 146.302 405.768 146.325 405.929C146.333 406.007 146.324 406.086 146.301 406.161C146.277 406.236 146.239 406.306 146.188 406.366C146.137 406.426 146.074 406.475 146.004 406.51C145.934 406.545 145.857 406.566 145.779 406.571C141.68 407.036 137.103 409.823 135.614 412.788C135.566 412.854 135.505 412.909 135.434 412.949C135.364 412.989 135.285 413.013 135.204 413.02Z" fill="#F0F0F0"/>
<path d="M137.486 313.215C136.024 295.18 132.553 270.465 132.553 270.465C132.553 270.465 152.077 256.652 150.984 234.751L75.6761 239.874C73.3945 241.814 73.5038 251.296 75.1979 262.158C77.0014 273.771 83.1905 303.952 86.9204 321.399C101.553 325.948 129.11 324.309 137.486 313.215Z" fill="#455A64"/>
<path d="M91.5928 321.563C91.5928 321.317 87.9039 296.56 85.2944 276.613L85.0211 274.509C82.5346 255.572 81.5099 247.634 83.5046 239.177L84.7752 239.478C82.8351 247.675 83.8598 255.531 86.3191 274.372L86.5923 276.462C89.2019 296.41 92.8361 321.153 92.8771 321.399L91.5928 321.563Z" fill="#37474F"/>
<path d="M85.1169 270.697V269.399C92.1805 269.235 98.2057 264.631 98.2877 259.33L98.5199 241.773H99.8179L99.5856 259.33C99.4763 265.437 93.0002 270.601 85.1169 270.697Z" fill="#37474F"/>
<path d="M85.1578 315.824C85.1578 315.824 101.184 319.062 114 317.191C126.815 315.319 137.417 307.135 137.417 307.135L138.21 313.816C138.21 313.816 133.387 322.013 114.983 324.541C96.5798 327.069 86.2918 322.246 86.2918 322.246L85.1578 315.824Z" fill="#37474F"/>
<path d="M75.5668 234.122L75.6761 239.874C75.6761 239.874 91.3744 248.946 121.774 244.574C151.736 240.257 152.651 232.168 152.651 232.168L152.35 225.337L75.5668 234.122Z" fill="black"/>
<path d="M135.313 239.177C135.75 241.719 133.414 244.246 130.08 244.82C126.747 245.394 123.7 243.809 123.249 241.268C122.798 238.726 125.148 236.213 128.482 235.625C131.816 235.038 134.876 236.595 135.313 239.177Z" fill="#F0F0F0"/>
<path d="M197.054 188.393C204.364 180.087 216.66 164.689 219.215 161.301C222.48 156.97 226.046 157.42 229.763 154.797C232.987 152.502 235.337 150.931 237.564 147.488C237.923 147.03 238.181 146.501 238.32 145.935C238.459 145.37 238.476 144.781 238.37 144.209C238.192 143.635 237.81 143.157 237.619 142.597C237.489 141.613 237.288 140.64 237.017 139.686C236.457 138.552 235.364 138.416 234.859 137.241C234.64 136.735 234.722 135 234.34 134.604C233.668 134.017 232.918 133.525 232.113 133.142C231.675 132.841 230.623 132.445 230.869 131.776C231.115 131.106 232.399 129.549 234.613 125.573C236.826 121.597 237.755 119.548 236.266 118.059C234.107 115.859 231.074 120.012 227.262 124.89C223.765 129.399 219.584 135.137 218.327 135.055C216.551 134.959 217.507 129.289 215.485 126.393C213.463 123.496 211.004 124.207 211.154 127.171C211.277 129.713 209.884 132.964 209.542 137.282C209.329 140.405 208.122 143.378 206.099 145.766C204.419 147.638 185.045 166.711 185.045 166.711C185.045 166.711 167.051 155.152 154.687 147.761C149.74 144.702 144.32 142.485 138.647 141.203L146.749 174.84C146.749 174.84 161.969 182.464 174.211 188.366C186.698 194.35 191.111 195.156 197.054 188.393Z" fill="#B16668"/>
<path d="M138.374 140.998C146.12 141.722 151.572 144.988 159.141 149.701C166.71 154.415 180.564 162.749 180.564 162.749C180.564 162.749 181.233 172.313 177.121 179.048C173.008 185.784 168.923 186.631 168.923 186.631L145.205 175.291L138.374 140.998Z" fill="#4A9CBF"/>
<path opacity="0.3" d="M138.374 140.998C146.12 141.722 151.572 144.988 159.141 149.701C166.71 154.415 180.564 162.749 180.564 162.749C180.564 162.749 181.233 172.313 177.121 179.048C173.008 185.784 168.923 186.631 168.923 186.631L145.205 175.291L138.374 140.998Z" fill="white"/>
<path d="M226.525 134.413C224.625 137.596 221.715 140.561 222.494 142.61C222.665 142.995 222.918 143.339 223.234 143.617C223.551 143.895 223.924 144.101 224.328 144.22C224.732 144.34 225.158 144.37 225.575 144.309C225.991 144.248 226.39 144.097 226.743 143.867C226.554 144.338 226.489 144.849 226.557 145.352C226.624 145.855 226.82 146.332 227.126 146.736C227.458 147.116 227.89 147.397 228.372 147.546C228.855 147.696 229.369 147.709 229.858 147.584C229.835 147.964 229.892 148.345 230.025 148.703C230.158 149.06 230.364 149.385 230.631 149.658C230.897 149.931 231.218 150.145 231.572 150.287C231.926 150.428 232.305 150.494 232.686 150.48C231.662 151.04 229.325 151.395 229.011 149.114C229.011 149.114 225.719 148.881 225.65 146.135C225.65 146.135 225.882 149.223 222.016 151.915C223.455 150.075 224.226 147.801 224.202 145.466C223.465 145.266 222.796 144.871 222.265 144.323C221.733 143.774 221.36 143.093 221.183 142.351C220.759 139.809 226.525 134.413 226.525 134.413Z" fill="#9A4A4D"/>
<path d="M76.0039 193.982C76.4548 185.866 73.8316 164.17 73.6949 160.672C73.7181 157.096 73.1455 153.54 72.0008 150.152C79.1736 147.693 96.3611 140.479 96.3611 140.479C103.821 139.768 119.724 138.744 119.724 138.744L138.374 140.984C143.032 145.083 151.244 165.072 151.708 185.606C152.856 216.361 157.173 222.222 153.484 227.619C139.098 240.817 93.2597 244.301 74.2414 233.398C68.5168 226.772 75.0612 210.868 76.0039 193.982Z" fill="#4A9CBF"/>
<path opacity="0.2" d="M146.981 176.425L147.2 176.493L147.323 176.316C148.689 174.526 149.918 172.709 151.189 170.851C149.823 172.477 148.361 174.102 146.995 175.769C145.164 175.073 143.347 174.403 141.53 173.706L136.065 171.725C135.86 170.878 135.627 170.031 135.409 169.184C137.608 168.692 139.794 168.187 141.98 167.626C144.166 167.066 146.653 166.438 148.976 165.782C146.589 166.155 144.212 166.565 141.844 167.012C139.476 167.458 137.112 167.913 134.753 168.378L134.302 168.474L134.411 168.924C134.685 170.004 134.917 171.097 135.19 172.162L135.258 172.422L135.504 172.504L141.243 174.471C143.183 175.195 145.109 175.797 146.981 176.425ZM110.256 170.864C110.393 172.381 110.529 173.911 110.707 175.428C107.428 177.19 104.135 178.898 100.897 180.715C97.8276 179.731 94.7398 178.793 91.6339 177.901C94.6806 179.117 97.7547 180.278 100.829 181.385H100.952L101.088 181.316C104.572 179.636 107.92 177.819 111.431 176.07L111.718 175.933V175.605C111.554 173.816 111.349 172.039 111.158 170.263V169.812H110.707C107.4 170.072 104.108 170.304 100.801 170.632C97.4951 170.96 94.2161 171.247 90.9234 171.643C94.2298 171.643 97.5498 171.466 100.856 171.302C104.162 171.138 107.1 171.015 110.256 170.864ZM140.751 190.498C140.283 190.401 139.863 190.145 139.562 189.773C139.508 189.689 139.467 189.597 139.439 189.5L139.33 189.104C139.248 188.831 139.193 188.544 139.125 188.271C138.592 186.044 138.169 183.748 137.69 181.439C137.212 179.13 136.748 176.89 136.201 174.608C136.351 176.931 136.625 179.24 136.953 181.549C137.281 183.858 137.649 186.153 138.169 188.38C138.251 188.667 138.305 188.954 138.401 189.241L138.524 189.678C138.583 189.856 138.666 190.026 138.77 190.183C139.196 190.737 139.807 191.12 140.491 191.263C141.669 191.533 142.881 191.616 144.085 191.509C146.424 191.342 148.738 190.916 150.984 190.238C148.692 190.546 146.383 190.719 144.071 190.757C142.956 190.806 141.839 190.705 140.751 190.457V190.498ZM111.212 189.022C111.176 190.756 110.655 192.446 109.709 193.9C109.46 194.21 109.15 194.464 108.797 194.648C108.444 194.831 108.057 194.939 107.66 194.965C106.758 195.047 105.857 195.157 104.928 195.266C101.362 195.839 97.7589 196.145 94.1478 196.181C93.3091 196.124 92.521 195.759 91.9345 195.157C91.3267 194.524 90.8609 193.77 90.5682 192.943C89.9622 191.243 89.6212 189.46 89.5572 187.656C89.4332 189.497 89.6273 191.346 90.131 193.121C90.4065 194.032 90.8721 194.875 91.4973 195.594C92.161 196.351 93.0801 196.837 94.0795 196.96C97.7361 197.043 101.393 196.81 105.01 196.263L107.742 195.963C108.255 195.913 108.753 195.76 109.207 195.514C109.66 195.267 110.058 194.932 110.379 194.528C110.968 193.748 111.378 192.848 111.581 191.891C111.803 190.995 111.94 190.08 111.991 189.159C112.01 185.499 111.731 181.843 111.158 178.229C111.171 181.795 111.568 185.415 111.212 188.981V189.022Z" fill="black"/>
<path d="M97.5497 130.683C94.8172 124.904 87.4258 120.873 83.0264 111.815C77.0149 99.5185 73.0937 84.3394 86.7836 77.1528C87.1388 72.2343 94.7352 66.1135 101.471 64.6243C106.228 63.6027 111.14 63.5284 115.926 64.4057C121.284 65.4436 126.784 65.5268 132.171 64.6516C134.343 64.2827 136.652 63.7772 138.66 64.6516C139.629 65.141 140.451 65.8776 141.044 66.7869C141.637 67.6962 141.978 68.7459 142.035 69.8297C142.102 72.0123 141.475 74.16 140.245 75.9642C141.396 76.1871 142.44 76.786 143.213 77.6669C143.987 78.5478 144.445 79.6607 144.517 80.8306C144.589 82.0005 144.27 83.1612 143.611 84.1302C142.951 85.0992 141.989 85.8216 140.874 86.1838C141.46 87.3331 141.683 88.6337 141.512 89.9125C141.341 91.1914 140.785 92.3879 139.917 93.343C138.122 95.2169 135.741 96.4218 133.168 96.7586C133.236 96.7586 132.061 101.95 131.87 102.442C131.135 104.334 130.132 106.11 128.892 107.716C127.657 109.327 126.193 110.749 124.547 111.938C122.586 113.074 120.506 113.991 118.344 114.67C117.073 115.085 115.85 115.634 114.696 116.31C113.968 116.977 113.317 117.724 112.756 118.537L101.662 131.243C100.815 132.172 98.6017 130.587 97.5497 130.683Z" fill="#263238"/>
<path d="M95.5141 111.746C95.4277 111.856 95.3265 111.952 95.2135 112.033C93.5604 113.318 93.3281 110.271 91.4427 108.413C90.9304 107.936 90.3153 107.583 89.6448 107.381C88.9743 107.18 88.2665 107.136 87.5761 107.252C86.4396 107.317 85.3471 107.714 84.434 108.394C83.5209 109.074 82.8273 110.007 82.439 111.077C82.1275 112.172 82.038 113.317 82.1756 114.447C82.3132 115.577 82.6752 116.667 83.2404 117.655C83.8055 118.643 84.5624 119.508 85.4665 120.199C86.3706 120.89 87.4038 121.393 88.5052 121.679C91.152 122.465 93.9997 122.2 96.4568 120.941L95.6644 141.435C101.293 147.993 119.82 154.387 119.82 154.387C119.82 154.387 125.9 146.668 123.099 141.381L123.194 134.167C126.232 133.937 129.215 133.232 132.034 132.076C134.822 130.785 137.212 128.768 138.954 126.238C140.697 123.707 141.728 120.755 141.94 117.69C142.363 113.249 140.669 109.492 140.3 105.052C140.081 102.415 139.904 98.2206 139.685 96.5401C139.412 94.4497 137.731 86.1838 135.177 83.5469C132.171 89.6404 116.131 92.6052 103.917 88.8344C104.264 91.9837 103.794 95.1696 102.55 98.0839C101.184 101.336 98.6019 103.166 95.7191 105.339C96.2344 106.94 96.3517 108.642 96.0606 110.298C95.9903 110.816 95.8034 111.311 95.5141 111.746Z" fill="#B16668"/>
<path d="M112.907 97.7423L107.606 102.046C107.043 101.313 106.785 100.392 106.884 99.4732C106.983 98.5548 107.433 97.7099 108.138 97.1139C108.489 96.8333 108.893 96.6264 109.326 96.5058C109.758 96.3852 110.211 96.3533 110.656 96.412C111.102 96.4707 111.531 96.6188 111.917 96.8474C112.304 97.076 112.64 97.3804 112.907 97.7423Z" fill="#263238"/>
<path d="M111.308 106.363C111.399 106.909 111.649 107.416 112.027 107.82C112.405 108.223 112.894 108.506 113.433 108.632C113.971 108.758 114.535 108.722 115.053 108.528C115.571 108.334 116.02 107.991 116.344 107.542C116.667 107.093 116.85 106.559 116.87 106.006C116.89 105.453 116.746 104.907 116.456 104.436C116.165 103.965 115.742 103.59 115.24 103.36C114.737 103.129 114.177 103.052 113.631 103.139C113.262 103.188 112.907 103.312 112.588 103.503C112.269 103.694 111.992 103.949 111.774 104.251C111.557 104.552 111.403 104.896 111.323 105.259C111.243 105.622 111.238 105.998 111.308 106.363Z" fill="#263238"/>
<path d="M130.19 102.661C130.28 103.207 130.53 103.713 130.909 104.117C131.287 104.521 131.776 104.804 132.315 104.93C132.853 105.056 133.417 105.019 133.935 104.825C134.453 104.631 134.902 104.288 135.225 103.839C135.549 103.391 135.732 102.856 135.752 102.303C135.772 101.75 135.628 101.204 135.337 100.733C135.047 100.262 134.624 99.8877 134.121 99.657C133.619 99.4262 133.059 99.3495 132.512 99.4365C131.777 99.5572 131.12 99.9643 130.685 100.569C130.25 101.173 130.071 101.925 130.19 102.661Z" fill="#263238"/>
<path d="M136.625 97.0866L129.944 95.488C130.024 95.0468 130.194 94.6266 130.442 94.2532C130.691 93.8799 131.013 93.5613 131.389 93.3169C131.765 93.0726 132.187 92.9076 132.63 92.8323C133.072 92.7569 133.525 92.7726 133.96 92.8785C134.859 93.1058 135.635 93.6689 136.131 94.4517C136.627 95.2345 136.803 96.1775 136.625 97.0866Z" fill="#263238"/>
<path d="M122.375 99.942L126.064 114.684L133.332 110.107L122.375 99.942Z" fill="#9A4A4D"/>
<path d="M117.62 117.826L126.446 119.562C126.183 120.756 125.466 121.802 124.446 122.477C123.426 123.153 122.184 123.406 120.981 123.182C120.403 123.062 119.855 122.826 119.371 122.489C118.886 122.151 118.474 121.72 118.161 121.22C117.847 120.72 117.637 120.161 117.544 119.578C117.451 118.995 117.477 118.399 117.62 117.826Z" fill="#9A4A4D"/>
<path d="M121.022 123.182C121.669 123.333 122.342 123.333 122.989 123.182C122.726 122.058 122.078 121.062 121.157 120.366C120.236 119.67 119.101 119.317 117.948 119.37C117.821 119.363 117.693 119.363 117.565 119.37C117.654 120.293 118.038 121.163 118.661 121.85C119.284 122.537 120.112 123.004 121.022 123.182Z" fill="#FFA8A7"/>
<path d="M106.075 130.573C103.098 128.889 100.712 126.327 99.2439 123.237C99.2439 123.237 100.842 128.51 103.671 131.093C110.174 137.036 120.721 137.555 123.14 137.555V134.139C123.14 134.139 113.467 134.167 106.075 130.573Z" fill="#9A4A4D"/>
<path d="M72.4107 151.6C66.3035 154.046 63.0928 153.896 59.281 168.269C55.1822 183.543 55.1822 185.825 51.6436 216.006C49.0614 237.975 58.2699 237.292 65.5521 234.819L79.2147 198.449C79.2147 198.449 80.5809 193.162 82.5757 184.063C85.6771 169.58 79.3923 153.937 72.4107 151.6Z" fill="#B16668"/>
<path d="M79.2147 198.19C73.2168 203.013 59.9778 210.144 58.5159 217.536C58.5159 217.536 58.5159 211.716 66.3992 204.433C70.7434 200.34 75.4131 196.607 80.3623 193.271L79.2147 198.19Z" fill="#9A4A4D"/>
<path d="M87.0432 176.862C88.7511 166.82 82.234 150.903 75.43 148.909C65.5657 152.475 61.7675 155.262 58.7344 167.763C55.551 180.907 52.9961 202.002 52.9961 202.002C61.1936 206.742 73.49 206.92 80.6218 205.69L82.4526 196.564L87.0432 176.862Z" fill="#4A9CBF"/>
<path opacity="0.3" d="M87.0432 176.862C88.7511 166.82 82.234 150.903 75.43 148.909C65.5657 152.475 61.7675 155.262 58.7344 167.763C55.551 180.907 52.9961 202.002 52.9961 202.002C61.1936 206.742 73.49 206.92 80.6218 205.69L82.4526 196.564L87.0432 176.862Z" fill="white"/>
<path d="M65.5521 234.819C70.3476 233.179 73.5583 231.253 78.4086 226.772C84.3791 221.307 87.1389 216.006 90.4453 211.743C92.3727 209.355 94.4297 207.074 96.6071 204.912C97.6728 203.832 99.7768 201.551 100.706 200.499C102.469 198.283 103.811 195.764 104.668 193.066C105.555 190.426 105.734 187.599 105.187 184.869C105.01 184.09 104.723 183.325 104.572 182.519C104.367 181.426 104.572 180.278 104.449 179.171C104.053 176.821 102.892 176.917 102.564 174.991C102.236 173.064 101.963 170.523 100.706 169.403C99.7768 168.583 98.4242 168.583 96.4158 168.432C96.6891 169.607 97.017 171.261 97.3312 172.927C96.9897 175.865 96.853 176.944 95.2818 179.185C92.5493 183.147 90.0491 185.251 89.6529 184.486C89.2566 183.721 90.2813 181.262 89.7485 177.341C89.2157 173.419 88.0817 172.067 86.8657 171.807C84.9393 171.411 85.0349 173.474 84.3654 176.63C83.5593 180.401 82.0155 182.519 82.0291 188.038C82.0291 192.875 82.2477 192.615 80.4033 195.553C78.6093 197.681 76.6593 199.672 74.5694 201.51C67.2189 206.797 58.994 211.852 55.92 220.869C52.8459 229.887 54.8543 236.445 65.5521 234.819Z" fill="#B16668"/>
<path d="M119.82 154.36L110.092 162.667C110.092 162.667 101.58 157.817 98.3424 153.253C93.2736 146.094 92.1805 142.228 92.1805 142.228L96.0061 134.03C96.0061 134.03 97.0171 141.586 102.1 145.124C107.717 148.728 113.648 151.82 119.82 154.36Z" fill="#4A9CBF"/>
<path opacity="0.3" d="M119.82 154.36L110.092 162.667C110.092 162.667 101.58 157.817 98.3424 153.253C93.2736 146.094 92.1805 142.228 92.1805 142.228L96.0061 134.03C96.0061 134.03 97.0171 141.586 102.1 145.124C107.717 148.728 113.648 151.82 119.82 154.36Z" fill="white"/>
<path d="M119.82 154.36L130.627 157.093C130.108 153.181 129.383 149.3 128.455 145.466C127.252 141.039 123.181 135.752 123.181 135.752L123.099 141.34C123.099 141.34 122.867 148.854 119.82 154.36Z" fill="#4A9CBF"/>
<path opacity="0.3" d="M119.82 154.36L130.627 157.093C130.108 153.181 129.383 149.3 128.455 145.466C127.252 141.039 123.181 135.752 123.181 135.752L123.099 141.34C123.099 141.34 122.867 148.854 119.82 154.36Z" fill="white"/>
</svg>
