<svg viewBox="0 0 500 500" fill="none" xmlns="http://www.w3.org/2000/svg">
<path d="M172.867 351.271C165.69 341.409 142.015 346.409 132.951 353.005C126.382 357.785 114.698 369.875 108.763 376.168C106.509 378.557 105.184 380.246 107.382 383.267L114.831 393.503L122.28 403.74C124.478 406.761 126.493 406.019 129.46 404.61C137.273 400.898 152.37 393.499 158.94 388.718C168.004 382.123 180.043 361.134 172.867 351.271Z" fill="black"/>
<path d="M118.008 407.537L102.454 386.163C101.371 384.675 99.2392 384.019 97.7511 385.102L95.9924 386.382C88.5958 391.764 86.963 402.124 92.3454 409.521C97.7279 416.917 108.088 418.55 115.484 413.168L117.243 411.888C118.731 410.805 119.091 409.025 118.008 407.537Z" fill="black"/>
<path d="M412.899 199.251C405.722 189.389 382.048 194.388 372.984 200.984C366.415 205.764 354.73 217.854 348.795 224.147C346.542 226.537 345.216 228.226 347.415 231.247L354.863 241.483L362.312 251.719C364.511 254.74 366.525 253.998 369.492 252.589C377.305 248.878 392.403 241.478 398.972 236.698C408.036 230.102 420.076 209.113 412.899 199.251Z" fill="black"/>
<path d="M358.041 255.517L342.487 234.142C341.404 232.654 339.272 231.999 337.784 233.082L336.025 234.361C328.628 239.744 326.995 250.103 332.378 257.5C337.76 264.897 348.12 266.529 355.517 261.147L357.275 259.867C358.763 258.784 359.124 257.005 358.041 255.517Z" fill="black"/>
<path d="M168.351 242.877C161.174 233.015 137.5 238.015 128.436 244.611C121.867 249.391 110.182 261.481 104.248 267.774C101.994 270.163 100.669 271.852 102.867 274.873L110.316 285.109L117.765 295.346C119.963 298.367 121.978 297.625 124.945 296.216C132.757 292.504 147.855 285.105 154.425 280.324C163.489 273.729 175.528 252.74 168.351 242.877Z" fill="black"/>
<path d="M113.493 299.143L97.9391 277.769C96.8562 276.281 94.7239 275.625 93.2358 276.708L91.4772 277.988C84.0805 283.371 82.4477 293.73 87.8302 301.127C93.2126 308.523 103.572 310.156 110.969 304.774L112.728 303.494C114.216 302.411 114.576 300.631 113.493 299.143Z" fill="black"/>
<path d="M408.384 90.8569C401.207 80.9948 377.532 85.9945 368.469 92.5901C361.899 97.3705 350.215 109.46 344.28 115.753C342.026 118.143 340.701 119.832 342.899 122.853L350.348 133.089L357.797 143.325C359.995 146.346 362.01 145.604 364.977 144.195C372.79 140.484 387.888 133.084 394.457 128.304C403.521 121.708 415.56 100.719 408.384 90.8569Z" fill="black"/>
<path d="M353.525 147.123L337.971 125.748C336.889 124.26 334.756 123.605 333.268 124.688L331.51 125.968C324.113 131.35 322.48 141.71 327.863 149.106C333.245 156.503 343.605 158.136 351.001 152.753L352.76 151.474C354.248 150.391 354.608 148.611 353.525 147.123Z" fill="black"/>
</svg>
