<svg viewBox="0 0 500 500" fill="none" xmlns="http://www.w3.org/2000/svg">
<path d="M141.784 365.496C135.053 356.247 112.85 360.936 104.349 367.122C98.1884 371.605 87.2301 382.944 81.6642 388.845C79.5509 391.086 78.3076 392.67 80.3694 395.503L87.3552 405.103L94.341 414.703C96.4028 417.537 98.2923 416.841 101.075 415.519C108.402 412.039 122.561 405.099 128.723 400.616C137.223 394.43 148.514 374.746 141.784 365.496Z" fill="black"/>
<path d="M90.335 418.265L75.7478 398.219C74.7322 396.823 72.7325 396.209 71.3369 397.224L69.6876 398.424C62.7507 403.472 61.2193 413.188 66.2672 420.125C71.3152 427.062 81.0308 428.593 87.9677 423.545L89.6171 422.345C91.0127 421.33 91.3506 419.66 90.335 418.265Z" fill="black"/>
<path d="M436.932 180.403C430.201 171.154 407.998 175.843 399.497 182.029C393.336 186.512 382.378 197.851 376.812 203.752C374.699 205.993 373.456 207.577 375.517 210.411L382.503 220.01L389.489 229.61C391.551 232.444 393.44 231.748 396.223 230.426C403.55 226.946 417.709 220.006 423.87 215.523C432.371 209.337 443.662 189.653 436.932 180.403Z" fill="black"/>
<path d="M385.483 233.172L370.896 213.126C369.88 211.731 367.881 211.116 366.485 212.131L364.836 213.332C357.899 218.38 356.367 228.095 361.415 235.032C366.463 241.969 376.179 243.5 383.116 238.453L384.765 237.252C386.161 236.237 386.499 234.568 385.483 233.172Z" fill="black"/>
<path d="M289.358 275.451C282.627 266.202 260.424 270.891 251.923 277.077C245.762 281.56 234.804 292.898 229.238 298.8C227.125 301.041 225.882 302.625 227.943 305.458L234.929 315.058L241.915 324.658C243.977 327.491 245.866 326.796 248.649 325.474C255.976 321.994 270.135 315.054 276.297 310.571C284.797 304.385 296.088 284.701 289.358 275.451Z" fill="black"/>
<path d="M237.909 328.22L223.322 308.174C222.306 306.778 220.307 306.164 218.911 307.179L217.262 308.379C210.325 313.427 208.793 323.143 213.841 330.08C218.889 337.017 228.605 338.548 235.542 333.5L237.191 332.3C238.587 331.284 238.925 329.615 237.909 328.22Z" fill="black"/>
<path d="M137.549 263.84C130.818 254.591 108.615 259.28 100.115 265.465C93.9538 269.949 82.9954 281.287 77.4295 287.189C75.3162 289.43 74.073 291.014 76.1348 293.847L83.1206 303.447L90.1064 313.047C92.1682 315.88 94.0577 315.184 96.8401 313.863C104.167 310.382 118.327 303.443 124.488 298.959C132.988 292.774 144.279 273.089 137.549 263.84Z" fill="black"/>
<path d="M86.1003 316.608L71.5131 296.563C70.4976 295.167 68.4979 294.552 67.1023 295.568L65.4529 296.768C58.516 301.816 56.9847 311.532 62.0326 318.469C67.0805 325.405 76.7962 326.937 83.7331 321.889L85.3824 320.689C86.778 319.673 87.1159 318.004 86.1003 316.608Z" fill="black"/>
<path d="M432.697 78.747C425.966 69.4979 403.763 74.1868 395.263 80.3725C389.102 84.8557 378.144 96.1942 372.578 102.096C370.464 104.337 369.221 105.921 371.283 108.754L378.269 118.354L385.254 127.954C387.316 130.787 389.206 130.091 391.988 128.77C399.315 125.289 413.475 118.35 419.636 113.866C428.136 107.681 439.427 87.9964 432.697 78.747Z" fill="black"/>
<path d="M381.248 131.516L366.661 111.47C365.646 110.074 363.646 109.46 362.25 110.475L360.601 111.675C353.664 116.723 352.133 126.439 357.181 133.376C362.229 140.313 371.944 141.844 378.881 136.796L380.53 135.596C381.926 134.58 382.264 132.911 381.248 131.516Z" fill="black"/>
<path d="M285.123 173.795C278.392 164.546 256.189 169.234 247.689 175.42C241.528 179.903 230.569 191.242 225.004 197.143C222.89 199.384 221.647 200.968 223.709 203.802L230.695 213.402L237.68 223.002C239.742 225.835 241.632 225.139 244.414 223.818C251.741 220.337 265.901 213.398 272.062 208.914C280.562 202.728 291.853 183.044 285.123 173.795Z" fill="black"/>
<path d="M233.674 226.563L219.087 206.517C218.072 205.122 216.072 204.507 214.676 205.523L213.027 206.723C206.09 211.771 204.559 221.487 209.607 228.423C214.655 235.36 224.37 236.892 231.307 231.844L232.956 230.644C234.352 229.628 234.69 227.959 233.674 226.563Z" fill="black"/>
</svg>
